<?xml version="1.0" encoding="UTF-8"?>
<svg width="742px" height="261px" viewBox="0 0 742 261" version="1.1" xmlns="http://www.w3.org/2000/svg" xmlns:xlink="http://www.w3.org/1999/xlink">
    <!-- Generator: sketchtool 63.1 (101010) - https://sketch.com -->
    <title>A57BDC94-D49B-4ECC-925A-6A8BFD84463F</title>
    <desc>Created with sketchtool.</desc>
    <defs>
        <rect id="path-1" x="0" y="0" width="310" height="260.874317"></rect>
    </defs>
    <g id="Pages" stroke="none" stroke-width="1" fill="none" fill-rule="evenodd">
        <g id="404" transform="translate(-589.000000, -750.000000)">
            <g transform="translate(580.000000, 686.000000)">
                <g id="Tire" transform="translate(232.000000, 64.000000)">
                    <mask id="mask-2" fill="white">
                        <use xlink:href="#path-1"></use>
                    </mask>
                    <g id="Rectangle"></g>
                    <g id="Group" mask="url(#mask-2)" fill-rule="nonzero">
                        <g transform="translate(-61.830601, -60.983607)">
                            <circle id="Oval" fill="#5D5D5D" transform="translate(208.960924, 208.529720) rotate(-45.000000) translate(-208.960924, -208.529720) " cx="208.960924" cy="208.52972" r="147.24156"></circle>
                            <path d="M86.5758278,208.531121 C86.5758278,140.831954 141.345752,85.950935 208.907877,85.950935 C276.470002,85.950935 331.239925,140.831954 331.239925,208.531121 C331.239925,276.230289 276.470002,331.111308 208.907877,331.111308 C176.462143,331.115418 145.344124,318.202077 122.401525,295.212942 C99.4589267,272.223807 86.5717261,241.042668 86.5758278,208.531121 Z" id="Path" fill="#4A4A4A"></path>
                            <path d="M208.954273,313.181438 C166.705192,313.187705 128.61275,287.690673 112.440392,248.580236 C96.2680335,209.469799 105.200851,164.448625 135.073252,134.511199 C164.945652,104.573773 209.874366,95.6161699 248.908027,111.815541 C287.941687,128.014911 313.392746,166.180845 313.392746,208.515624 C313.324588,266.286595 266.608288,313.104586 208.954273,313.181438 Z M208.954273,105.693938 C152.282377,105.693938 106.340729,151.728775 106.340729,208.515624 C106.340729,265.302473 152.282377,311.33731 208.954273,311.33731 C265.626169,311.33731 311.567818,265.302473 311.567818,208.515624 C311.491126,151.763147 265.591878,105.777729 208.954273,105.709435 L208.954273,105.693938 Z" id="Shape" fill="#767676"></path>
                            <path d="M208.954273,312.003675 C151.923641,312.003675 105.691178,265.677435 105.691178,208.531121 C105.691178,151.384808 151.923641,105.058567 208.954273,105.058567 C265.984906,105.058567 312.217369,151.384808 312.217369,208.531121 C312.157699,265.65265 265.960172,311.943885 208.954273,312.003675 Z M208.954273,105.895398 C152.427581,105.895398 106.603642,151.812285 106.603642,208.453637 C106.603642,265.094988 152.427581,311.011876 208.954273,311.011876 C265.480966,311.011876 311.304905,265.094988 311.304905,208.453637 C311.194157,151.870867 265.422571,106.041089 208.954273,105.972882 L208.954273,105.895398 Z" id="Shape" fill="#3F3F3F"></path>
                            <path d="M208.954273,340.424922 C155.714792,340.43119 107.714134,308.300272 87.3359322,259.015432 C66.95773,209.730593 78.2153434,152.998177 115.85913,115.273601 C153.502917,77.5490246 210.119168,66.2619102 259.306634,86.6756563 C308.494101,107.089402 340.565617,155.183648 340.565617,208.531121 C340.480413,281.332614 281.608384,340.330991 208.954273,340.424922 Z M208.954273,78.5279377 C156.452906,78.5216696 109.117684,110.207057 89.021946,158.808584 C68.926208,207.410111 80.0276883,263.356001 117.149549,300.557593 C154.271411,337.759184 210.102727,348.889849 258.608265,328.75914 C307.113802,308.628431 338.740689,261.20097 338.740689,208.593109 C338.715121,136.766728 280.635229,78.5343517 208.954273,78.4659502 L208.954273,78.5279377 Z" id="Shape" fill="#767676"></path>
                            <path d="M208.954273,339.045701 C156.271505,339.051969 108.772744,307.257087 88.6075867,258.487628 C68.4424295,209.718168 79.5822815,153.578979 116.832413,116.248857 C154.082544,78.9187354 210.106768,67.7496213 258.779898,87.9498901 C307.453028,108.150159 339.189188,155.741491 339.189188,208.531121 C339.112489,280.574426 280.851732,338.960292 208.954273,339.045701 Z M208.954273,78.946353 C156.639155,78.9400851 109.472133,110.513879 89.4491143,158.943585 C69.4260957,207.373291 80.490716,263.120433 117.483091,300.187843 C154.475466,337.255254 210.10976,348.342318 258.44143,328.278684 C306.773101,308.215051 338.28298,260.952355 338.276724,208.531121 C338.20001,136.995295 280.345291,79.0232228 208.954273,78.946353 Z" id="Shape" fill="#3F3F3F"></path>
                            <path d="M275.378565,323.889769 L271.836967,341.711162 C274.466101,340.471413 277.069459,339.143848 279.647041,337.728468 L280.188333,321.115831 L275.378565,323.889769 Z" id="Path" fill="#4A4A4A"></path>
                            <polygon id="Path" fill="#4A4A4A" points="286.389996 317.520559 284.534137 334.970026 287.13234 333.42034 287.673632 316.885187"></polygon>
                            <path d="M302.922608,302.736551 L304.097985,320.867881 C306.309551,318.977264 308.47472,317.024659 310.593492,314.979073 L306.835377,298.815845 L302.922608,302.736551 Z" id="Path" fill="#4A4A4A"></path>
                            <path d="M311.908059,293.732874 L314.537193,311.073864 C315.248606,310.345511 315.944553,309.601662 316.625034,308.857812 L312.882385,292.741075 L311.908059,293.732874 Z" id="Path" fill="#4A4A4A"></path>
                            <path d="M324.048471,275.152135 L329.863496,292.36915 C331.518304,289.967136 333.11125,287.518632 334.626868,284.992643 L326.894122,270.348108 L324.048471,275.152135 Z" id="Path" fill="#4A4A4A"></path>
                            <path d="M330.404789,264.118369 L337.426122,280.188616 C337.921018,279.305294 338.400448,278.406476 338.879879,277.507658 L331.147132,262.92511 L330.404789,264.118369 Z" id="Path" fill="#4A4A4A"></path>
                            <path d="M337.333329,243.027138 L347.401365,258.152077 C348.370536,255.403966 349.267535,252.614531 350.092361,249.78377 L338.77162,237.665224 L337.333329,243.027138 Z" id="Path" fill="#4A4A4A"></path>
                            <path d="M340.627479,230.722629 L351.561583,244.437353 C351.809031,243.445554 352.041013,242.453754 352.272995,241.461955 L340.96772,229.389899 L340.627479,230.722629 Z" id="Path" fill="#4A4A4A"></path>
                            <path d="M341.864719,208.562115 L355.505283,220.54119 C355.737266,217.643277 355.876455,214.729866 355.938317,211.769966 L341.864719,203.014238 L341.864719,208.562115 Z" id="Path" fill="#4A4A4A"></path>
                            <path d="M341.864719,195.823694 L355.969248,206.253082 C355.969248,205.245786 355.969248,204.222993 355.891921,203.15371 L341.864719,194.428976 L341.864719,195.823694 Z" id="Path" fill="#4A4A4A"></path>
                            <path d="M337.348795,174.081595 L353.603028,182.124467 C353.092666,179.273044 352.474047,176.406124 351.7781,173.539205 L335.910504,168.71968 L337.348795,174.081595 Z" id="Path" fill="#4A4A4A"></path>
                            <path d="M334.023714,161.777086 L350.324343,168.17729 C350.06143,167.200988 349.767586,166.224685 349.458276,165.248383 L333.668007,160.444355 L334.023714,161.777086 Z" id="Path" fill="#4A4A4A"></path>
                            <path d="M324.063936,141.956598 L341.864719,145.505379 C340.606859,142.891575 339.276826,140.308765 337.874622,137.756948 L321.295613,137.214558 L324.063936,141.956598 Z" id="Path" fill="#4A4A4A"></path>
                            <path d="M317.707619,130.922831 L335.121764,132.875436 C334.595937,132.007612 334.07011,131.124291 333.575215,130.271963 L317.011672,129.729573 L317.707619,130.922831 Z" id="Path" fill="#4A4A4A"></path>
                            <path d="M302.953539,114.372182 L321.048165,113.19442 C319.181996,110.983534 317.223033,108.808808 315.171278,106.670241 L299.040769,110.451475 L302.953539,114.372182 Z" id="Path" fill="#4A4A4A"></path>
                            <path d="M293.968087,105.368504 L311.273974,102.734038 C310.547096,102.021182 309.804752,101.323823 309.062408,100.626464 L292.993761,104.392202 L293.968087,105.368504 Z" id="Path" fill="#4A4A4A"></path>
                            <path d="M275.424962,93.1259826 L292.607124,87.2991621 C290.209973,85.6409978 287.766425,84.0603177 285.245549,82.5261283 L270.615193,90.4295284 L275.424962,93.1259826 Z" id="Path" fill="#4A4A4A"></path>
                            <path d="M264.428996,86.8342562 L280.482178,79.7986804 C279.585179,79.3027808 278.703646,78.8068812 277.806647,78.3419753 L263.238153,86.0904068 L264.428996,86.8342562 Z" id="Path" fill="#4A4A4A"></path>
                            <path d="M243.364995,79.8916616 L258.459316,69.7877069 C255.727079,68.8165702 252.948445,67.9177521 250.123415,67.0912528 L238.013934,78.4504533 L243.364995,79.8916616 Z" id="Path" fill="#4A4A4A"></path>
                            <polygon id="Path" fill="#4A4A4A" points="231.085394 76.5908298 244.772355 65.6345477 241.80298 64.921692 229.755361 76.2344019"></polygon>
                            <path d="M208.969739,75.3510808 L220.924565,61.6828476 C218.032518,61.4503947 215.125005,61.295426 212.186561,61.2334386 L203.417627,75.3355839 L208.969739,75.3510808 Z" id="Path" fill="#4A4A4A"></path>
                            <path d="M196.257104,75.3355839 L206.63445,61.2179417 C205.629192,61.2179417 204.60847,61.2179417 203.541351,61.2179417 L194.834278,75.3510808 L196.257104,75.3355839 Z" id="Path" fill="#4A4A4A"></path>
                            <path d="M174.559017,79.8761647 L182.585608,63.5734649 C179.739957,64.1003582 176.878841,64.7047359 174.017725,65.4175916 L169.207957,81.317373 L174.559017,79.8761647 Z" id="Path" fill="#4A4A4A"></path>
                            <polygon id="Path" fill="#4A4A4A" points="162.356744 83.1769966 168.666665 66.7813155 165.743687 67.6491399 160.949384 83.4869338"></polygon>
                            <path d="M142.499051,93.1259826 L146.040649,75.3045902 C143.42698,76.5598361 140.828778,77.8770694 138.307902,79.3027808 L137.76661,95.8999211 L142.499051,93.1259826 Z" id="Path" fill="#4A4A4A"></path>
                            <path d="M131.425758,99.5416839 L133.436272,82.107713 C132.570204,82.6191095 131.704137,83.1614997 130.838069,83.6573993 L130.296777,100.192552 L131.425758,99.5416839 Z" id="Path" fill="#4A4A4A"></path>
                            <path d="M114.970474,114.341188 L113.795096,96.2253552 C111.568065,98.1004756 109.418362,100.05308 107.299589,102.098666 L111.057704,118.277391 L114.970474,114.341188 Z" id="Path" fill="#4A4A4A"></path>
                            <path d="M105.985022,123.344865 L103.355888,106.003876 C102.644476,106.732228 101.948529,107.460581 101.252581,108.20443 L105.010696,124.321168 L105.985022,123.344865 Z" id="Path" fill="#4A4A4A"></path>
                            <path d="M93.8446104,141.925604 L88.0141196,124.708589 C86.3541567,127.095106 84.7715213,129.548776 83.2662133,132.069599 L91.0762872,146.729632 L93.8446104,141.925604 Z" id="Path" fill="#4A4A4A"></path>
                            <path d="M87.4882929,152.943874 L80.4669591,136.873627 C79.9720633,137.756948 79.4926331,138.655766 79.0132028,139.554584 L86.7459492,154.152629 L87.4882929,152.943874 Z" id="Path" fill="#4A4A4A"></path>
                            <path d="M80.5597521,174.050601 L70.4917163,158.925663 C69.5637867,161.668608 68.6049261,164.411552 67.785255,167.278472 L79.1214612,179.397019 L80.5597521,174.050601 Z" id="Path" fill="#4A4A4A"></path>
                            <path d="M77.2965331,186.339613 L66.3314987,172.640387 C66.0840508,173.616689 65.8520684,174.608488 65.620086,175.600287 L76.9098958,187.687841 L77.2965331,186.339613 Z" id="Path" fill="#4A4A4A"></path>
                            <path d="M76.0283627,208.515624 L62.387798,196.521052 C62.1558156,199.418966 62.0011607,202.347873 61.9392987,205.292277 L76.0283627,214.001514 L76.0283627,208.515624 Z" id="Path" fill="#4A4A4A"></path>
                            <path d="M76.0283627,221.238549 L61.9238332,210.902141 C61.9238332,211.924934 61.9238332,212.947727 62.0011607,214.001514 L76.0283627,222.741745 L76.0283627,221.238549 Z" id="Path" fill="#4A4A4A"></path>
                            <path d="M80.5442866,242.996145 L64.2745881,234.937776 C64.8004149,237.804695 65.4190346,240.656118 66.1149818,243.523038 L81.9361809,248.342562 L80.5442866,242.996145 Z" id="Path" fill="#4A4A4A"></path>
                            <path d="M83.8384366,255.285157 L67.5223416,248.900449 C67.8007205,249.876752 68.0945649,250.853054 68.3884092,251.829356 L84.1941429,256.633384 L83.8384366,255.285157 Z" id="Path" fill="#4A4A4A"></path>
                            <path d="M93.8291449,275.121141 L76.0283627,271.556863 C77.2656021,274.19133 78.5956345,276.77414 80.0184598,279.305294 L96.5820026,279.863182 L93.8291449,275.121141 Z" id="Path" fill="#4A4A4A"></path>
                            <path d="M100.169997,286.139411 L82.7713175,284.202303 C83.2971443,285.070128 83.8229711,285.937952 84.3178668,286.805776 L100.819548,287.33267 L100.169997,286.139411 Z" id="Path" fill="#4A4A4A"></path>
                            <path d="M114.939543,302.705558 L96.8294505,303.883319 C98.7162406,306.104536 100.675203,308.274097 102.706338,310.392002 L118.852312,306.626264 L114.939543,302.705558 Z" id="Path" fill="#4A4A4A"></path>
                            <polygon id="Path" fill="#4A4A4A" points="123.924994 311.709235 106.680969 314.343702 108.892535 316.435778 124.976647 312.685537"></polygon>
                            <path d="M108.42857,208.531121 C108.42857,152.899694 153.435461,107.801512 208.954273,107.801512 C264.473086,107.801512 309.479977,152.899694 309.479977,208.531121 C309.479977,264.162548 264.473086,309.260731 208.954273,309.260731 C182.293199,309.260731 156.724093,298.648177 137.871867,279.757711 C119.019641,260.867245 108.42857,235.246275 108.42857,208.531121 Z" id="Path" fill="#2A2A2A"></path>
                            <path d="M208.753222,94.7531532 C207.206673,97.8525258 205.953968,100.579974 205.474538,101.850716 C206.201416,100.703949 207.608776,98.0694819 209.155325,94.9546124 C210.701874,91.839743 211.939114,89.1277919 212.418544,87.8570492 C211.707131,89.0193139 210.299771,91.5762963 208.753222,94.7531532 Z" id="Path" fill="#5D5D5D"></path>
                            <path d="M201.62363,94.9856062 C200.262666,98.1934568 199.195547,100.982892 198.793445,102.269132 C199.442995,101.075873 200.6957,98.3794191 202.041198,95.1715685 C203.386696,91.9637179 204.453815,89.1897794 204.855918,87.8880429 C204.206367,89.0813014 202.969128,91.7932524 201.62363,94.9856062 Z" id="Path" fill="#5D5D5D"></path>
                            <path d="M194.509503,95.682965 C193.365057,98.9528031 192.483524,101.88171 192.158748,103.121459 C192.730971,101.897207 193.79809,99.1077717 194.942537,95.8224368 C196.086983,92.5371018 196.983982,89.7011759 197.308757,88.3839425 C196.736534,89.6081947 195.669415,92.39763 194.509503,95.682965 Z" id="Path" fill="#5D5D5D"></path>
                            <path d="M187.472704,96.814236 C186.529309,100.161558 185.833362,103.012981 185.585914,104.392202 C186.08081,103.121459 186.977808,100.285533 187.905738,96.9382109 C188.833667,93.5908885 189.560545,90.7394657 189.792528,89.344748 C189.297632,90.6154908 188.416099,93.4669136 187.472704,96.814236 Z" id="Path" fill="#5D5D5D"></path>
                            <path d="M180.513232,98.3794191 C179.786354,101.788729 179.260527,104.717636 179.105872,106.127851 C179.523441,104.841611 180.234853,101.943698 180.961731,98.5343878 C181.68861,95.1250779 182.214436,92.1961708 182.369091,90.7859563 C181.951523,92.0876928 181.24011,94.9856062 180.513232,98.3794191 Z" id="Path" fill="#5D5D5D"></path>
                            <path d="M173.662019,100.394011 C173.167123,103.818818 172.811417,106.794216 172.749555,108.142443 C173.07433,106.825209 173.600157,103.896302 174.125984,100.394011 C174.65181,96.8917203 174.976586,93.9938069 175.038448,92.6455798 C174.729138,94.0093038 174.17238,96.9537078 173.662019,100.394011 Z" id="Path" fill="#5D5D5D"></path>
                            <path d="M166.996391,102.827019 C166.702547,106.282819 166.547892,109.258217 166.563358,110.57545 C166.810806,109.24272 167.151046,106.282819 167.444891,102.827019 C167.738735,99.3712184 167.89339,96.3803238 167.877925,95.0785873 C167.599546,96.3958207 167.259305,99.3247278 166.996391,102.827019 Z" id="Path" fill="#5D5D5D"></path>
                            <path d="M160.423557,105.678442 C160.423557,109.149739 160.423557,112.125137 160.423557,113.426873 C160.593677,112.078646 160.748332,109.103248 160.82566,105.678442 C160.902987,102.253635 160.82566,99.2162497 160.82566,97.9300101 C160.655539,99.2162497 160.500884,102.191647 160.423557,105.678442 Z" id="Path" fill="#5D5D5D"></path>
                            <path d="M154.067239,108.932783 C154.221894,112.40408 154.422946,115.379478 154.608532,116.681214 C154.701325,115.31749 154.608532,112.342093 154.608532,108.932783 C154.608532,105.523473 154.252825,102.486088 154.067239,101.184351 C153.897119,102.4241 153.92805,105.523473 154.067239,108.932783 Z" id="Path" fill="#5D5D5D"></path>
                            <path d="M147.942904,112.590043 C148.298611,116.045843 148.700713,118.990247 148.963627,120.338474 C148.963627,118.97475 148.74711,115.999352 148.391404,112.590043 C148.035697,109.180733 147.633594,106.174341 147.355216,104.841611 C147.370681,106.143348 147.587198,109.118745 147.942904,112.590043 Z" id="Path" fill="#5D5D5D"></path>
                            <path d="M142.050552,116.619227 C142.622775,120.044034 143.210463,122.957444 143.597101,124.274677 C143.504308,122.910953 143.102205,119.951052 142.529982,116.526246 C141.957759,113.101439 141.37007,110.157035 140.983433,108.777814 C141.076225,110.172532 141.478328,113.178923 142.050552,116.619227 Z" id="Path" fill="#5D5D5D"></path>
                            <path d="M136.421112,121.020336 C137.209852,124.398652 137.967661,127.219081 138.416161,128.567308 C138.24604,127.219081 137.658352,124.290174 136.869611,120.911858 C136.080871,117.533542 135.323062,114.713113 134.874563,113.349389 C135.044683,114.682119 135.632372,117.611026 136.421112,121.020336 Z" id="Path" fill="#5D5D5D"></path>
                            <path d="M131.085517,125.669395 C132.090774,129.00122 133.018704,131.86814 133.54453,133.092392 C133.281617,131.86814 132.508342,128.939233 131.518551,125.669395 C130.528759,122.399557 129.569899,119.47065 129.059538,118.246397 C129.306985,119.47065 130.08026,122.415054 131.085517,125.669395 Z" id="Path" fill="#5D5D5D"></path>
                            <path d="M126.043766,130.798857 C127.250075,134.053198 128.332659,136.827136 128.966745,138.066885 C128.626504,136.749652 127.683109,133.913726 126.4768,130.659385 C125.270492,127.405044 124.141511,124.631105 123.553822,123.406853 C123.894063,124.708589 124.837458,127.544515 126.043766,130.798857 Z" id="Path" fill="#5D5D5D"></path>
                            <path d="M121.342257,136.176268 C122.749616,139.275641 124.033252,142.034082 124.713734,143.211844 C124.2807,141.925604 123.167185,139.167163 121.759825,135.990306 C120.352465,132.813449 119.053364,130.116995 118.388348,128.939233 C118.805916,130.225473 119.934897,132.999411 121.342257,136.176268 Z" id="Path" fill="#5D5D5D"></path>
                            <path d="M116.980988,141.832623 C118.527537,144.931996 120.074086,147.504475 120.785499,148.651243 C120.275138,147.3805 118.976036,144.699543 117.38309,141.615667 C115.790145,138.531791 114.289992,135.928318 113.578579,134.797047 C114.073475,136.052293 115.372576,138.748747 116.980988,141.832623 Z" id="Path" fill="#5D5D5D"></path>
                            <path d="M112.975425,147.752425 C114.769422,150.712325 116.393299,153.222817 117.197505,154.307598 C116.625281,153.083345 115.15606,150.479872 113.377528,147.504475 C111.598996,144.529077 109.959654,142.034082 109.139983,140.933805 C109.774068,142.173554 111.181428,144.777027 112.975425,147.752425 Z" id="Path" fill="#5D5D5D"></path>
                            <path d="M109.3565,153.904679 C111.336083,156.756102 113.114614,159.158116 113.996148,160.196406 C113.331131,159.003147 111.707255,156.492655 109.743137,153.641233 C107.779019,150.78981 105.985022,148.387796 105.13442,147.365003 C105.768505,148.542765 107.392382,151.053256 109.3565,153.904679 Z" id="Path" fill="#5D5D5D"></path>
                            <path d="M106.139677,160.289387 C108.289381,163.001338 110.207102,165.279377 111.150497,166.271176 C110.408153,165.124408 108.645087,162.722394 106.510849,160.072431 C104.376611,157.422467 102.427959,155.066944 101.484564,154.090642 C102.211442,155.113435 103.989974,157.561939 106.139677,160.289387 Z" id="Path" fill="#5D5D5D"></path>
                            <path d="M103.309492,166.84456 C105.644781,169.432536 107.686226,171.5866 108.691484,172.500915 C107.887278,171.400638 105.969557,169.122599 103.649733,166.534623 C101.329909,163.946646 99.2729984,161.792582 98.2677413,160.878268 C99.071947,161.978545 101.005134,164.256584 103.309492,166.84456 Z" id="Path" fill="#5D5D5D"></path>
                            <path d="M100.912341,173.570198 C103.386819,176.003206 105.551988,178.033295 106.634573,178.885622 C105.768505,177.831836 103.696129,175.677772 101.237116,173.244764 C98.7781026,170.811757 96.5974681,168.797165 95.4994181,167.944837 C96.3809512,169.060611 98.4378618,171.137191 100.912341,173.570198 Z" id="Path" fill="#5D5D5D"></path>
                            <path d="M98.948223,180.435309 C101.577357,182.713348 103.881715,184.588468 104.995231,185.378808 C104.067301,184.387009 101.902132,182.372417 99.2420674,180.094378 C96.5820026,177.816339 94.3085752,175.941218 93.1795942,175.150878 C94.1229893,176.142678 96.3190893,178.172767 98.948223,180.435309 Z" id="Path" fill="#5D5D5D"></path>
                            <path d="M97.4016738,187.424394 C100.169997,189.51647 102.598079,191.252119 103.742526,191.964975 C102.752734,191.035163 100.43291,189.160043 97.6800526,187.052469 C94.9271949,184.944896 92.4991125,183.224744 91.3392006,182.511888 C92.3135266,183.4417 94.6333505,185.31682 97.4016738,187.424394 Z" id="Path" fill="#5D5D5D"></path>
                            <path d="M96.2881583,194.475467 C99.1802054,196.397078 101.701081,197.977758 102.907389,198.628626 C101.855736,197.760801 99.4276533,196.025153 96.5356062,194.103542 C93.643559,192.181931 91.1226837,190.601251 89.9318407,189.965879 C90.9834942,190.756219 93.4115766,192.553855 96.2881583,194.475467 Z" id="Path" fill="#5D5D5D"></path>
                            <path d="M95.6231421,201.604023 C98.6234477,203.339672 101.252581,204.703396 102.489821,205.323271 C101.391771,204.517434 98.8554301,202.952251 95.8551245,201.201105 C92.8548189,199.44996 90.2256851,198.101732 88.9884457,197.481858 C90.1019611,198.287695 92.638302,199.868375 95.6231421,201.604023 Z" id="Path" fill="#5D5D5D"></path>
                            <path d="M95.4220907,208.748077 C98.5151892,210.297764 101.237116,211.537513 102.505286,212.017915 C101.36084,211.289563 98.7317061,209.879348 95.6231421,208.329662 C92.514578,206.779976 89.8081168,205.540227 88.5399464,205.059824 C89.6689273,205.788176 92.3289921,207.198391 95.4220907,208.748077 Z" id="Path" fill="#5D5D5D"></path>
                            <path d="M95.6540731,215.892131 C98.8554301,217.224861 101.639219,218.309642 102.93832,218.71256 C101.747477,218.061692 99.0255505,216.821943 95.839659,215.458219 C92.6537675,214.094495 89.8545133,213.040708 88.5708774,212.63779 C89.7617203,213.288658 92.4681815,214.543904 95.6540731,215.892131 Z" id="Path" fill="#5D5D5D"></path>
                            <path d="M96.3345547,223.005191 C99.6132392,224.136462 102.520752,225.03528 103.773457,225.360714 C102.551683,224.78733 99.7678942,223.718047 96.4892097,222.571279 C93.2105252,221.424511 90.3030125,220.525693 89.0503076,220.215756 C90.2875471,220.78914 93.0713358,221.858423 96.3345547,223.005191 Z" id="Path" fill="#5D5D5D"></path>
                            <path d="M97.4016738,230.056264 C100.74222,230.986076 103.587871,231.714428 104.979765,231.946881 C103.711595,231.450982 100.865944,230.552164 97.5408632,229.606855 C94.2157822,228.661546 91.3546661,227.964187 89.9627717,227.731734 C91.2928041,228.227634 94.1384548,229.126452 97.4016738,230.056264 Z" id="Path" fill="#5D5D5D"></path>
                            <path d="M99.041016,237.029852 C102.427959,237.742708 105.366403,238.285098 106.773762,238.440067 C105.490126,238.021651 102.582614,237.308796 99.1956709,236.580443 C95.808728,235.852091 92.8702844,235.325197 91.4629245,235.170229 C92.7620259,235.588644 95.6540731,236.3015 99.041016,237.029852 Z" id="Path" fill="#5D5D5D"></path>
                            <path d="M101.036065,243.894963 C104.469404,244.390862 107.438779,244.74729 108.768811,244.809277 C107.438779,244.468346 104.500335,243.95695 101.036065,243.430057 C97.5717942,242.903163 94.648816,242.577729 93.3033182,242.515742 C94.679747,242.841176 97.6336561,243.445554 101.036065,243.894963 Z" id="Path" fill="#5D5D5D"></path>
                            <path d="M103.479612,250.605104 C106.928417,250.899545 109.897792,251.07001 111.212359,251.039016 C109.882326,250.791067 106.912952,250.450136 103.479612,250.140198 C100.046273,249.830261 97.0459674,249.706286 95.746866,249.721783 C97.0614329,249.969733 100.030808,250.310664 103.479612,250.605104 Z" id="Path" fill="#5D5D5D"></path>
                            <path d="M106.325263,257.160277 C109.789533,257.237762 112.758908,257.160277 114.05801,257.160277 C112.712512,256.989812 109.727672,256.834843 106.325263,256.741862 C102.922855,256.648881 99.8761526,256.741862 98.5925167,256.741862 C99.8761526,256.927824 102.860993,257.09829 106.325263,257.160277 Z" id="Path" fill="#5D5D5D"></path>
                            <path d="M109.573017,263.591475 C113.021821,263.436507 116.006662,263.219551 117.305763,263.049085 C115.9448,262.956104 112.95996,263.049085 109.573017,263.049085 C106.186074,263.049085 103.123906,263.42101 101.84027,263.591475 C103.123906,263.699953 106.124212,263.66896 109.573017,263.591475 Z" id="Path" fill="#5D5D5D"></path>
                            <path d="M113.207407,269.666246 C116.656212,269.309818 119.610121,268.906899 120.940154,268.627956 C119.57919,268.627956 116.609816,268.860409 113.207407,269.20134 C109.804999,269.542271 106.804693,269.976183 105.474661,270.255126 C106.789228,270.23963 109.774068,270.03817 113.207407,269.666246 Z" id="Path" fill="#5D5D5D"></path>
                            <path d="M117.228436,275.57055 C120.646309,274.997167 123.569288,274.408286 124.961182,274.020864 C123.600219,274.113845 120.646309,274.516764 117.228436,275.090148 C113.810562,275.663532 110.887583,276.267909 109.588482,276.639834 C110.856652,276.546853 113.826027,276.143934 117.228436,275.57055 Z" id="Path" fill="#5D5D5D"></path>
                            <path d="M121.620635,281.211409 C124.992113,280.421069 127.806833,279.661722 129.167796,279.212313 C127.806833,279.382779 124.883854,279.97166 121.512377,280.762 C118.1409,281.55234 115.32618,282.311686 113.965217,282.761095 C115.310714,282.590629 118.249158,282.001749 121.620635,281.211409 Z" id="Path" fill="#5D5D5D"></path>
                            <path d="M126.337611,286.573323 C129.662692,285.566027 132.523808,284.620718 133.745582,284.093825 C132.415549,284.357272 129.523502,285.132115 126.213887,286.123914 C122.904271,287.115713 120.02769,288.076519 118.805916,288.587915 C120.151414,288.386456 123.027995,287.565122 126.337611,286.573323 Z" id="Path" fill="#5D5D5D"></path>
                            <path d="M131.425758,291.609804 C134.673511,290.401048 137.426369,289.269777 138.663609,288.680897 C137.333576,289.021828 134.518857,289.967136 131.271103,291.175892 C128.02335,292.384647 125.255026,293.515918 124.033252,294.104799 C125.316888,293.763868 128.162539,292.818559 131.425758,291.609804 Z" id="Path" fill="#5D5D5D"></path>
                            <path d="M136.761353,296.336347 C139.854452,294.910635 142.607309,293.624396 143.798152,292.942534 C142.499051,293.376446 139.730728,294.49222 136.560302,295.902435 C133.389876,297.312649 130.714345,298.614386 129.538968,299.280751 C130.822604,298.862336 133.606392,297.684574 136.761353,296.336347 Z" id="Path" fill="#5D5D5D"></path>
                            <path d="M142.390792,300.690965 C145.483891,299.141279 148.066628,297.591593 149.211075,296.878737 C147.942904,297.390134 145.251909,298.676373 142.189741,300.288047 C139.127573,301.899721 136.513905,303.38742 135.384924,304.100275 C136.637629,303.604376 139.34409,302.333633 142.390792,300.690965 Z" id="Path" fill="#5D5D5D"></path>
                            <path d="M180.915335,318.775804 C183.188762,316.141338 185.060087,313.832305 185.848827,312.716531 C184.859036,313.646343 182.755729,315.815904 180.575094,318.465867 C178.39446,321.115831 176.430342,323.424863 175.641602,324.525141 C176.646859,323.595329 178.672838,321.394774 180.915335,318.775804 Z" id="Path" fill="#5D5D5D"></path>
                            <path d="M187.905738,320.325491 C189.993579,317.551552 191.725714,315.134042 192.437127,313.95628 C191.509198,314.963576 189.637873,317.272609 187.534566,320.03105 C185.431259,322.789492 183.714589,325.253493 182.987711,326.400261 C183.915641,325.408462 185.817896,323.083932 187.905738,320.325491 Z" id="Path" fill="#5D5D5D"></path>
                            <path d="M194.942537,321.425768 C196.860258,318.527855 198.437738,316.001866 199.071824,314.793111 C198.205756,315.846897 196.489086,318.279905 194.5559,321.162321 C192.622713,324.044738 191.076164,326.60172 190.426613,327.794979 C191.292681,326.756689 193.040281,324.308185 194.942537,321.425768 Z" id="Path" fill="#5D5D5D"></path>
                            <path d="M202.056664,322.092133 C203.788799,319.070245 205.149762,316.451275 205.752916,315.211526 C204.964176,316.311803 203.386696,318.853289 201.639095,321.844183 C199.891495,324.835078 198.545997,327.500538 197.942843,328.724791 C198.731583,327.624513 200.324528,325.083028 202.056664,322.092133 Z" id="Path" fill="#5D5D5D"></path>
                            <path d="M209.186256,322.309089 C210.732805,319.209717 211.970045,316.466772 212.449475,315.196029 C211.722597,316.358294 210.315237,318.977264 208.768688,322.092133 C207.222138,325.207003 205.984899,327.918954 205.490003,329.189696 C206.216881,328.027432 207.639707,325.392965 209.186256,322.309089 Z" id="Path" fill="#5D5D5D"></path>
                            <path d="M216.315848,322.061139 C217.64588,318.853289 218.728465,316.07935 219.115102,314.762117 C218.481017,315.970872 217.243778,318.682823 215.882814,321.875177 C214.521851,325.067531 213.485663,327.872463 213.068095,329.1742 C213.717645,327.965444 214.939419,325.253493 216.315848,322.061139 Z" id="Path" fill="#5D5D5D"></path>
                            <path d="M223.414509,321.379277 C224.54349,318.093943 225.440489,315.180532 225.765264,313.925286 C225.193041,315.165035 224.125922,317.938974 222.96601,321.208812 C221.806098,324.47865 220.955496,327.407557 220.615255,328.6783 C221.125616,327.438551 222.270063,324.633619 223.414509,321.379277 Z" id="Path" fill="#5D5D5D"></path>
                            <path d="M230.404912,320.248006 C231.332842,316.900684 232.05972,314.049261 232.291702,312.654544 C231.796806,313.925286 230.899808,316.776709 229.956413,320.108535 C229.013018,323.44036 228.409863,326.30728 228.085088,327.701998 C228.610915,326.431255 229.523379,323.579832 230.404912,320.248006 Z" id="Path" fill="#5D5D5D"></path>
                            <path d="M281.518366,296.134888 C280.71416,292.741075 279.971816,289.936142 279.507852,288.572419 C279.693438,289.920646 280.281126,292.849553 281.054401,296.227869 C281.827676,299.606185 282.60095,302.426614 283.04945,303.790338 C282.863864,302.333633 282.29164,299.420223 281.518366,296.134888 Z" id="Path" fill="#5D5D5D"></path>
                            <path d="M286.853961,291.315363 C285.848704,287.983538 284.905309,285.116618 284.379482,283.892366 C284.642395,285.240593 285.41567,288.12301 286.405461,291.439338 C287.395253,294.755667 288.369579,297.638083 288.864475,298.862336 C288.601561,297.514108 287.843752,294.585201 286.853961,291.315363 Z" id="Path" fill="#5D5D5D"></path>
                            <path d="M291.880246,286.247889 C290.673937,282.993548 289.560422,280.235106 288.957268,278.995357 C289.297509,280.328087 290.256369,283.148516 291.447212,286.402858 C292.638055,289.657199 293.797967,292.431137 294.37019,293.65539 C294.029949,292.338156 293.086554,289.486733 291.880246,286.247889 Z" id="Path" fill="#5D5D5D"></path>
                            <path d="M296.597221,280.885974 C295.174396,277.786602 293.89076,275.012663 293.210278,273.834902 C293.643312,275.121141 294.756828,277.879583 296.164187,281.071937 C297.571547,284.264291 298.886114,286.914254 299.535665,288.107513 C299.102631,286.83677 297.989116,284.031838 296.597221,280.885974 Z" id="Path" fill="#5D5D5D"></path>
                            <path d="M300.95849,275.214123 C299.411941,272.11475 297.865392,269.542271 297.138513,268.395503 C297.648875,269.666246 298.947976,272.347203 300.540922,275.431079 C302.133868,278.514954 303.63402,281.102931 304.345433,282.249698 C303.835072,280.994453 302.551436,278.282502 300.95849,275.214123 Z" id="Path" fill="#5D5D5D"></path>
                            <path d="M304.948587,269.294321 C303.15459,266.33442 301.546179,263.823928 300.711042,262.723651 C301.298731,263.9634 302.767953,266.566873 304.546485,269.542271 C306.325016,272.517668 307.979824,275.012663 308.768564,276.112941 C308.196341,274.873192 306.727119,272.254222 304.948587,269.294321 Z" id="Path" fill="#5D5D5D"></path>
                            <path d="M308.567513,263.142066 C306.58793,260.290644 304.824863,257.88863 303.927865,256.85034 C304.592881,258.043598 306.216758,260.55409 308.180875,263.405513 C310.144993,266.256936 311.954456,268.643453 312.820523,269.697239 C312.155507,268.503981 310.53163,265.977992 308.567513,263.142066 Z" id="Path" fill="#5D5D5D"></path>
                            <path d="M311.799801,256.772856 C309.634632,254.045408 307.732376,251.767369 306.773515,250.791067 C307.515859,251.937834 309.278925,254.324351 311.413163,256.989812 C313.547401,259.655272 315.511519,261.979802 316.423983,262.987098 C315.71257,261.88682 313.918573,259.46931 311.799801,256.772856 Z" id="Path" fill="#5D5D5D"></path>
                            <path d="M314.61452,250.202186 C312.294696,247.629707 310.237786,245.460146 309.217063,244.545831 C310.036734,245.646108 311.954456,247.924147 314.258814,250.512123 C316.563172,253.100099 318.666479,255.161182 319.640806,256.168478 C318.852065,255.068201 316.918879,252.743671 314.61452,250.202186 Z" id="Path" fill="#5D5D5D"></path>
                            <path d="M317.011672,243.445554 C314.521727,241.012546 312.372024,238.982457 311.258508,238.13013 C312.140041,239.183916 314.212418,241.33798 316.671431,243.770988 C319.130444,246.203995 321.311079,248.218587 322.409129,249.086412 C321.543061,248.094612 319.470685,245.894058 317.011672,243.445554 Z" id="Path" fill="#5D5D5D"></path>
                            <path d="M319.00672,236.611437 C316.377587,234.333398 314.057763,232.458278 312.944247,231.667938 C313.887642,232.659737 316.037346,234.674329 318.681945,236.952368 C321.326544,239.230407 323.646368,241.09003 324.728953,241.895867 C323.801023,240.904068 321.65132,238.796495 319.00672,236.611437 Z" id="Path" fill="#5D5D5D"></path>
                            <path d="M320.537804,229.622352 C317.784946,227.530275 315.356864,225.794627 314.181487,225.081771 C315.186744,226.011583 317.506567,227.886703 320.24396,229.994276 C322.981352,232.10185 325.455831,233.822002 326.600277,234.550354 C325.610486,233.620542 323.275196,231.714428 320.537804,229.622352 Z" id="Path" fill="#5D5D5D"></path>
                            <path d="M321.65132,222.555782 C318.759272,220.649668 316.222932,219.068988 315.016623,218.433617 C316.068277,219.301441 318.496359,221.021593 321.372941,222.958701 C324.249522,224.895809 326.816794,226.429998 327.992172,227.096363 C326.940518,226.228539 324.512436,224.477393 321.65132,222.555782 Z" id="Path" fill="#5D5D5D"></path>
                            <path d="M322.30087,215.442722 C319.300565,213.707073 316.671431,212.34335 315.418726,211.738972 C316.532241,212.529312 319.068582,214.094495 322.053422,215.861137 C325.038262,217.62778 327.698327,218.96051 328.920101,219.564888 C327.837517,218.774548 325.270245,217.178371 322.30087,215.442722 Z" id="Path" fill="#5D5D5D"></path>
                            <path d="M322.501922,208.298668 C319.408823,206.748982 316.702362,205.509233 315.418726,205.02883 C316.578638,205.757183 319.207772,207.167397 322.285405,208.717084 C325.363038,210.26677 328.115896,211.491022 329.384066,212.002419 C328.224154,211.274066 325.59502,209.848355 322.501922,208.298668 Z" id="Path" fill="#5D5D5D"></path>
                            <path d="M322.269939,201.154614 C319.068582,199.806387 316.300259,198.737104 314.985692,198.349682 C316.192001,198.985054 318.898462,200.224803 322.084353,201.588527 C325.270245,202.952251 328.069499,203.99054 329.3686,204.408956 C328.162292,203.758087 325.440365,202.502842 322.269939,201.154614 Z" id="Path" fill="#5D5D5D"></path>
                            <path d="M321.65132,194.041554 C318.372635,192.894786 315.465122,192.011465 314.196952,191.701528 C315.449657,192.259415 318.21798,193.251214 321.481199,194.490963 C324.744418,195.730712 327.667396,196.505556 328.920101,196.846487 C327.636465,196.273103 324.837211,195.188322 321.65132,194.041554 Z" id="Path" fill="#5D5D5D"></path>
                            <path d="M320.460477,186.974985 C317.11993,186.06067 314.274279,185.332317 312.882385,185.115361 C314.150556,185.595764 316.996206,186.494582 320.321287,187.439891 C323.646368,188.385199 326.507484,188.989577 327.899379,189.330508 C326.631208,188.834608 323.770092,187.920293 320.460477,186.974985 Z" id="Path" fill="#5D5D5D"></path>
                            <path d="M318.882996,180.001396 C315.496053,179.288541 312.573075,178.761647 311.15025,178.622176 C312.464817,179.025094 315.356864,179.73795 318.728341,180.481799 C322.099819,181.225649 325.069193,181.706051 326.461088,181.876517 C325.161986,181.458102 322.254474,180.745246 318.882996,180.001396 Z" id="Path" fill="#5D5D5D"></path>
                            <path d="M316.887948,173.151783 C313.454608,172.655883 310.500699,172.299456 309.155201,172.237468 C310.485234,172.578399 313.408212,173.089796 316.887948,173.616689 C320.367684,174.143582 323.275196,174.45352 324.620694,174.546501 C323.197869,174.20557 320.290356,173.70967 316.887948,173.151783 Z" id="Path" fill="#5D5D5D"></path>
                            <path d="M314.459865,166.426145 C310.995595,166.147201 308.02622,165.976735 306.727119,166.007729 C308.072617,166.255679 311.041991,166.59661 314.459865,166.906547 C317.877739,167.216485 320.89351,167.324963 322.192612,167.340459 C320.862579,167.077013 317.893205,166.736082 314.459865,166.426145 Z" id="Path" fill="#5D5D5D"></path>
                            <path d="M311.614215,159.870971 C308.149944,159.870971 305.165104,159.870971 303.881468,159.948456 C305.242432,160.103424 308.211806,160.258393 311.614215,160.351374 C315.016623,160.444355 318.063325,160.351374 319.346961,160.351374 C318.04786,160.118921 315.047554,159.963953 311.614215,159.870971 Z" id="Path" fill="#5D5D5D"></path>
                            <path d="M308.350996,153.563748 C304.902191,153.718717 301.932816,153.935673 300.618249,154.137132 C301.979213,154.214616 304.964053,154.137132 308.350996,154.137132 C311.737939,154.137132 314.800106,153.734214 316.083742,153.579245 C314.800106,153.362289 311.799801,153.377786 308.350996,153.563748 Z" id="Path" fill="#5D5D5D"></path>
                            <path d="M304.716605,147.365003 C301.2678,147.736928 298.313891,148.139846 296.983859,148.41879 C298.344822,148.41879 301.314197,148.186337 304.716605,147.845406 C308.119013,147.504475 311.119319,147.055066 312.449351,146.807116 C311.134784,146.807116 308.149944,147.024072 304.716605,147.365003 Z" id="Path" fill="#5D5D5D"></path>
                            <path d="M300.695577,141.460698 C297.277703,142.049579 294.354725,142.63846 293.040158,143.010385 C294.401121,142.901906 297.35503,142.498988 300.772904,141.941101 C304.190778,141.383214 307.113756,140.747843 308.428323,140.391415 C307.06736,140.499893 304.097985,140.902811 300.695577,141.460698 Z" id="Path" fill="#5D5D5D"></path>
                            <path d="M296.303377,135.81984 C292.947365,136.625677 290.11718,137.369526 288.771682,137.849929 C290.11718,137.64847 293.040158,137.059589 296.411635,136.300243 C299.783113,135.540897 302.597832,134.750557 303.958796,134.285651 C302.613298,134.456116 299.674854,135.044997 296.303377,135.81984 Z" id="Path" fill="#5D5D5D"></path>
                            <path d="M291.586402,130.473422 C288.276786,131.480718 285.400204,132.426027 284.17843,132.968417 C285.523928,132.689474 288.385045,131.914631 291.710125,130.938328 C295.035206,129.962026 297.896323,128.95473 299.118097,128.45883 C297.788064,128.768767 294.880552,129.481623 291.586402,130.473422 Z" id="Path" fill="#5D5D5D"></path>
                            <path d="M286.529185,125.421445 C283.281432,126.645697 280.528574,127.761471 279.291335,128.381346 C280.621367,128.024918 283.436087,127.064113 286.68384,125.886351 C289.931594,124.708589 292.699917,123.515331 293.921691,122.941947 C292.607124,123.282878 289.761473,124.228187 286.529185,125.421445 Z" id="Path" fill="#5D5D5D"></path>
                            <path d="M281.162659,120.710399 C278.069561,122.120613 275.316703,123.42235 274.141326,124.119709 C275.424962,123.6703 278.193285,122.570022 281.363711,121.159808 C284.534137,119.749593 287.194202,118.416863 288.40051,117.765995 C287.101409,118.18441 284.31762,119.315681 281.162659,120.710399 Z" id="Path" fill="#5D5D5D"></path>
                            <path d="M275.517755,116.371277 C272.424656,117.920963 269.857384,119.47065 268.712938,120.214499 C269.981108,119.687606 272.656638,118.385869 275.734271,116.805189 C278.811904,115.224509 281.394642,113.705817 282.554554,112.977464 C281.286383,113.44237 278.579922,114.821591 275.517755,116.371277 Z" id="Path" fill="#5D5D5D"></path>
                            <path d="M269.609936,112.326596 C266.656027,114.139729 264.150617,115.751403 263.052567,116.588233 C264.289807,115.999352 266.88801,114.52715 269.857384,112.760508 C272.826759,110.993866 275.316703,109.304708 276.414753,108.514368 C275.254841,109.087751 272.563845,110.559953 269.609936,112.326596 Z" id="Path" fill="#5D5D5D"></path>
                            <path d="M263.45467,108.70033 C260.624485,110.699425 258.227334,112.466068 257.191146,113.349389 C258.381988,112.683024 260.871933,111.055853 263.733049,109.087751 C266.594165,107.11965 268.960386,105.306517 270.012039,104.438693 C268.821196,105.120555 266.300321,106.747725 263.45467,108.70033 Z" id="Path" fill="#5D5D5D"></path>
                            <path d="M257.098353,105.523473 C254.391891,107.677537 252.118464,109.599148 251.144138,110.57545 C252.288584,109.816104 254.67027,108.033965 257.330335,105.926391 C259.9904,103.818818 262.310224,101.804226 263.315481,100.889911 C262.217431,101.556276 259.789348,103.338415 257.098353,105.523473 Z" id="Path" fill="#5D5D5D"></path>
                            <path d="M250.510053,102.656553 C247.958246,104.981083 245.870405,107.042166 244.880613,108.064959 C245.978663,107.243625 248.252091,105.322014 250.834828,103.012981 C253.417565,100.703949 255.474476,98.5963752 256.479733,97.6200729 C255.412614,98.4104129 253.123721,100.347521 250.510053,102.656553 Z" id="Path" fill="#5D5D5D"></path>
                            <path d="M243.82896,100.239043 C241.416343,102.734038 239.390363,104.888102 238.555227,106.003876 C239.591415,105.105058 241.741118,103.043975 244.169201,100.579974 C246.597283,98.1159725 248.592332,95.9309148 249.473865,94.8461344 C248.422211,95.6984618 246.257042,97.7750415 243.82896,100.239043 Z" id="Path" fill="#5D5D5D"></path>
                            <path d="M236.977746,98.2554442 C234.719784,100.889911 232.84846,103.21444 232.05972,104.345711 C233.049511,103.384906 235.060025,101.246339 237.348918,98.5808784 C239.637811,95.9154179 241.462739,93.6063853 242.266945,92.5216049 C241.230757,93.4514167 239.235708,95.6519713 236.977746,98.2554442 Z" id="Path" fill="#5D5D5D"></path>
                            <path d="M230.018275,96.7212548 C227.930433,99.4796964 226.198298,101.912704 225.486885,103.090465 C226.414815,102.083169 228.286139,99.75864 230.404912,97.0156952 C232.523684,94.2727505 234.193958,91.7932524 234.936301,90.6464845 C233.992906,91.5762963 232.106116,93.9783101 230.018275,96.7212548 Z" id="Path" fill="#5D5D5D"></path>
                            <path d="M222.96601,95.6054807 C221.048289,98.503394 219.486274,101.04488 218.852189,102.253635 C219.718256,101.184351 221.434926,98.7513439 223.368113,95.8844242 C225.301299,93.0175046 226.832383,90.4295284 227.497399,89.2517668 C226.615866,90.2900567 224.883731,92.738561 222.96601,95.6054807 Z" id="Path" fill="#5D5D5D"></path>
                            <path d="M215.867349,94.9546124 C214.135214,97.9610038 212.77425,100.595471 212.171096,101.850716 C212.959836,100.719445 214.521851,98.1934568 216.284917,95.2025622 C218.047983,92.2116677 219.378016,89.5462072 219.996635,88.3219551 C219.176964,89.4222323 217.599484,91.9637179 215.867349,94.9546124 Z" id="Path" fill="#5D5D5D"></path>
                            <path d="M208.954273,309.245234 C264.473086,309.245234 309.479977,264.147051 309.479977,208.515624 C309.479977,152.884197 264.473086,107.786015 208.954273,107.786015 C153.435461,107.786015 108.42857,152.884197 108.42857,208.515624 C108.42857,264.147051 153.435461,309.245234 208.954273,309.245234 Z M304.159847,204.858365 C304.159847,204.858365 304.747536,222.307832 299.643923,238.052645 C294.540311,253.797458 283.822724,267.589666 283.822724,267.589666 C278.65725,273.664436 270.986365,273.431983 266.810682,267.047276 L250.448191,242.252295 L242.205083,229.746327 C237.41078,222.478298 240.163638,214.032508 248.298487,210.979626 L262.217431,205.710692 L290.055318,195.265807 C297.215841,192.553855 303.556693,196.954965 304.159847,204.858365 Z M234.889905,116.665717 C234.889905,116.665717 251.623568,121.485242 265.001219,131.232769 C278.378871,140.980295 288.199459,155.423372 288.199459,155.423372 C292.375142,162.226495 289.746008,169.46353 282.43083,171.509116 L253.819668,179.428013 L239.390363,183.426203 C231.023532,185.735236 223.92487,180.512793 223.460906,171.819053 L222.672166,156.833586 C222.285528,148.139846 221.682374,134.766053 221.342133,127.1261 C221.001892,119.486147 227.126227,114.821591 234.889905,116.665717 Z M218.805792,246.746385 L228.085088,258.462014 L246.643679,281.707308 C251.391586,287.689097 249.257348,295.081101 241.880308,298.118486 C241.880308,298.118486 225.502351,304.069282 208.969739,304.069282 C192.437127,304.069282 176.05917,298.118486 176.05917,298.118486 C168.68213,295.019114 166.532427,287.689097 171.295798,281.707308 L189.85439,258.462014 L199.133685,246.746385 C204.515677,239.943262 213.39287,239.943262 218.805792,246.746385 Z M129.77095,155.423372 C129.77095,155.423372 139.529676,140.964799 152.969189,131.232769 C166.408703,121.500739 183.080504,116.650221 183.080504,116.650221 C190.81325,114.7751 196.891189,119.486147 196.550948,127.1261 C196.210707,134.766053 195.623019,148.139846 195.236381,156.833586 L194.571365,171.819053 C194.184728,180.512793 187.008739,185.76623 178.626442,183.410706 L164.212603,179.428013 L135.601441,171.509116 C128.178004,169.46353 125.579802,162.226495 129.77095,155.423372 Z M127.837764,195.234813 L155.675651,205.679698 L169.640991,210.902141 C177.77584,214.001514 180.466836,222.41631 175.718929,229.668842 L167.475822,242.190308 L151.11333,266.985288 C146.906716,273.369996 139.235832,273.602449 134.101288,267.512182 C134.101288,267.512182 123.399167,253.750967 118.295555,238.068142 C113.191942,222.385317 113.733234,204.858365 113.733234,204.858365 C114.413716,196.954965 120.692706,192.553855 127.837764,195.234813 Z" id="Shape" fill="#E0E0E0"></path>
                            <path d="M203.247507,184.882908 C203.247507,181.724755 205.802513,179.164566 208.954273,179.164566 C212.106034,179.164566 214.66104,181.724755 214.66104,184.882908 C214.66104,188.041062 212.106034,190.601251 208.954273,190.601251 C207.440745,190.601251 205.989206,189.998784 204.91898,188.926387 C203.848754,187.85399 203.247507,186.399507 203.247507,184.882908 L203.247507,184.882908 Z" id="Path" fill="#4A4A4A"></path>
                            <path d="M205.660123,184.882908 C205.660123,183.094144 207.107268,181.644064 208.892411,181.644064 C210.677555,181.644064 212.124699,183.094144 212.124699,184.882908 C212.124699,186.671673 210.677555,188.121753 208.892411,188.121753 C207.107268,188.121753 205.660123,186.671673 205.660123,184.882908 Z" id="Path" fill="#BABABA"></path>
                            <path d="M207.206673,184.882908 C207.206673,183.890101 208.009873,183.085272 209.00067,183.085272 C209.991467,183.085272 210.794667,183.890101 210.794667,184.882908 C210.794667,185.875715 209.991467,186.680544 209.00067,186.680544 C208.009873,186.680544 207.206673,185.875715 207.206673,184.882908 Z" id="Path" fill="#E0E0E0"></path>
                            <path d="M184.750777,206.656001 C182.551936,205.9443 180.998413,203.974183 180.81596,201.666017 C180.633506,199.357851 181.858136,197.167237 183.917745,196.117552 C185.977354,195.067867 188.465404,195.366305 190.219567,196.873446 C191.973729,198.380587 192.647756,200.798942 191.926766,202.998741 C191.459515,204.437491 190.440834,205.631216 189.094966,206.317141 C187.749097,207.003067 186.186366,207.124964 184.750777,206.656001 Z" id="Path" fill="#4A4A4A"></path>
                            <path d="M185.554983,204.300478 C184.299906,203.912577 183.403869,202.802238 183.287981,201.491285 C183.172092,200.180332 183.859397,198.929458 185.026885,198.326532 C186.194373,197.723606 187.609879,197.888526 188.608163,198.743784 C189.606446,199.599042 189.98899,200.974563 189.576011,202.223898 C189.016192,203.89141 187.235153,204.811192 185.554983,204.300478 Z" id="Path" fill="#BABABA"></path>
                            <path d="M185.957086,202.936754 C185.014177,202.632652 184.49567,201.620349 184.798817,200.675419 C185.101964,199.730488 186.112031,199.210566 187.055158,199.513989 C187.998284,199.817411 188.517517,200.82934 188.215048,201.774489 C188.069657,202.2288 187.749995,202.606563 187.326475,202.824566 C186.902955,203.042569 186.41032,203.082928 185.957086,202.936754 Z" id="Path" fill="#E0E0E0"></path>
                            <path d="M199.690443,231.048063 C198.332961,232.919905 195.983497,233.787522 193.738422,233.246044 C191.493346,232.704566 189.795199,230.860727 189.436416,228.574948 C189.077633,226.28917 190.128936,224.012015 192.099737,222.806113 C194.070538,221.60021 196.572361,221.703262 198.437738,223.067179 C200.980201,224.926164 201.540658,228.496789 199.690443,231.048063 L199.690443,231.048063 Z" id="Path" fill="#4A4A4A"></path>
                            <path d="M197.679929,229.498377 C197.003081,230.431276 195.88096,230.931485 194.736256,230.810578 C193.591553,230.689671 192.598176,229.966019 192.130321,228.912212 C191.662466,227.858406 191.79121,226.634545 192.468058,225.701645 C193.144906,224.768746 194.267028,224.268538 195.411731,224.389444 C196.556434,224.510351 197.549811,225.234004 198.017666,226.28781 C198.485522,227.341616 198.356777,228.565477 197.679929,229.498377 Z" id="Path" fill="#BABABA"></path>
                            <path d="M196.520017,228.723534 C195.92036,229.478445 194.832891,229.624367 194.05614,229.054149 C193.279389,228.483932 193.09041,227.400961 193.62797,226.600463 C193.99534,226.053401 194.632129,225.751782 195.287188,225.814565 C195.942247,225.877347 196.510429,226.294454 196.767645,226.901378 C197.024862,227.508303 196.929825,228.207625 196.520017,228.723534 Z" id="Path" fill="#E0E0E0"></path>
                            <path d="M227.435537,224.306928 C229.282641,226.86367 228.713068,230.436516 226.16299,232.289424 C223.612912,234.142333 220.046841,233.574483 218.19563,231.020725 C216.344418,228.466968 216.908247,224.893208 219.455343,223.036185 C220.67972,222.138395 222.211162,221.767627 223.70955,222.006226 C225.207938,222.244825 226.54923,223.073038 227.435537,224.306928 Z" id="Path" fill="#4A4A4A"></path>
                            <path d="M225.425023,225.763633 C226.460858,227.207785 226.133692,229.219711 224.693909,230.25966 C223.254126,231.299609 221.245818,230.974585 220.205968,229.533333 C219.166117,228.092082 219.487682,226.079249 220.924565,225.03528 C221.617149,224.532083 222.481239,224.326046 223.325781,224.462726 C224.170323,224.599407 224.925746,225.067545 225.425023,225.763633 L225.425023,225.763633 Z" id="Path" fill="#BABABA"></path>
                            <path d="M224.218715,226.600463 C224.799281,227.40489 224.619184,228.528595 223.816443,229.110418 C223.013703,229.692241 221.892255,229.511891 221.31153,228.707579 C220.730805,227.903268 220.910679,226.779528 221.713305,226.197545 C222.097423,225.913865 222.579192,225.79675 223.050337,225.872519 C223.521481,225.948288 223.94248,226.210586 224.218715,226.600463 Z" id="Path" fill="#E0E0E0"></path>
                            <path d="M229.631637,195.7927 C232.619867,194.829633 235.822068,196.472732 236.788869,199.465185 C237.75567,202.457639 236.121993,205.669455 233.137442,206.643909 C230.152891,207.618363 226.944474,205.987486 225.966316,202.998741 C225.001327,199.995339 226.63931,196.775056 229.631637,195.7927 L229.631637,195.7927 Z" id="Path" fill="#4A4A4A"></path>
                            <path d="M230.404912,198.148223 C231.648468,197.741457 233.014098,198.12586 233.864355,199.122001 C234.714611,200.118143 234.881837,201.529599 234.287974,202.69753 C233.69411,203.865462 232.456259,204.559571 231.152224,204.455862 C229.848188,204.352153 228.735104,203.471075 228.332536,202.223898 C227.784227,200.525206 228.711153,198.702251 230.404912,198.148223 L230.404912,198.148223 Z" id="Path" fill="#BABABA"></path>
                            <path d="M230.837946,199.527444 C231.753013,199.293841 232.692147,199.811023 232.98586,200.7103 C233.279573,201.609578 232.827302,202.583052 231.951461,202.936754 C231.003597,203.242035 229.987678,202.722657 229.678034,201.774489 C229.528189,201.322478 229.566838,200.828988 229.785217,200.405933 C230.003596,199.982877 230.3832,199.666102 230.837946,199.527444 L230.837946,199.527444 Z" id="Path" fill="#E0E0E0"></path>
                            <path d="M222.811355,208.515624 C222.811355,216.218437 216.579632,222.462801 208.892411,222.462801 C201.205191,222.462801 194.973468,216.218437 194.973468,208.515624 C194.973468,200.812811 201.205191,194.568448 208.892411,194.568448 C216.579632,194.568448 222.811355,200.812811 222.811355,208.515624 L222.811355,208.515624 Z" id="Path" fill="#5D5D5D"></path>
                            <path d="M246.628214,281.722805 L228.069623,258.477511 L218.790327,246.761882 C213.361939,239.958759 204.500211,239.958759 199.087289,246.761882 L189.807993,258.477511 L171.249402,281.722805 C166.48603,287.704594 168.635734,295.096598 176.012774,298.133983 C176.012774,298.133983 192.375265,304.084778 208.923342,304.084778 C225.47142,304.084778 241.833911,298.133983 241.833911,298.133983 C249.241882,295.096598 251.37612,287.704594 246.628214,281.722805 Z M233.822786,293.128496 C225.80791,295.878538 217.422937,297.393821 208.954273,297.622587 C200.48561,297.393821 192.100637,295.878538 184.085761,293.128496 C178.502718,290.834961 176.878841,285.25609 180.482301,280.731006 L194.401245,263.157563 L201.499906,254.293358 C203.210499,251.872818 205.986567,250.43411 208.946541,250.43411 C211.906514,250.43411 214.682582,251.872818 216.393175,254.293358 L223.44544,263.157563 L237.364384,280.731006 C241.01424,285.287084 239.390363,290.834961 233.822786,293.128496 Z" id="Shape" fill="#C2C2C2"></path>
                            <path d="M290.070783,195.25031 L262.232896,205.679698 L248.313953,210.948632 C240.163638,214.048004 237.488108,222.462801 242.220548,229.715333 L250.463656,242.236798 L266.826148,267.031779 C271.032762,273.416487 278.703646,273.648939 283.83819,267.558672 C283.83819,267.558672 294.540311,253.797458 299.659389,238.114633 C304.778467,222.431807 304.175313,204.920352 304.175313,204.920352 C303.556693,196.954965 297.215841,192.553855 290.070783,195.25031 Z M296.906531,210.979626 C297.042336,219.462889 295.88987,227.917517 293.488657,236.05355 C290.661467,244.055786 286.635608,251.580393 281.549297,258.369033 C277.636527,263.018091 271.836967,262.801135 268.666541,257.981611 L256.294147,239.21491 L250.10795,229.761824 C248.345945,227.37904 247.846731,224.287936 248.768802,221.469913 C249.690874,218.651889 251.919683,216.457033 254.747598,215.582194 L265.325995,211.5995 L286.343599,203.711597 C291.679194,201.681508 296.473497,204.951346 296.906531,210.979626 Z" id="Shape" fill="#C2C2C2"></path>
                            <path d="M221.403995,127.1261 C221.744236,134.766053 222.331925,148.139846 222.734028,156.833586 L223.399044,171.819053 C223.785681,180.512793 230.96167,185.76623 239.328501,183.410706 L253.757806,179.428013 L282.368968,171.509116 C289.715077,169.46353 292.31328,162.210998 288.137597,155.423372 C288.137597,155.423372 278.378871,140.964799 264.939357,131.232769 C251.499844,121.500739 234.812577,116.650221 234.812577,116.650221 C227.126227,114.821591 221.125616,119.47065 221.403995,127.1261 Z M238.416037,125.436942 C246.530783,127.952543 254.217149,131.688567 261.212174,136.517199 C267.928189,141.684505 273.820894,147.845206 278.688181,154.788 C281.858607,159.948456 279.894489,165.403352 274.342377,166.953038 L252.690687,172.934827 L241.787515,176.0342 C238.983995,176.984397 235.894694,176.513105 233.500401,174.769949 C231.106107,173.026792 229.704252,170.228315 229.739896,167.262975 L229.229535,155.950265 C228.93569,149.379595 228.487191,139.275641 228.239743,133.479814 C227.992295,127.683987 232.585546,124.011231 238.446968,125.436942 L238.416037,125.436942 Z" id="Shape" fill="#C2C2C2"></path>
                            <path d="M135.539579,171.509116 L164.135275,179.428013 L178.56458,183.410706 C186.946877,185.735236 194.030073,180.512793 194.494038,171.819053 L195.174519,156.833586 C195.561157,148.139846 196.148845,134.766053 196.489086,127.1261 C196.829327,119.486147 190.766854,114.72861 183.003176,116.665717 C183.003176,116.665717 166.284979,121.485242 152.907327,131.232769 C139.529676,140.980295 129.709088,155.423372 129.709088,155.423372 C125.579802,162.226495 128.178004,169.46353 135.539579,171.509116 Z M139.158504,154.74151 C144.048182,147.815631 149.955897,141.671267 156.680908,136.517199 C163.670223,131.713114 171.345777,127.998176 179.446113,125.498929 C185.307535,124.073218 189.885321,127.637496 189.637873,133.417826 C189.390425,139.198156 188.92646,149.240123 188.648081,155.810793 L188.13772,167.123503 C188.173364,170.088843 186.771509,172.887321 184.377215,174.630477 C181.982922,176.373634 178.893621,176.844926 176.090101,175.894728 L165.264256,172.795355 L143.612566,166.813566 C137.998592,165.341364 136.065406,159.886468 139.158504,154.74151 Z" id="Shape" fill="#C2C2C2"></path>
                            <path d="M151.11333,267.047276 C155.319944,260.678065 162.696984,249.504827 167.475822,242.252295 L175.718929,229.746327 C180.513232,222.462801 177.822236,214.001514 169.640991,210.902141 L155.629254,205.617711 L127.791367,195.188322 C120.692706,192.553855 114.413716,196.954965 113.733234,204.858365 C113.733234,204.858365 113.161011,222.307832 118.264624,238.052645 C123.368236,253.797458 134.070357,267.589666 134.070357,267.589666 C139.235832,273.679933 146.891251,273.431983 151.11333,267.047276 Z M136.343785,258.369033 C131.257245,251.58368 127.226521,244.064952 124.388959,236.069047 C121.986191,227.928044 120.833708,219.468072 120.971085,210.979626 C121.43505,204.951346 126.229352,201.681508 131.626809,203.711597 L152.628949,211.5995 L163.207346,215.5512 C166.039937,216.420027 168.273999,218.614779 169.196914,221.43538 C170.119829,224.25598 169.616319,227.350117 167.846994,229.73083 L161.660796,239.199413 C158.041871,244.685303 152.474294,253.14659 149.288402,257.950617 C146.102511,262.754645 140.241089,262.987098 136.343785,258.369033 L136.343785,258.369033 Z" id="Shape" fill="#C2C2C2"></path>
                            <path d="M219.084183,208.515624 C219.090426,212.630178 216.620883,216.342782 212.82842,217.92025 C209.035956,219.497718 204.668507,218.628948 201.764965,215.719516 C198.861422,212.810084 197.994411,208.433776 199.568686,204.63362 C201.142961,200.833464 204.848049,198.358912 208.954273,198.365167 C214.548861,198.365167 219.084183,202.909688 219.084183,208.515624 Z" id="Path" fill="#2A2A2A"></path>
                            <path d="M208.660429,319.380182 L81.843388,319.070245 C82.1526978,315.103048 84.039488,313.46038 86.3283809,311.445788 C88.6172738,309.431196 93.8600759,306.626264 93.8600759,300.597984 C93.8600759,300.597984 173.708415,313.723827 208.675895,314.049261" id="Path" fill="#5D5D5D"></path>
                            <path d="M208.660429,313.940783 C190.426613,313.212431 160.856591,309.291724 135.771561,306.765736 L135.771561,306.765736 C140.598614,309.999718 145.922414,312.418348 151.530899,313.925286 C159.804937,316.187828 193.00935,316.57525 208.629498,316.761212" id="Path" fill="#4A4A4A"></path>
                            <path d="M128.131608,311.848707 L128.255332,311.848707 C127.514,311.477687 126.809704,311.036609 126.152025,310.531473 C126.649204,311.176917 127.34504,311.639933 128.131608,311.848707 L128.131608,311.848707 Z" id="Path" fill="#5D5D5D"></path>
                            <path d="M165.743687,319.116735 L163.207346,319.116735 C157.090996,319.233242 151.005182,318.224761 145.251909,316.141338 C142.904875,315.2474 140.459338,314.638678 137.967661,314.328205 C134.638124,314.080966 131.377364,313.252322 128.332659,311.8797 L128.208935,311.8797 C127.426567,311.679155 126.731271,311.227385 126.229352,310.593461 C125.40546,310.013791 124.727682,309.249744 124.249769,308.361913 C123.464863,306.897936 122.346955,305.63973 120.98655,304.689156 L118.496606,304.317231 C118.960571,304.782137 120.043155,305.866918 121.976342,307.494088 C122.831507,308.239927 123.503608,309.173233 123.940459,310.221536 C124.546211,311.889297 125.92586,313.156058 127.636712,313.615349 C129.885473,314.231353 132.174934,314.687067 134.487926,314.979073 C137.294271,315.275008 140.059007,315.883133 142.731033,316.792206 C145.168597,317.864315 147.714528,318.669651 150.32459,319.19422 L165.790083,319.19422 L165.743687,319.116735 Z" id="Path" fill="#767676"></path>
                            <path d="M123.105323,306.068377 C124.140386,306.981589 124.959293,308.114501 125.502474,309.384706 C125.683708,309.795817 125.901082,310.189958 126.152025,310.562467 C126.809704,311.067603 127.514,311.508681 128.255332,311.8797 C130.369147,312.443147 132.518612,312.862522 134.688977,313.134946 C137.66702,313.454908 140.598752,314.115236 143.42698,315.103048 C147.587198,317.024659 155.613789,318.961767 165.728221,318.527855 L165.728221,319.116735 L167.831528,319.023754 L167.831528,318.109439 C155.907633,318.775804 150.417383,316.931678 145.561218,315.320004 C143.15364,314.405629 140.64609,313.781371 138.091385,313.46038 C130.451432,312.701034 126.028301,310.144052 125.038509,307.958994 C124.394805,306.771 123.528362,305.718637 122.486703,304.859622 L121.636101,304.735647 C122.022738,305.138565 122.517634,305.572477 123.105323,306.068377 Z" id="Path" fill="#3F3F3F"></path>
                            <path d="M143.42698,315.103048 C140.596878,314.131055 137.665189,313.486335 134.688977,313.181437 C132.518612,312.909013 130.369147,312.489638 128.255332,311.926191 C131.321192,313.323601 134.608999,314.168204 137.967661,314.421186 C140.459338,314.731659 142.904875,315.340381 145.251909,316.234319 C151.005182,318.317742 157.090996,319.326223 163.207346,319.209717 L165.743687,319.209717 L165.743687,318.620836 C155.613789,318.961767 147.587198,317.024659 143.42698,315.103048 Z" id="Path" fill="#3F3F3F"></path>
                            <path d="M123.105323,306.068377 C122.517634,305.572477 122.022738,305.138565 121.558774,304.751143 L120.862826,304.658162 C122.223232,305.608736 123.341139,306.866942 124.126045,308.330919 C124.603958,309.218751 125.281736,309.982797 126.105628,310.562467 C125.854685,310.189958 125.637312,309.795817 125.456078,309.384706 C124.92637,308.118958 124.123576,306.986416 123.105323,306.068377 L123.105323,306.068377 Z" id="Path" fill="#3F3F3F"></path>
                            <path d="M109.990585,303.030992 C109.990585,303.030992 103.464147,303.340929 102.93832,304.751143 C102.690872,305.417509 99.0874125,310.051071 99.0874125,310.051071 L105.041627,310.562467 L108.42857,306.796729 L113.965217,306.424805 L115.960265,303.712854 L109.990585,303.030992 Z" id="Path" fill="#4A4A4A"></path>
                            <path d="M114.661164,307.602566 C112.941496,307.807723 111.236774,308.123477 109.557551,308.547875 C109.557551,308.764831 106.7119,311.8797 106.7119,311.8797 L101.762943,312.716531 L103.495078,314.731123 L106.680969,312.716531 L109.52662,310.562467 L112.403202,309.012781 L115.913869,308.904303 L114.661164,307.602566 Z" id="Path" fill="#4A4A4A"></path>
                            <path d="M208.660429,319.380182 L335.972366,319.132232 C335.663056,315.165035 333.791731,313.506871 331.487373,311.507776 C329.183015,309.50868 323.971143,306.688251 323.971143,300.659972 C323.971143,300.659972 243.627908,313.739324 208.660429,314.049261" id="Path" fill="#5D5D5D"></path>
                            <path d="M208.660429,313.940783 C226.956107,313.320909 256.773577,309.617158 282.044192,306.827723 L282.044192,306.827723 C277.197983,310.053775 271.859415,312.466761 266.238459,313.971777 C257.979886,316.249816 224.296042,316.590747 208.660429,316.761212" id="Path" fill="#4A4A4A"></path>
                            <path d="M289.66868,311.895197 L289.544956,311.895197 C290.288977,311.522914 290.993643,311.076413 291.648264,310.562467 C291.165673,311.226497 290.464611,311.698479 289.66868,311.895197 L289.66868,311.895197 Z" id="Path" fill="#5D5D5D"></path>
                            <path d="M252.056602,319.178723 L254.592943,319.178723 C260.704632,319.321819 266.790622,318.339572 272.54838,316.28081 C274.898226,315.399114 277.342912,314.795804 279.832627,314.483173 C283.191289,314.230192 286.479097,313.385589 289.544956,311.988179 L289.66868,311.988179 C290.457889,311.803507 291.158018,311.348597 291.648264,310.701939 C292.479719,310.130816 293.159292,309.364746 293.627847,308.470391 C294.417091,307.013709 295.534406,305.761476 296.891066,304.813131 L299.38101,304.441206 C298.917045,304.906112 297.834461,305.990893 295.901274,307.540579 C295.046794,308.280858 294.3746,309.208988 293.937156,310.25253 C293.331405,311.920291 291.951756,313.187052 290.240904,313.646343 C287.9945,314.27586 285.704429,314.736875 283.38969,315.025564 C280.583345,315.321499 277.818609,315.929623 275.146583,316.838697 C272.710299,317.910567 270.163824,318.710878 267.553026,319.225214 L252.087533,319.225214 L252.056602,319.178723 Z" id="Path" fill="#767676"></path>
                            <path d="M294.710431,306.130364 C293.664621,307.037226 292.839417,308.171533 292.297814,309.446693 C292.120033,309.854608 291.902458,310.243921 291.648264,310.608958 C290.993643,311.122904 290.288977,311.569405 289.544956,311.941688 C287.427682,312.489943 285.279196,312.909126 283.111311,313.196934 C280.132394,313.511583 277.200058,314.172047 274.373308,315.165035 C270.228556,317.086646 262.1865,319.023754 252.072067,318.574345 L252.072067,319.178723 L249.96876,319.085742 L249.96876,318.171427 C261.87719,318.822295 267.36744,316.993665 272.223605,315.366495 C274.634405,314.465715 277.140952,313.846907 279.693438,313.522368 C287.348857,312.747525 291.756522,310.190542 292.746313,308.005485 C293.428966,306.812775 294.33168,305.760979 295.406378,304.906112 L296.148722,304.797634 C295.77755,305.200553 295.359982,305.634465 294.710431,306.130364 Z" id="Path" fill="#3F3F3F"></path>
                            <path d="M274.373308,315.165035 C277.200058,314.172047 280.132394,313.511583 283.111311,313.196934 C285.279196,312.909126 287.427682,312.489943 289.544956,311.941688 C286.479097,313.339098 283.191289,314.183701 279.832627,314.436683 C277.342912,314.749314 274.898226,315.352623 272.54838,316.234319 C266.796538,318.324723 260.710378,319.338514 254.592943,319.225214 L252.056602,319.225214 L252.056602,318.620836 C262.1865,319.023754 270.228556,317.086646 274.373308,315.165035 Z" id="Path" fill="#3F3F3F"></path>
                            <path d="M294.710431,306.130364 C295.282654,305.634465 295.77755,305.200553 296.25698,304.813131 L296.952928,304.72015 C295.596268,305.668495 294.478953,306.920728 293.689709,308.377409 C293.221154,309.271765 292.541581,310.037835 291.710125,310.608958 C291.96432,310.243921 292.181895,309.854608 292.359676,309.446693 C292.883394,308.177619 293.68707,307.043832 294.710431,306.130364 Z" id="Path" fill="#3F3F3F"></path>
                            <path d="M307.809704,303.077482 C307.809704,303.077482 314.351607,303.402916 314.877434,304.813131 C315.124882,305.479496 318.712876,310.097561 318.712876,310.097561 L312.758661,310.608958 L309.371718,306.84322 L303.835072,306.471295 L301.855489,303.759344 L307.809704,303.077482 Z" id="Path" fill="#4A4A4A"></path>
                            <path d="M303.092728,307.664554 C304.811165,307.870567 306.515514,308.181077 308.196341,308.594366 C308.196341,308.826818 311.041991,311.941688 311.041991,311.941688 L315.990949,312.778519 L314.258814,314.824104 L311.041991,312.778519 L308.196341,310.608958 L305.319759,309.059271 L301.809092,308.96629 L303.092728,307.664554 Z" id="Path" fill="#4A4A4A"></path>
                            <path d="M186.467447,313.770318 C186.281861,314.018268 185.817896,314.343702 185.616845,314.653639 C185.429386,314.893562 185.278261,315.159873 185.168345,315.443979 C185.406859,315.272807 185.634154,315.086461 185.848827,314.886092 L186.312792,314.514167 C186.540662,314.377265 186.735951,314.192157 186.885015,313.971777 C187.013058,313.702153 187.013058,313.389073 186.885015,313.11945 C186.776757,312.948984 186.885015,312.8715 186.885015,312.716531 C187.030099,312.476738 187.206989,312.257784 187.410842,312.065663 C187.101797,312.123535 186.822735,312.288022 186.622102,312.530569 C186.552718,312.631904 186.49561,312.741149 186.451981,312.856003 C186.419133,312.993533 186.419133,313.136888 186.451981,313.274418 C186.531935,313.428811 186.537624,313.611224 186.467447,313.770318 Z" id="Path" fill="#5D5D5D"></path>
                            <path d="M190.766854,314.188733 C190.627664,314.421186 190.318355,314.591651 190.101838,314.808608 C189.919237,314.974845 189.817662,315.212333 189.823459,315.459476 C189.963246,315.30094 190.131018,315.169602 190.318355,315.072054 C190.644482,314.932029 190.931271,314.71384 191.153491,314.436683 C191.323357,314.095736 191.361898,313.704027 191.26175,313.336406 C191.26175,313.057462 191.26175,312.856003 191.168957,312.685537 C191.026361,312.880347 190.940682,313.111076 190.921509,313.351902 C190.928618,313.638589 190.875944,313.923608 190.766854,314.188733 L190.766854,314.188733 Z" id="Path" fill="#5D5D5D"></path>
                            <path d="M196.241638,314.545161 C195.916863,314.979073 195.452898,315.521463 195.545691,315.831401 C195.936574,315.512493 196.29882,315.159883 196.628276,314.777614 C196.868793,314.289162 196.868793,313.716379 196.628276,313.227928 C196.473621,313.444884 196.489086,314.095752 196.241638,314.545161 Z" id="Path" fill="#5D5D5D"></path>
                            <path d="M201.407113,314.591651 C201.407113,314.901589 201.298854,315.165035 201.236993,315.381991 C201.175131,315.598948 201.128734,315.877891 201.236993,315.986369 C201.31572,315.816439 201.420041,315.65964 201.546302,315.521463 C201.708268,315.268057 201.813772,314.98262 201.855612,314.684633 C202.012296,314.203716 201.973396,313.680286 201.747354,313.227928 C201.609365,313.675989 201.495784,314.131235 201.407113,314.591651 L201.407113,314.591651 Z" id="Path" fill="#5D5D5D"></path>
                            <path d="M205.474538,314.731123 C205.381745,314.99457 205.22709,315.304507 205.134297,315.53696 C205.088315,315.75147 205.088315,315.973318 205.134297,316.187828 C205.260421,316.031656 205.37418,315.865852 205.474538,315.691929 C205.668773,315.448237 205.82519,315.176565 205.938502,314.886092 C206.083441,314.369915 206.033901,313.818356 205.799313,313.336406 C205.660123,313.568859 205.660123,314.20423 205.474538,314.731123 Z" id="Path" fill="#5D5D5D"></path>
                            <path d="M210.083254,314.979073 C209.921072,315.146586 209.780762,315.334046 209.665686,315.53696 C209.526497,315.753916 209.665686,316.048357 209.758479,316.063853 C209.758479,315.78491 210.036858,315.738419 210.469892,315.227023 C210.902926,314.715626 210.469892,314.20423 210.640012,314.002771 C210.299771,313.971777 210.299771,314.731123 210.083254,314.979073 Z" id="Path" fill="#5D5D5D"></path>
                            <path d="M214.18161,314.808608 C213.56299,315.335501 213.145422,315.877891 212.805181,315.815904 C212.91344,316.001866 213.284611,315.955375 213.56299,315.815904 C213.88832,315.630412 214.194038,315.41234 214.475454,315.165035 L214.645575,315.025564 L214.645575,315.025564 L215.094074,314.731123 C215.202333,314.591651 215.310591,314.45218 215.387918,314.328205 C215.475889,314.130349 215.538257,313.922035 215.573504,313.70833 C215.264194,313.894293 215.10954,314.405689 214.444523,314.622645 L214.444523,314.622645 L214.18161,314.808608 Z" id="Path" fill="#5D5D5D"></path>
                            <path d="M219.795584,314.405689 C219.238826,315.056557 219.19243,315.598948 218.944982,315.815904 C219.331619,315.815904 219.733722,315.165035 220.104894,314.74662 C220.305945,314.560658 220.692582,314.328205 220.76991,313.987274 C220.835643,313.759487 220.835643,313.517702 220.76991,313.289915 C220.661651,313.41389 220.630721,313.66184 220.491531,313.847802 C220.352342,314.033764 220.104894,314.126746 219.795584,314.405689 Z" id="Path" fill="#5D5D5D"></path>
                            <path d="M226.322022,313.878796 C226.177231,314.240216 226.088564,314.621733 226.059108,315.010067 C226.067075,315.261315 226.103393,315.510852 226.167367,315.753916 C226.267886,315.525887 226.340584,315.286539 226.383884,315.041061 C226.383884,314.74662 226.631332,314.45218 226.724125,314.080255 C226.940068,313.48041 227.014183,312.838542 226.940642,312.205135 C226.677728,312.437588 226.584935,313.181437 226.322022,313.878796 Z" id="Path" fill="#5D5D5D"></path>
                            <path d="M232.307168,313.506871 C232.109149,314.037699 231.969142,314.588472 231.889599,315.149539 C232.303648,314.71651 232.596963,314.182129 232.740201,313.599852 C232.948877,313.007239 232.818434,312.347762 232.399961,311.8797 C232.464892,312.423334 232.433478,312.974188 232.307168,313.506871 L232.307168,313.506871 Z" id="Path" fill="#5D5D5D"></path>
                            <path d="M146.272631,304.084778 C148.207061,302.472939 150.27682,301.031539 152.458828,299.77665 C150.106497,300.72632 147.931304,302.067616 146.025183,303.743847 C144.76587,304.656454 143.755479,305.871383 143.08674,307.277132 C142.870223,307.897007 142.77743,308.485887 142.607309,308.950793 C142.472192,309.341779 142.250069,309.696837 141.957759,309.989083 C142.309231,309.745149 142.591631,309.414124 142.77743,309.028278 C143.009412,308.547875 143.148601,307.974491 143.411515,307.38561 C143.798152,306.161358 145.050857,305.247043 146.272631,304.084778 Z" id="Path" fill="#5D5D5D"></path>
                            <path d="M152.056725,306.626264 C152.809251,305.5166 153.72125,304.524421 154.763187,303.68186 C155.660185,302.922514 156.309736,302.318136 156.820097,301.899721 C156.309736,302.209658 155.50553,302.721054 154.562135,303.449407 C153.430534,304.256335 152.451255,305.25859 151.670088,306.409308 C150.819486,307.773032 150.726693,309.245234 150.123539,310.221536 C149.658023,310.971634 148.979448,311.565243 148.174887,311.926191 C149.084435,311.706696 149.878962,311.153822 150.401918,310.376505 C151.128796,309.322718 151.267985,307.850516 152.056725,306.626264 Z" id="Path" fill="#5D5D5D"></path>
                            <path d="M158.892473,308.532378 C159.951516,307.201201 161.087605,305.933445 162.294882,304.735647 C160.835119,305.682636 159.556967,306.884646 158.521301,308.284428 C158.194877,308.735215 157.915058,309.218103 157.686165,309.725637 C157.454182,310.175046 157.191269,310.577964 156.959287,310.949889 C156.542038,311.47968 156.058659,311.953623 155.520996,312.360103 C156.168016,312.084103 156.748209,311.671859 157.2222,311.151348 C157.530724,310.764753 157.809886,310.355522 158.057337,309.927096 C158.309349,309.44684 158.58817,308.981196 158.892473,308.532378 L158.892473,308.532378 Z" id="Path" fill="#5D5D5D"></path>
                            <path d="M164.150741,310.856908 C164.513229,310.000841 164.937059,309.172178 165.418911,308.377409 C165.821014,307.695547 166.284979,307.230642 166.48603,306.827723 C165.990553,307.221678 165.539391,307.668559 165.140532,308.160453 C164.571328,308.925743 164.09863,309.758546 163.733172,310.639951 C163.463032,311.51903 163.038844,312.34289 162.480468,313.072959 C162.034863,313.511791 161.616511,313.97757 161.227763,314.467677 C161.568003,314.219727 162.078365,313.847802 162.774312,313.305412 C163.414139,312.605593 163.885049,311.7679 164.150741,310.856908 Z" id="Path" fill="#5D5D5D"></path>
                            <path d="M170.800903,311.399298 C171.295798,310.237033 172.038142,309.291724 172.192797,308.780328 C171.425497,309.464432 170.804668,310.297398 170.367869,311.228832 C170.248506,311.553466 170.170561,311.891912 170.135886,312.236128 L170.135886,313.072959 C170.075526,313.444094 169.889918,313.783243 169.61006,314.033764 C170.039203,313.907921 170.36546,313.557226 170.460662,313.11945 C170.47938,312.531273 170.594321,311.950164 170.800903,311.399298 Z" id="Path" fill="#5D5D5D"></path>
                            <path d="M176.600462,311.988179 C177.035072,311.392264 177.398416,310.747319 177.683047,310.066567 C177.08067,310.537058 176.558381,311.102275 176.136498,311.740229 C175.905076,312.136684 175.718343,312.557683 175.57974,312.995475 C175.509079,313.284618 175.472741,313.581112 175.471481,313.878796 C175.780791,313.537865 176.090101,312.809512 176.600462,311.988179 Z" id="Path" fill="#5D5D5D"></path>
                            <path d="M276.244633,301.496802 C275.76066,298.791379 275.083595,296.124237 274.218653,293.515918 C274.388774,294.957126 275.192979,297.963518 275.765202,301.589783 C276.337426,305.216049 277.017907,308.330919 276.167305,309.617158 C276.76187,308.69979 277.023938,307.605624 276.909649,306.517786 C276.836568,304.827714 276.614023,303.147469 276.244633,301.496802 Z" id="Path" fill="#5D5D5D"></path>
                            <path d="M271.45033,304.503194 C271.249373,303.011109 270.965397,301.531436 270.599728,300.071091 C270.305883,298.815845 270.135763,297.808549 269.950177,297.173177 C270.006603,298.164832 270.115011,299.152828 270.274952,300.133078 C270.5224,301.403821 270.769848,302.922514 270.986365,304.549684 C270.986365,305.371018 270.986365,306.099371 270.986365,306.905207 C270.986365,307.711044 270.893572,308.346416 270.847176,308.997284 C270.863076,309.979586 270.645742,310.951607 270.21309,311.83321 C270.804637,311.01493 271.138552,310.038134 271.171951,309.028278 C271.280209,308.392906 271.342071,307.680051 271.403933,306.936201 C271.465795,306.192352 271.45033,305.433005 271.45033,304.503194 Z" id="Path" fill="#5D5D5D"></path>
                            <path d="M266.424045,306.517786 C266.253924,303.294438 266.099269,300.582487 265.913683,299.311745 C265.79339,301.717415 265.79339,304.127612 265.913683,306.533283 C265.913683,307.323623 266.037407,308.082969 265.991011,308.811322 C265.916768,309.479737 265.797933,310.142419 265.635305,310.79492 C265.333903,311.726698 265.333903,312.730061 265.635305,313.66184 C265.515395,312.718144 265.632339,311.759382 265.975545,310.872404 C266.176446,310.212416 266.331472,309.539274 266.43951,308.857812 C266.480101,308.078173 266.474937,307.296818 266.424045,306.517786 L266.424045,306.517786 Z" id="Path" fill="#5D5D5D"></path>
                            <path d="M260.021331,308.532378 C259.897607,305.928905 260.021331,303.728351 259.897607,302.705558 C259.606051,304.633206 259.497308,306.584187 259.572831,308.532378 C259.820279,311.120354 258.89235,313.181437 259.06247,314.297211 C259.186194,313.801311 259.356315,313.026468 259.665624,312.065663 C259.991437,310.91818 260.111865,309.721946 260.021331,308.532378 Z" id="Path" fill="#5D5D5D"></path>
                            <path d="M254.299098,310.872404 C254.445186,309.32138 254.382767,307.757722 254.113512,306.223345 C253.958858,307.013685 254.113512,308.795825 253.850599,310.779423 C253.695944,311.244329 253.71141,311.83321 253.463962,312.12765 C253.216514,312.422091 253.170117,312.468581 253.015462,312.685537 C252.878087,312.907492 252.833629,313.174785 252.891739,313.429387 L252.891739,313.429387 C253.077324,313.987274 253.556755,313.940783 253.742341,314.080255 C253.927927,314.219727 253.742341,314.483173 253.665013,314.638142 L253.88153,314.390192 C253.999421,314.269675 253.999421,314.076797 253.88153,313.95628 C253.634082,313.739324 253.26291,313.630846 253.231979,313.398393 L253.231979,313.398393 C253.154652,313.041965 253.448496,312.840506 253.819668,312.422091 C253.996092,312.209994 254.108726,311.952022 254.144443,311.678241 L254.299098,310.872404 Z" id="Path" fill="#5D5D5D"></path>
                            <path d="M249.241882,311.786719 C249.405029,311.018105 249.45195,310.229284 249.381072,309.446693 C249.381072,308.795825 249.381072,308.284428 249.381072,307.897007 C249.179872,308.390215 249.064782,308.914411 249.040831,309.446693 C249.024371,310.197239 248.936332,310.944488 248.777917,311.678241 C248.623262,312.468581 247.91185,312.809512 247.401489,313.227928 C246.975443,313.587277 246.794705,314.160775 246.937524,314.70013 C246.961563,314.212267 247.213742,313.764316 247.618005,313.491374 C248.08197,313.181437 248.963503,312.763022 249.241882,311.786719 Z" id="Path" fill="#5D5D5D"></path>
                            <path d="M242.931961,312.313613 C243.493179,311.437176 243.80838,310.425418 243.844425,309.384706 C243.657637,309.739059 243.497386,310.10683 243.364995,310.484983 C243.194875,310.965386 242.823703,311.476782 242.545324,312.034669 C242.266945,312.592556 241.833911,313.088456 241.524601,313.506871 C241.255493,313.805854 241.012319,314.127287 240.797723,314.467677 C241.01424,314.328205 241.354481,314.064758 241.772049,313.723827 C242.193868,313.283956 242.581627,312.81252 242.931961,312.313613 Z" id="Path" fill="#5D5D5D"></path>
                            <path d="M238.524296,312.685537 C238.37313,312.100151 238.264587,311.504539 238.19952,310.903398 C238.0627,311.122958 237.982946,311.373363 237.967538,311.631751 C237.950525,312.006941 237.986978,312.382645 238.075796,312.747525 C238.292313,313.506871 237.54997,313.70833 237.287056,313.95628 C237.552704,313.981789 237.820234,313.933536 238.060331,313.816808 C238.456237,313.591524 238.647705,313.124672 238.524296,312.685537 Z" id="Path" fill="#5D5D5D"></path>
                        </g>
                    </g>
                </g>
                <text id="4" font-family="Roboto-Bold, Roboto" font-size="350" font-weight="bold" fill="#EF4F4F">
                    <tspan x="0" y="325">4</tspan>
                </text>
                <text id="4-copy" font-family="Roboto-Bold, Roboto" font-size="350" font-weight="bold" fill="#EF4F4F">
                    <tspan x="559" y="325">4</tspan>
                </text>
            </g>
        </g>
    </g>
</svg>