<?xml version="1.0" encoding="UTF-8"?>
<svg width="41px" height="41px" viewBox="0 0 41 41" version="1.1" xmlns="http://www.w3.org/2000/svg" xmlns:xlink="http://www.w3.org/1999/xlink">
    <!-- Generator: sketchtool 63.1 (101010) - https://sketch.com -->
    <title>E51110BC-42BE-4EFD-A25B-2B6405AA5BCF</title>
    <desc>Created with sketchtool.</desc>
    <defs>
        <linearGradient x1="-7.33847712%" y1="-5.38408713%" x2="98.7408852%" y2="97.1214241%" id="linearGradient-1">
            <stop stop-color="#DEEBF2" offset="0%"></stop>
            <stop stop-color="#D5E1E8" offset="10%"></stop>
            <stop stop-color="#BCC6CC" offset="28%"></stop>
            <stop stop-color="#939B9F" offset="51%"></stop>
            <stop stop-color="#5C5F61" offset="78%"></stop>
            <stop stop-color="#2B2B2B" offset="100%"></stop>
        </linearGradient>
        <radialGradient cx="-3.33482143%" cy="0.830357143%" fx="-3.33482143%" fy="0.830357143%" r="74.8080357%" id="radialGradient-2">
            <stop stop-color="#FFFFFF" offset="0%"></stop>
            <stop stop-color="#A8A8A8" offset="31%"></stop>
            <stop stop-color="#4F4F4F" offset="65%"></stop>
            <stop stop-color="#161616" offset="89%"></stop>
            <stop stop-color="#000000" offset="100%"></stop>
        </radialGradient>
        <linearGradient x1="107.314963%" y1="105.378062%" x2="1.24467519%" y2="2.88205538%" id="linearGradient-3">
            <stop stop-color="#DEEBF2" offset="0%"></stop>
            <stop stop-color="#D5E1E8" offset="9%"></stop>
            <stop stop-color="#BBC6CC" offset="24%"></stop>
            <stop stop-color="#929A9F" offset="44%"></stop>
            <stop stop-color="#585D60" offset="68%"></stop>
            <stop stop-color="#101111" offset="94%"></stop>
            <stop stop-color="#000000" offset="100%"></stop>
        </linearGradient>
        <radialGradient cx="-390.011786%" cy="-65.1249156%" fx="-390.011786%" fy="-65.1249156%" r="1359.31803%" gradientTransform="translate(-3.900118,-0.651249),scale(0.872717,1.000000),translate(3.900118,0.651249)" id="radialGradient-4">
            <stop stop-color="#FFFFFF" offset="0%"></stop>
            <stop stop-color="#FDFDFD" offset="31%"></stop>
            <stop stop-color="#F6F6F6" offset="45%"></stop>
            <stop stop-color="#E9E9E9" offset="56%"></stop>
            <stop stop-color="#D7D7D7" offset="65%"></stop>
            <stop stop-color="#BFBFBF" offset="72%"></stop>
            <stop stop-color="#A2A2A2" offset="79%"></stop>
            <stop stop-color="#808080" offset="86%"></stop>
            <stop stop-color="#575757" offset="92%"></stop>
            <stop stop-color="#2B2B2B" offset="97%"></stop>
            <stop stop-color="#141414" offset="100%"></stop>
        </radialGradient>
        <radialGradient cx="-485.179856%" cy="-103.140496%" fx="-485.179856%" fy="-103.140496%" r="965.635492%" gradientTransform="translate(-4.851799,-1.031405),scale(1.000000,0.984652),translate(4.851799,1.031405)" id="radialGradient-5">
            <stop stop-color="#FFFFFF" offset="0%"></stop>
            <stop stop-color="#FDFDFD" offset="31%"></stop>
            <stop stop-color="#F6F6F6" offset="45%"></stop>
            <stop stop-color="#E9E9E9" offset="56%"></stop>
            <stop stop-color="#D7D7D7" offset="65%"></stop>
            <stop stop-color="#BFBFBF" offset="72%"></stop>
            <stop stop-color="#A2A2A2" offset="79%"></stop>
            <stop stop-color="#808080" offset="86%"></stop>
            <stop stop-color="#575757" offset="92%"></stop>
            <stop stop-color="#2B2B2B" offset="97%"></stop>
            <stop stop-color="#141414" offset="100%"></stop>
        </radialGradient>
        <radialGradient cx="-141.265155%" cy="-113.412678%" fx="-141.265155%" fy="-113.412678%" r="986.76102%" gradientTransform="translate(-1.412652,-1.134127),scale(0.999269,1.000000),translate(1.412652,1.134127)" id="radialGradient-6">
            <stop stop-color="#FFFFFF" offset="0%"></stop>
            <stop stop-color="#FDFDFD" offset="31%"></stop>
            <stop stop-color="#F6F6F6" offset="45%"></stop>
            <stop stop-color="#E9E9E9" offset="56%"></stop>
            <stop stop-color="#D7D7D7" offset="65%"></stop>
            <stop stop-color="#BFBFBF" offset="72%"></stop>
            <stop stop-color="#A2A2A2" offset="79%"></stop>
            <stop stop-color="#808080" offset="86%"></stop>
            <stop stop-color="#575757" offset="92%"></stop>
            <stop stop-color="#2B2B2B" offset="97%"></stop>
            <stop stop-color="#141414" offset="100%"></stop>
        </radialGradient>
        <radialGradient cx="-3.29105581%" cy="0.855208578%" fx="-3.29105581%" fy="0.855208578%" r="74.7716973%" id="radialGradient-7">
            <stop stop-color="#E6E6E6" offset="0%"></stop>
            <stop stop-color="#D6D6D6" offset="10%"></stop>
            <stop stop-color="#AEAEAE" offset="31%"></stop>
            <stop stop-color="#6C6C6C" offset="59%"></stop>
            <stop stop-color="#131313" offset="93%"></stop>
            <stop stop-color="#000000" offset="100%"></stop>
        </radialGradient>
        <radialGradient cx="16.18916%" cy="9.75465058%" fx="16.18916%" fy="9.75465058%" r="111.94903%" id="radialGradient-8">
            <stop stop-color="#FFFFFF" offset="0%"></stop>
            <stop stop-color="#FDFDFD" offset="34%"></stop>
            <stop stop-color="#F6F6F6" offset="48%"></stop>
            <stop stop-color="#EAEAEA" offset="58%"></stop>
            <stop stop-color="#D8D8D8" offset="67%"></stop>
            <stop stop-color="#C2C2C2" offset="74%"></stop>
            <stop stop-color="#A6A6A6" offset="80%"></stop>
            <stop stop-color="#848484" offset="86%"></stop>
            <stop stop-color="#5F5F5F" offset="91%"></stop>
            <stop stop-color="#404040" offset="95%"></stop>
            <stop stop-color="#404040" offset="96%"></stop>
            <stop stop-color="#404040" offset="100%"></stop>
            <stop stop-color="#000000" offset="100%"></stop>
        </radialGradient>
        <radialGradient cx="-33.1540204%" cy="-65.1330691%" fx="-33.1540204%" fy="-65.1330691%" r="395.965459%" id="radialGradient-9">
            <stop stop-color="#FFFFFF" offset="17%"></stop>
            <stop stop-color="#E2F5FB" offset="19%"></stop>
            <stop stop-color="#AEE2F4" offset="23%"></stop>
            <stop stop-color="#7FD1EE" offset="27%"></stop>
            <stop stop-color="#58C3E9" offset="31%"></stop>
            <stop stop-color="#38B7E5" offset="36%"></stop>
            <stop stop-color="#1FAEE2" offset="40%"></stop>
            <stop stop-color="#0EA8E0" offset="45%"></stop>
            <stop stop-color="#03A4DE" offset="50%"></stop>
            <stop stop-color="#00A3DE" offset="56%"></stop>
            <stop stop-color="#01A0DA" offset="60%"></stop>
            <stop stop-color="#0498CE" offset="65%"></stop>
            <stop stop-color="#088BBA" offset="70%"></stop>
            <stop stop-color="#0E789E" offset="74%"></stop>
            <stop stop-color="#17607A" offset="79%"></stop>
            <stop stop-color="#20424F" offset="84%"></stop>
            <stop stop-color="#292929" offset="87%"></stop>
        </radialGradient>
        <radialGradient cx="-133.15402%" cy="-165.133069%" fx="-133.15402%" fy="-165.133069%" r="395.965459%" id="radialGradient-10">
            <stop stop-color="#FFFFFF" offset="17%"></stop>
            <stop stop-color="#E2F5FB" offset="19%"></stop>
            <stop stop-color="#AEE2F4" offset="23%"></stop>
            <stop stop-color="#7FD1EE" offset="27%"></stop>
            <stop stop-color="#58C3E9" offset="31%"></stop>
            <stop stop-color="#38B7E5" offset="36%"></stop>
            <stop stop-color="#1FAEE2" offset="40%"></stop>
            <stop stop-color="#0EA8E0" offset="45%"></stop>
            <stop stop-color="#03A4DE" offset="50%"></stop>
            <stop stop-color="#00A3DE" offset="56%"></stop>
            <stop stop-color="#01A0DA" offset="60%"></stop>
            <stop stop-color="#0498CE" offset="65%"></stop>
            <stop stop-color="#088BBA" offset="70%"></stop>
            <stop stop-color="#0E789E" offset="74%"></stop>
            <stop stop-color="#17607A" offset="79%"></stop>
            <stop stop-color="#20424F" offset="84%"></stop>
            <stop stop-color="#292929" offset="87%"></stop>
        </radialGradient>
        <radialGradient cx="-3.29238329%" cy="0.849361224%" fx="-3.29238329%" fy="0.849361224%" r="74.7771148%" gradientTransform="translate(-0.032924,0.008494),scale(1.000000,0.999930),translate(0.032924,-0.008494)" id="radialGradient-11">
            <stop stop-color="#E6E6E6" offset="0%"></stop>
            <stop stop-color="#D6D6D6" offset="10%"></stop>
            <stop stop-color="#AEAEAE" offset="31%"></stop>
            <stop stop-color="#6C6C6C" offset="59%"></stop>
            <stop stop-color="#131313" offset="93%"></stop>
            <stop stop-color="#000000" offset="100%"></stop>
        </radialGradient>
        <linearGradient x1="-21.9399478%" y1="-37.6985273%" x2="128.002303%" y2="107.233612%" id="linearGradient-12">
            <stop stop-color="#EEF0F3" offset="0%"></stop>
            <stop stop-color="#E9EBED" offset="11%"></stop>
            <stop stop-color="#D9DBDE" offset="26%"></stop>
            <stop stop-color="#C0C1C3" offset="42%"></stop>
            <stop stop-color="#9C9D9F" offset="59%"></stop>
            <stop stop-color="#6E6F70" offset="77%"></stop>
            <stop stop-color="#373737" offset="96%"></stop>
            <stop stop-color="#2B2B2B" offset="100%"></stop>
        </linearGradient>
        <linearGradient x1="-40.1155235%" y1="-18.9314079%" x2="109.891697%" y2="126.021661%" id="linearGradient-13">
            <stop stop-color="#EEF0F3" offset="0%"></stop>
            <stop stop-color="#E9EBED" offset="11%"></stop>
            <stop stop-color="#D9DBDE" offset="26%"></stop>
            <stop stop-color="#C0C1C3" offset="42%"></stop>
            <stop stop-color="#9C9D9F" offset="59%"></stop>
            <stop stop-color="#6E6F70" offset="77%"></stop>
            <stop stop-color="#373737" offset="96%"></stop>
            <stop stop-color="#2B2B2B" offset="100%"></stop>
        </linearGradient>
        <linearGradient x1="32.5205598%" y1="33.0976771%" x2="110.229404%" y2="108.209494%" id="linearGradient-14">
            <stop stop-color="#BDD5E5" offset="0%"></stop>
            <stop stop-color="#B5CEDF" offset="14%"></stop>
            <stop stop-color="#9FBCCD" offset="37%"></stop>
            <stop stop-color="#7B9EB1" offset="65%"></stop>
            <stop stop-color="#49758B" offset="97%"></stop>
            <stop stop-color="#437086" offset="100%"></stop>
        </linearGradient>
        <linearGradient x1="-7.28650539%" y1="-52.5301142%" x2="142.567765%" y2="91.9864454%" id="linearGradient-15">
            <stop stop-color="#EEF0F3" offset="0%"></stop>
            <stop stop-color="#E5E7EA" offset="10%"></stop>
            <stop stop-color="#CDCFD1" offset="27%"></stop>
            <stop stop-color="#A6A7A9" offset="48%"></stop>
            <stop stop-color="#707071" offset="73%"></stop>
            <stop stop-color="#2B2B2B" offset="100%"></stop>
        </linearGradient>
        <linearGradient x1="-0.846962617%" y1="0.876168224%" x2="51.8399533%" y2="51.7815421%" id="linearGradient-16">
            <stop stop-color="#D6DDE8" offset="0%"></stop>
            <stop stop-color="#D1DAE5" offset="12%"></stop>
            <stop stop-color="#C4D1DE" offset="26%"></stop>
            <stop stop-color="#ADC2D1" offset="41%"></stop>
            <stop stop-color="#8DAEBF" offset="56%"></stop>
            <stop stop-color="#6493A8" offset="72%"></stop>
            <stop stop-color="#32738C" offset="87%"></stop>
            <stop stop-color="#105D79" offset="97%"></stop>
        </linearGradient>
        <linearGradient x1="-54.7313084%" y1="-3.82593458%" x2="95.2832944%" y2="141.136098%" id="linearGradient-17">
            <stop stop-color="#EEF0F3" offset="0%"></stop>
            <stop stop-color="#E9EBED" offset="11%"></stop>
            <stop stop-color="#D9DBDE" offset="26%"></stop>
            <stop stop-color="#C0C1C3" offset="42%"></stop>
            <stop stop-color="#9C9D9F" offset="59%"></stop>
            <stop stop-color="#6E6F70" offset="77%"></stop>
            <stop stop-color="#373737" offset="96%"></stop>
            <stop stop-color="#2B2B2B" offset="100%"></stop>
        </linearGradient>
    </defs>
    <g id="Pages" stroke="none" stroke-width="1" fill="none" fill-rule="evenodd">
        <g id="Homepage" transform="translate(-1192.000000, -863.000000)" fill-rule="nonzero">
            <g id="Discussions" transform="translate(408.000000, 753.000000)">
                <g id="Box-Copy" transform="translate(761.000000, 90.000000)">
                    <g id="bmw" transform="translate(23.000000, 20.000000)">
                        <path d="M20.4895763,-2.65528567e-06 C9.17485446,0.00575617599 0.00658794424,9.18179926 0.010423703,20.4965219 C0.0142618696,31.8112445 9.18874969,40.9810673 20.5034728,40.9791499 C31.8181959,40.9772318 40.9895763,31.8042995 40.9895763,20.4895763 C40.9895763,15.0535963 38.8294291,9.84041207 34.9846334,5.99757136 C31.1398378,2.15473065 25.9255556,-0.0027654638 20.4895763,-2.65528567e-06 Z M20.4895763,39.9576299 C9.74614153,39.9518702 1.040457,31.2399634 1.04237567,20.4965273 C1.04429497,9.75309117 9.75309117,1.04429497 20.4965273,1.04237567 C31.2399634,1.040457 39.9518702,9.74614153 39.9576299,20.4895763 C39.9603943,25.6536722 37.9101907,30.6070551 34.2586229,34.2586229 C30.6070551,37.9101907 25.6536722,39.9603943 20.4895763,39.9576299 Z" id="Shape" fill="url(#linearGradient-1)"></path>
                        <path d="M40.101822,20.4895763 C40.101822,31.3211205 31.3211205,40.101822 20.4895763,40.101822 C9.65803203,40.101822 0.877330508,31.3211205 0.877330508,20.4895763 C0.877330508,9.65803203 9.65803203,0.877330508 20.4895763,0.877330508 C25.6910673,0.877330508 30.6795187,2.94361475 34.3575282,6.6216243 C38.0355378,10.2996338 40.101822,15.2880853 40.101822,20.4895763 Z" id="Path" fill="#444B4C"></path>
                        <path d="M39.9576271,20.4895763 C39.9576271,31.235727 31.2461507,39.9472034 20.5,39.9472034 C9.75384927,39.9472034 1.04237288,31.235727 1.04237288,20.4895763 C1.04237288,9.74342555 9.75384927,1.03194915 20.5,1.03194915 C25.6604836,1.03194915 30.6096072,3.08194327 34.2586201,6.73095619 C37.907633,10.3799691 39.9576271,15.3290927 39.9576271,20.4895763 Z" id="Path" fill="url(#radialGradient-2)"></path>
                        <path d="M33.5400847,20.4895763 C33.5400847,27.6971731 27.6971731,33.5400847 20.4895763,33.5400847 C13.2819795,33.5400847 7.4390678,27.6971731 7.4390678,20.4895763 C7.4390678,13.2819795 13.2819795,7.4390678 20.4895763,7.4390678 C23.9507863,7.4390678 27.2702342,8.81402813 29.7176793,11.2614732 C32.1651244,13.7089183 33.5400847,17.0283662 33.5400847,20.4895763 L33.5400847,20.4895763 Z" id="Path" fill="url(#linearGradient-3)"></path>
                        <polygon id="Path" fill="#000000" points="21.0125 7.08639831 22.369322 3.49368644 22.369322 7.08639831 23.3977966 7.08639831 23.3977966 1.94055085 21.8516102 1.94055085 20.4426695 5.62533898 20.4565678 5.62533898 19.0493644 1.94055085 17.503178 1.94055085 17.503178 7.08639831 18.5316525 7.08639831 18.5316525 3.49368644 19.8867373 7.08639831"></polygon>
                        <polygon id="Path" fill="#000000" points="35.1418644 9.39525424 33.3837288 11.9594915 36.1460169 10.6009322 36.8965254 11.4991102 32.5480932 13.6828814 31.6690254 12.6179237 33.3541949 10.0780085 33.3437712 10.0641102 30.5397881 11.2645763 29.6520339 10.2083051 32.5845763 6.3254661 33.3333475 7.22538136 31.4970339 9.69754237 34.3392373 8.42932203"></polygon>
                        <path d="M11.3775,8.41194915 C10.9331724,7.97728377 10.2447669,7.91417389 9.72881356,8.26080508 C9.81733866,8.01190246 9.81733866,7.74008906 9.72881356,7.49118644 C9.60500302,7.20916447 9.41198996,6.96296825 9.16766949,6.77542373 C8.47275424,6.19516949 7.75004237,6.69029661 7.23059322,7.30877119 L4.71847458,10.3090678 L8.66559322,13.620339 L11.3149576,10.4654237 C11.9195339,9.74444915 12.0133475,9.03389831 11.3775,8.41194915 Z M6.26987288,9.85389831 L7.77783898,8.05754237 C7.9515678,7.8490678 8.34940678,7.85775424 8.60305085,8.07144068 C8.7249887,8.1601834 8.80428676,8.29585161 8.82177376,8.44564585 C8.83926075,8.59544009 8.79334497,8.74572578 8.69512712,8.86016949 L7.20279661,10.6374153 L6.26987288,9.85389831 Z M10.4237288,10.1527119 L8.86016949,12.0272458 L7.87686441,11.2002966 L9.45779661,9.31186441 C9.6996186,9.09099938 10.0686295,9.08659735 10.3156514,9.30163083 C10.5626734,9.51666432 10.6091634,9.88276144 10.4237288,10.1527119 L10.4237288,10.1527119 Z" id="Shape" fill="#333333"></path>
                        <polygon id="Path" fill="url(#radialGradient-4)" points="21.024661 6.88834746 22.3797458 3.29563559 22.3797458 6.88834746 23.4099576 6.88834746 23.4099576 1.7425 21.8620339 1.7425 20.4548305 5.42728814 20.4669915 5.42728814 19.0597881 1.7425 17.5136017 1.7425 17.5136017 6.88834746 18.5420763 6.88834746 18.5420763 3.29563559 19.8988983 6.88834746"></polygon>
                        <polygon id="Path" fill="url(#radialGradient-5)" points="35.1522881 9.0495339 33.3941525 11.6137712 36.158178 10.2552119 36.9069492 11.1533898 32.5585169 13.337161 31.6794492 12.2722034 33.3646186 9.73228814 33.3559322 9.71838983 30.5502119 10.9188559 29.6624576 9.86258475 32.595 5.97974576 33.3437712 6.87966102 31.5091949 9.35182203 34.349661 8.08533898"></polygon>
                        <path d="M11.1933475,8.30944915 C10.7456083,7.87459466 10.0538854,7.81435018 9.53771186,8.16525424 C9.62625201,7.91695059 9.62625201,7.64567653 9.53771186,7.39737288 C9.41286073,7.11693361 9.21925592,6.87253742 8.97483051,6.68682203 C8.27991525,6.10830508 7.55894068,6.6034322 7.03949153,7.22190678 L4.53432203,10.2083051 L8.48144068,13.5195763 L11.1308051,10.364661 C11.7353814,9.64194915 11.8291949,8.92792373 11.1933475,8.30944915 Z M6.08050847,9.75313559 L7.59368644,7.95677966 C7.76741525,7.74830508 8.16351695,7.75525424 8.41716102,7.96894068 C8.54016285,8.05714747 8.62052515,8.19290436 8.63868921,8.34317065 C8.65685326,8.49343693 8.61115331,8.64443212 8.51271186,8.75940678 L7.01864407,10.5366525 L6.08050847,9.75313559 Z M10.25,10.0519492 L8.67601695,11.9264831 L7.68923729,11.0977966 L9.27364407,9.20762712 C9.51178986,8.9595701 9.90247615,8.94143423 10.1625782,9.16636231 C10.4226802,9.39129039 10.4611021,9.78050556 10.25,10.0519492 Z" id="Shape" fill="url(#radialGradient-6)"></path>
                        <path d="M7.875127,20.4895763 C7.875127,15.3866471 10.9491503,10.7862178 15.6637094,8.83357372 C20.3782684,6.88092961 25.8048514,7.96063542 29.4129188,11.5691997 C33.0209861,15.177764 34.0999446,20.6044956 32.1466513,25.3187857 C30.1933579,30.0330758 25.5925054,33.1064654 20.4895763,33.1057628 C17.1437153,33.1057628 13.9349175,31.7765058 11.5691995,29.4104619 C9.2034814,27.044418 7.87466632,23.8354372 7.875127,20.4895763 L7.875127,20.4895763 Z" id="Path" fill="url(#radialGradient-7)"></path>
                        <path d="M8.23648293,20.4895763 C8.23648293,15.5328019 11.2224647,11.0641362 15.8019943,9.16742308 C20.3815239,7.27070999 25.6526813,8.31949973 29.1574016,11.8247169 C32.6621218,15.3299341 33.7101643,20.6012401 31.8128019,25.1805008 C29.9154396,29.7597614 25.4463506,32.7451095 20.4895763,32.7444069 C17.2395529,32.7444069 14.1226674,31.4532211 11.8247167,29.1549447 C9.52676601,26.8566682 8.23602225,23.7395996 8.23648293,20.4895763 L8.23648293,20.4895763 Z" id="Path" fill="url(#radialGradient-8)"></path>
                        <path d="M8.21737288,20.4895763 L20.4895763,20.4895763 L20.4895763,8.21737288 C13.7118255,8.21737288 8.21737288,13.7118255 8.21737288,20.4895763 L8.21737288,20.4895763 Z" id="Path" fill="url(#radialGradient-9)"></path>
                        <path d="M20.4895763,20.4895763 L20.4895763,32.7617797 C27.2673271,32.7617797 32.7617797,27.2673271 32.7617797,20.4895763 L20.4895763,20.4895763 Z" id="Path" fill="url(#radialGradient-10)"></path>
                        <polygon id="Path" fill="url(#radialGradient-11)" points="32.8642797 20.2724153 20.7084746 20.2724153 20.7084746 8.11487288 20.2724153 8.11487288 20.2724153 20.2724153 8.11661017 20.2724153 8.11661017 20.7067373 20.2724153 20.7067373 20.2724153 32.8642797 20.7084746 32.8642797 20.7084746 20.7067373 32.8642797 20.7067373"></polygon>
                        <path d="M20.7084746,8.46059322 C27.1839388,8.57736333 32.4052638,13.7986883 32.5220339,20.2741525 L32.7374576,20.2741525 C32.622465,13.6783754 27.3042183,8.35859247 20.7084746,8.24169492 L20.7084746,8.46059322 Z" id="Path" fill="url(#linearGradient-12)"></path>
                        <path d="M8.43800847,20.270678 C8.55478382,13.7865799 13.7831053,8.5582584 20.2672034,8.44148305 L20.2672034,8.22432203 C13.662809,8.34027219 8.33679761,13.6662836 8.22084746,20.270678 L8.43800847,20.270678 Z" id="Path" fill="#BDD5E5"></path>
                        <path d="M20.2724153,32.5202966 C13.7969511,32.4035265 8.57562604,27.1822015 8.45885593,20.7067373 L8.24169492,20.7067373 C8.35853668,27.302117 13.6770355,32.6206159 20.2724153,32.7374576 L20.2724153,32.5202966 Z" id="Path" fill="url(#linearGradient-13)"></path>
                        <path d="M32.5220339,20.7067373 C32.4052638,27.1822015 27.1839388,32.4035265 20.7084746,32.5202966 L20.7084746,32.7374576 C27.3035565,32.6205882 32.6215406,27.3018361 32.7374576,20.7067373 L32.5220339,20.7067373 Z" id="Path" fill="#005D6C"></path>
                        <polygon id="Path" fill="url(#linearGradient-14)" points="20.0396186 8.22432203 20.0396186 20.0326695 8.23127119 20.0326695 8.23127119 20.2654661 20.0396186 20.2654661 20.2724153 20.2654661 20.2724153 20.0326695 20.2724153 8.22432203"></polygon>
                        <polygon id="Path" fill="url(#linearGradient-15)" points="20.0205085 32.6227966 20.0205085 20.9569068 8.32855932 20.9569068 8.32855932 20.7258475 20.0205085 20.7258475 20.2498305 20.7258475 20.2498305 20.9569068 20.2498305 32.6227966"></polygon>
                        <polygon id="Path" fill="url(#linearGradient-16)" points="20.9569068 32.6227966 20.9569068 20.9569068 32.6245339 20.9569068 32.6245339 20.7258475 20.9569068 20.7258475 20.7275847 20.7258475 20.7275847 20.9569068 20.7275847 32.6227966"></polygon>
                        <polygon id="Path" fill="url(#linearGradient-17)" points="20.9569068 8.32855932 20.9569068 19.9944492 32.6245339 19.9944492 32.6245339 20.2255085 20.9569068 20.2255085 20.7275847 20.2255085 20.7275847 19.9944492 20.7275847 8.32855932"></polygon>
                    </g>
                </g>
            </g>
        </g>
    </g>
</svg>