<?xml version="1.0" encoding="UTF-8"?>
<svg width="41px" height="41px" viewBox="0 0 41 41" version="1.1" xmlns="http://www.w3.org/2000/svg" xmlns:xlink="http://www.w3.org/1999/xlink">
    <!-- Generator: sketchtool 63.1 (101010) - https://sketch.com -->
    <title>F1927F42-8806-4632-B3FD-339C8288E07B</title>
    <desc>Created with sketchtool.</desc>
    <defs>
        <linearGradient x1="12.8537736%" y1="85.5177586%" x2="87.7358491%" y2="13.9276674%" id="linearGradient-1">
            <stop stop-color="#F6F6F6" offset="0%"></stop>
            <stop stop-color="#DDDDDC" offset="0%"></stop>
            <stop stop-color="#C2C3C0" offset="0%"></stop>
            <stop stop-color="#F6F6F6" offset="50%"></stop>
            <stop stop-color="#C2C3C0" offset="100%"></stop>
        </linearGradient>
        <linearGradient x1="74.6639802%" y1="98.7912735%" x2="29.1129494%" y2="0.189530293%" id="linearGradient-2">
            <stop stop-color="#F6F6F6" offset="0%"></stop>
            <stop stop-color="#DDDDDC" offset="0%"></stop>
            <stop stop-color="#C2C3C0" offset="0%"></stop>
            <stop stop-color="#F6F6F6" offset="50%"></stop>
            <stop stop-color="#C2C3C0" offset="100%"></stop>
        </linearGradient>
        <linearGradient x1="50.0122758%" y1="100%" x2="50.0122758%" y2="0%" id="linearGradient-3">
            <stop stop-color="#F6F6F6" offset="0%"></stop>
            <stop stop-color="#C2C3C0" offset="50%"></stop>
            <stop stop-color="#F6F6F6" offset="100%"></stop>
        </linearGradient>
        <radialGradient cx="51.0154498%" cy="50.2470212%" fx="51.0154498%" fy="50.2470212%" r="52.7286319%" gradientTransform="translate(0.510154,0.502470),scale(1.000000,0.932985),translate(-0.510154,-0.502470)" id="radialGradient-4">
            <stop stop-color="#C4483F" offset="0%"></stop>
            <stop stop-color="#C4483F" offset="1%"></stop>
            <stop stop-color="#C4483F" offset="58%"></stop>
            <stop stop-color="#992B27" offset="100%"></stop>
        </radialGradient>
        <linearGradient x1="50.0355872%" y1="98.8180438%" x2="50.0355872%" y2="-1.04098894%" id="linearGradient-5">
            <stop stop-color="#F6F6F6" offset="0%"></stop>
            <stop stop-color="#EFEFEF" offset="0%"></stop>
            <stop stop-color="#E4E4E7" offset="0%"></stop>
            <stop stop-color="#F6F6F6" offset="50%"></stop>
            <stop stop-color="#E4E4E7" offset="100%"></stop>
        </linearGradient>
        <linearGradient x1="49.981502%" y1="98.8180438%" x2="49.981502%" y2="-1.04098894%" id="linearGradient-6">
            <stop stop-color="#F6F6F6" offset="0%"></stop>
            <stop stop-color="#EFEFEF" offset="0%"></stop>
            <stop stop-color="#E4E4E7" offset="0%"></stop>
            <stop stop-color="#F6F6F6" offset="50%"></stop>
            <stop stop-color="#E4E4E7" offset="100%"></stop>
        </linearGradient>
        <linearGradient x1="50%" y1="98.8180438%" x2="50%" y2="-1.04098894%" id="linearGradient-7">
            <stop stop-color="#F6F6F6" offset="0%"></stop>
            <stop stop-color="#EFEFEF" offset="0%"></stop>
            <stop stop-color="#E4E4E7" offset="0%"></stop>
            <stop stop-color="#F6F6F6" offset="50%"></stop>
            <stop stop-color="#E4E4E7" offset="100%"></stop>
        </linearGradient>
        <linearGradient x1="49.9870834%" y1="82.6232699%" x2="49.9870834%" y2="20.6639273%" id="linearGradient-8">
            <stop stop-color="#F6F6F6" offset="0%"></stop>
            <stop stop-color="#EFEFEF" offset="0%"></stop>
            <stop stop-color="#E4E4E7" offset="0%"></stop>
            <stop stop-color="#F6F6F6" offset="50%"></stop>
            <stop stop-color="#E4E4E7" offset="100%"></stop>
        </linearGradient>
    </defs>
    <g id="Pages" stroke="none" stroke-width="1" fill="none" fill-rule="evenodd">
        <g id="Homepage" transform="translate(-812.000000, -863.000000)">
            <g id="Discussions" transform="translate(408.000000, 753.000000)">
                <g id="Box-Copy" transform="translate(381.000000, 90.000000)">
                    <g id="Logo" transform="translate(23.000000, 20.000000)">
                        <path d="M40.8451867,20.2448133 C40.8451867,31.4253942 31.6924896,40.4896266 20.430249,40.4896266 C9.1680083,40.4896266 0,31.4219917 0,20.2448133 C0,9.06763485 9.15099585,0 20.4149378,0 C31.6788797,0 40.8451867,9.06082988 40.8451867,20.2448133 Z" id="Path" fill="#9F9792"></path>
                        <path d="M0.224564315,20.2448133 C0.224564315,31.2450622 9.28709544,40.2174274 20.4217427,40.2174274 C31.55639,40.2174274 40.6189212,31.2416598 40.6189212,20.2448133 C40.6189212,9.19692946 31.5580913,0.224564315 20.4149378,0.224564315 C9.27178423,0.224564315 0.224564315,9.19692946 0.224564315,20.2448133 Z" id="Path" fill="url(#linearGradient-1)"></path>
                        <path d="M35.0745643,8.29526971 C30.2957676,2.70497925 20.5119087,2.92954357 20.5119087,2.92954357 L20.4676763,2.92954357 C20.4676763,2.92954357 10.6395851,2.70497925 5.86078838,8.29526971 C3.87713693,10.729751 3.2459751,14.419751 3.2459751,19.5234855 C3.56070539,24.7973444 5.04929461,29.5319087 8.29526971,33.3648133 C10.7739834,36.2943568 15.100249,37.6927801 20.4217427,37.6927801 L20.5119087,37.6927801 C25.8776349,37.6927801 30.159668,36.2943568 32.640083,33.3648133 C35.8860581,29.5319087 37.3729461,24.7990456 37.6893776,19.5234855 C37.6893776,14.426556 37.1024481,10.729751 35.0745643,8.29526971 Z" id="Path" fill="url(#linearGradient-2)"></path>
                        <path d="M20.4676763,5.31979253 L20.4676763,5.31979253 C15.1019502,5.3640249 11.4510788,6.0853527 8.61,7.61817427 L8.61,7.61817427 C6.67228216,8.74609959 6.22825726,11.5412448 6.22825726,14.516722 C6.27419087,18.9790871 8.07580913,27.956556 9.47423237,31.2416598 C10.1547303,32.8646473 10.7807884,33.3614108 11.4578838,33.7220747 L11.3983402,33.7220747 C12.8409959,34.5726971 14.0131535,34.8482988 15.0049793,35.1187967 C16.5837344,35.4811618 17.9362241,35.5253942 19.5983402,35.5253942 L21.3114938,35.5253942 C22.9804149,35.5253942 24.3329046,35.4811618 25.9048548,35.1187967 C26.8966805,34.8482988 28.0688382,34.5778008 29.5114938,33.7220747 L29.4672614,33.7220747 C30.1477593,33.3614108 30.819751,32.8714523 31.4492116,31.2416598 C32.8476349,27.8153527 34.3804564,20.8725726 34.4706224,14.2904564 C34.5352697,11.3149793 34.2630705,8.74609959 32.3236515,7.61817427 L32.3236515,7.61817427 C29.4842739,6.08705394 25.8317012,5.3640249 20.4676763,5.31979253 Z" id="Path" fill="url(#linearGradient-3)" fill-rule="nonzero"></path>
                        <path d="M20.4676763,5.81485477 C15.1938174,5.86078838 11.6314108,6.53618257 8.83626556,8.06900415 C7.43784232,8.88049793 6.71651452,10.9543154 6.71651452,14.2904564 L6.71651452,14.516722 C6.76244813,19.0692531 8.61,27.956556 9.91825726,31.0613278 L9.91825726,31.0613278 C10.5034855,32.549917 11.0904149,32.9548133 11.6756432,33.2729461 C12.7481221,33.918977 13.9220644,34.3791209 15.1478838,34.6339419 C16.6347718,34.9946058 17.9872614,35.0388382 19.610249,35.0388382 C19.610249,35.0388382 20.4217427,35.0847718 20.4608714,35.0847718 C20.5510373,35.0847718 20.7313693,35.0847718 21.3114938,35.0388382 C22.9804149,35.0388382 24.286971,34.9946058 25.7755602,34.6339419 C27.000828,34.3790636 28.1742015,33.9189171 29.2460996,33.2729461 C29.833029,32.9565145 30.4182573,32.5516183 31.0051867,31.0613278 C32.4461411,27.5448548 33.9347303,20.6480083 33.9806639,14.2904564 C33.9806639,14.1101245 34.0248963,13.9297925 34.0248963,13.7953942 C34.0248963,11.3149793 33.710166,9.01659751 32.0871784,8.06900415 C29.2920332,6.53788382 25.7313278,5.85738589 20.4557676,5.81485477 L20.4676763,5.81485477 Z" id="Path" fill="url(#radialGradient-4)" fill-rule="nonzero"></path>
                        <path d="M28.2219502,6.63485477 C28.5366805,15.7416183 28.5366805,24.8041494 28.1760166,33.9109129 C28.2219502,33.8649793 28.2661826,33.8649793 28.3121162,33.8207469 C28.6268465,24.8041494 28.6727801,15.7416183 28.3121162,6.68078838 C28.2888691,6.65473187 28.2566952,6.63834138 28.2219502,6.63485477 Z M24.0743154,6.00369295 L24.0743154,6.00369295 C24.2546473,15.6514523 24.2087137,25.2992116 24.0283817,34.946971 L24.1644813,34.946971 C24.3448133,25.2986445 24.3448133,15.6508852 24.1644813,6.00369295 L24.0743154,6.00369295 Z M24.9249378,6.09385892 L24.9249378,6.09385892 C25.1052697,15.6514523 25.0905256,25.239101 24.8807054,34.856805 C24.9303686,34.8627867 24.9801475,34.8466086 25.016805,34.8125726 C25.2436376,25.2549793 25.2436376,15.6820747 25.016805,6.09385892 L24.9249378,6.09385892 Z M26.5479253,6.32012448 L26.5479253,6.32012448 C26.8178562,15.6973859 26.803112,25.0899585 26.5036929,34.4978423 C26.5396526,34.4636682 26.5887375,34.4468924 26.6380913,34.4519087 C26.9545228,25.0746473 26.9545228,15.6973859 26.6380913,6.32012448 L26.5479253,6.32012448 Z M31.5972199,7.85124481 L31.5972199,7.85124481 C31.9136515,14.9284232 31.9578838,22.0073029 31.6873859,29.0844813 C31.7333195,28.950083 31.7775519,28.8139834 31.8234855,28.6795851 C32.0939834,21.736805 32.0480498,14.7940249 31.6873859,7.89547718 C31.6431535,7.85124481 31.6431535,7.85124481 31.5972199,7.85124481 Z M30.7465975,7.4446473 L30.7465975,7.4446473 C31.1072614,15.5153527 31.1072614,23.5843568 30.7908299,31.6550622 C30.8006016,31.5593572 30.8313902,31.4669914 30.8809959,31.3845643 C31.2416598,23.4040249 31.1974274,15.4694191 30.8367635,7.49058091 C30.7908299,7.49058091 30.7908299,7.4446473 30.7465975,7.4446473 Z M29.033444,6.85941909 L29.033444,6.85941909 C29.3941079,15.739917 29.3941079,24.6221162 29.033444,33.4583817 C29.067679,33.453234 29.099319,33.4371155 29.12361,33.4124481 C29.4842739,24.5761826 29.499018,15.739917 29.1678423,6.90365145 C29.1315897,6.87009353 29.0825407,6.8539508 29.033444,6.85941909 L29.033444,6.85941909 Z M27.3645228,6.45282158 L27.3645228,6.45282158 C27.6809544,15.6956846 27.6809544,24.9827801 27.3202905,34.2239419 C27.3645228,34.2239419 27.4104564,34.1797095 27.4546888,34.1797095 C27.7711203,24.9362794 27.7711203,15.6928492 27.4546888,6.44941909 L27.3645228,6.45282158 Z M25.7432365,6.18232365 L25.7432365,6.18232365 C25.9700692,15.6956846 25.954758,25.1931674 25.6973029,34.6747718 L25.8317012,34.6747718 C26.1021992,25.163112 26.1021992,15.6956846 25.8317012,6.18232365 L25.7432365,6.18232365 Z M32.3780913,8.30207469 L32.3780913,8.30207469 C32.6945228,14.1169295 32.7387552,19.9334855 32.6026556,25.7483402 C32.6485892,25.5680083 32.6945228,25.343444 32.7387552,25.163112 C32.8731535,19.5728216 32.7829876,13.9825311 32.5124896,8.39224066 C32.466556,8.34630705 32.4223237,8.30207469 32.3780913,8.30207469 Z M23.2628216,5.95435685 L23.2628216,5.95435685 C23.3535546,15.6469156 23.3382434,25.3394744 23.216888,35.0320332 L23.3529876,35.0320332 C23.4868188,25.3406086 23.4868188,15.6480498 23.3529876,5.95435685 L23.2628216,5.95435685 Z M33.5859751,20.2448133 L33.5859751,20.2448133 C33.5859751,16.6381743 33.4958091,13.0315353 33.3154772,9.47082988 C33.2712448,9.3806639 33.2712448,9.29049793 33.2253112,9.24456432 C33.4056432,13.1676349 33.4958091,17.1349378 33.4515768,21.1022407 C33.4958091,20.8317427 33.5417427,20.5153112 33.5859751,20.2516183 L33.5859751,20.2448133 Z M22.4070954,5.90672199 L22.4070954,5.90672199 C22.4955602,15.5992808 22.4955602,25.3218949 22.4070954,35.0745643 C22.4513278,35.0745643 22.4955602,35.0286307 22.5414938,35.0286307 C22.6316598,25.3315353 22.6316598,15.5987137 22.5414938,5.90672199 L22.4070954,5.90672199 Z M20.6480083,5.86078838 L20.6480083,5.86078838 L20.6480083,35.0745643 L20.7824066,35.0745643 L20.7824066,5.86078838 L20.6480083,5.86078838 Z M21.549668,5.86078838 L21.549668,5.86078838 C21.5939004,15.5987137 21.5939004,25.336639 21.549668,35.0745643 L21.639834,35.0745643 C21.6840664,25.336639 21.73,15.5987137 21.639834,5.86078838 L21.549668,5.86078838 Z M29.8857676,7.12311203 L29.8857676,7.12311203 C30.2464315,15.6894467 30.2464315,24.2852697 29.8857676,32.9105809 C29.8857676,32.8646473 29.9317012,32.8204149 29.9759336,32.7744813 C30.3365975,24.2546473 30.3365975,15.6888797 29.9759336,7.1673444 C29.952412,7.14191761 29.9202721,7.12615086 29.8857676,7.12311203 Z M7.03294606,18.4840249 L7.03294606,18.4840249 C7.07717842,18.7545228 7.12311203,19.0250207 7.16904564,19.2955187 C7.16904564,16.1839419 7.25751037,13.0281328 7.39360996,9.91825726 C7.34767635,10.0084232 7.30344398,10.1428216 7.25751037,10.2329876 C7.12311203,12.9839004 7.07717842,15.733112 7.03294606,18.4840249 Z M8.92643154,8.06900415 L8.92643154,8.06900415 C8.61,14.426556 8.51983402,20.8283402 8.74609959,27.2301245 C8.79033195,27.4104564 8.79033195,27.5448548 8.83626556,27.7251867 C8.65593361,21.1430705 8.70016598,14.5609544 9.01659751,7.97883817 C8.9706639,8.02477178 8.92643154,8.02477178 8.92643154,8.06900415 Z M16.5446058,6.04112033 L16.4544398,6.04112033 C16.2741079,15.6429461 16.2741079,25.2907054 16.4544398,34.8942324 C16.5003734,34.8942324 16.5446058,34.9384647 16.5905394,34.9384647 C16.3637068,25.2901383 16.3483956,15.6576902 16.5446058,6.04112033 Z M8.11493776,8.70016598 L8.11493776,8.70016598 C7.84443983,13.5691286 7.79850622,18.4380913 7.84443983,23.3529876 C7.89037344,23.5333195 7.93460581,23.7578838 7.97883817,23.9382158 C7.89037344,18.7987552 7.97883817,13.7052282 8.20510373,8.56576763 C8.15917012,8.61 8.15917012,8.65593361 8.11493776,8.70016598 L8.11493776,8.70016598 Z M19.9266805,5.86078838 L19.7905809,5.86078838 C19.7463485,15.5987137 19.7463485,25.336639 19.7905809,35.0745643 L19.9266805,35.0745643 C19.8801798,25.336639 19.8801798,15.5987137 19.9266805,5.86078838 Z M19.0760581,5.86078838 L18.9416598,5.86078838 C18.8962932,15.5987137 18.8962932,25.336639 18.9416598,35.0745643 L19.0760581,35.0745643 C18.985325,25.336639 18.985325,15.5987137 19.0760581,5.86078838 Z M18.2254357,5.90672199 L18.0893361,5.90672199 C17.998603,15.6435131 18.0139142,25.350816 18.1352697,35.0286307 L18.2254357,35.0286307 C18.1352697,25.3315353 18.0893361,15.5987137 18.2254357,5.90672199 Z M17.4139419,5.95095436 L17.2778423,5.95095436 C17.1440111,15.6435131 17.1440111,25.3213278 17.2778423,34.9843983 L17.4139419,34.9843983 C17.23361,25.3372061 17.23361,15.6593914 17.4139419,5.95095436 Z M14.8773859,6.22145228 L14.7412863,6.22145228 C14.4707884,15.6888797 14.4707884,25.1052697 14.7872199,34.5778008 L14.8773859,34.5778008 C14.6063209,25.1563071 14.6063209,15.7041909 14.8773859,6.22145228 Z M13.2543983,6.53618257 L13.1182988,6.53618257 C12.8035685,15.6888797 12.8035685,24.8858091 13.1642324,34.036805 C13.2084647,34.0827386 13.2084647,34.0827386 13.2543983,34.0827386 C12.9379668,24.8858091 12.9379668,15.7036238 13.2543983,6.53618257 Z M14.0658921,6.35585062 L13.9297925,6.35585062 C13.6598617,15.6888797 13.6751729,25.0213416 13.9757261,34.3532365 L14.0658921,34.3532365 C13.7494606,25.0202075 13.7494606,15.6877455 14.0658921,6.35585062 Z M15.733112,6.12448133 L15.5987137,6.12448133 C15.3724481,15.6820747 15.3724481,25.1954357 15.6429461,34.7513278 C15.6777879,34.7544814 15.7100774,34.7709307 15.733112,34.7972614 C15.5062794,25.239668 15.5062794,15.6820747 15.733112,6.12448133 Z M10.5477178,7.30344398 L10.5477178,7.30344398 C10.1881881,15.6429461 10.1881881,23.9830152 10.5477178,32.3236515 L10.6821162,32.459751 C10.3214523,24.0743154 10.3214523,15.6429461 10.6821162,7.25751037 C10.6378838,7.25751037 10.5919502,7.30344398 10.5477178,7.30344398 Z M12.3510373,6.71651452 L12.3510373,6.71651452 C12.3267463,6.74118194 12.2951064,6.75730042 12.2608714,6.76244813 C11.9087137,15.733112 11.9087137,24.7054772 12.2625726,33.6319087 C12.306805,33.6761411 12.3527386,33.6761411 12.3986722,33.7220747 C12.0363071,24.7054772 12.0363071,15.733112 12.3527386,6.71651452 L12.3510373,6.71651452 Z M9.73792531,7.66410788 L9.73792531,7.66410788 C9.37726141,15.1921162 9.3313278,22.8051867 9.64775934,30.34 C9.68495171,30.4629206 9.7298398,30.5833797 9.78215768,30.7006639 C9.46742739,22.9923237 9.51165975,15.2822822 9.82809129,7.57394191 C9.82809129,7.61817427 9.78215768,7.61817427 9.73792531,7.66410788 L9.73792531,7.66410788 Z M11.4953112,6.98360996 L11.3983402,6.98360996 C11.0376763,15.7302766 11.0376763,24.4463209 11.3983402,33.1317427 C11.4442739,33.1776763 11.4885062,33.2219087 11.5344398,33.2219087 C11.1346473,24.4792116 11.1346473,15.733112 11.4953112,6.98701245 L11.4953112,6.98360996 Z" id="Shape" fill="#992B27" fill-rule="nonzero"></path>
                        <polygon id="Path" fill="#444B4A" points="18.3938589 12.6674689 18.3938589 28.3121162 16.5003734 28.3121162 16.0495436 12.6674689"></polygon>
                        <polygon id="Path" fill="#444B4A" fill-rule="nonzero" points="15.3282158 14.516722 15.3282158 12.6674689 10.729751 12.6674689 11.2248133 28.3121162 13.1182988 28.3121162 13.1182988 21.2349378 14.8314523 21.2349378 14.8314523 19.2955187 13.0740664 19.2955187 13.0740664 14.516722"></polygon>
                        <polygon id="Path" fill="#444B4A" points="31.5580913 12.6674689 25.8776349 12.6674689 25.8776349 14.516722 27.5006224 14.516722 27.5006224 28.3121162 29.4383402 28.3121162 29.8891701 14.516722 31.5580913 14.516722"></polygon>
                        <path d="M24.2546473,12.6674689 L22.7660581,12.6674689 L22.7660581,14.606888 L22.94639,14.606888 C23.2628216,15.4575104 23.6677178,16.9512033 23.9382158,19.2955187 L22.7660581,19.2955187 L22.7660581,21.2791701 L24.1270539,21.2791701 C24.2166528,22.4507607 24.2620194,23.8032503 24.2631535,25.336639 L24.2631535,28.3563485 L26.1481328,28.3563485 C26.1923651,27.5448548 26.1923651,26.733361 26.1923651,25.9218672 L26.1923651,24.6153112 C26.1021992,15.4183817 24.2546473,12.6674689 24.2546473,12.6674689 Z M22.7660581,12.6674689 L19.6561826,12.6674689 L19.8807469,28.3189212 L21.820166,28.3189212 C21.7742324,26.740166 21.73,23.9450207 21.73,21.2859751 L22.7660581,21.2859751 L22.7660581,19.2955187 L21.6840664,19.2955187 C21.639834,16.9512033 21.639834,14.9675519 21.639834,14.606888 L22.7660581,14.606888 L22.7660581,12.6674689 Z" id="Shape" fill="#444B4A"></path>
                        <polygon id="Path" fill="url(#linearGradient-5)" points="18.3036929 12.5330705 18.3036929 28.2219502 16.3642739 28.2219502 15.913444 12.5330705"></polygon>
                        <polygon id="Path" fill="url(#linearGradient-6)" fill-rule="nonzero" points="15.2380498 14.426556 15.2380498 12.5330705 10.6395851 12.5330705 11.0904149 28.2219502 12.9839004 28.2219502 12.9839004 21.0988382 14.6970539 21.0988382 14.6970539 19.1594191 12.9839004 19.1594191 12.9839004 14.426556"></polygon>
                        <polygon id="Path" fill="url(#linearGradient-7)" points="31.4219917 12.5330705 25.7874689 12.5330705 25.7874689 14.3806224 27.4104564 14.3806224 27.4104564 28.2219502 29.3039419 28.2219502 29.7547718 14.3806224 31.4219917 14.3806224"></polygon>
                        <path d="M24.1185477,12.5330705 L22.6758921,12.5330705 L22.6758921,14.4707884 L22.8562241,14.4707884 C23.3272252,16.0139221 23.6446309,17.5998112 23.8038174,19.2053527 L22.6758921,19.2053527 L22.6758921,21.1430705 L23.9875519,21.1430705 C24.0771508,22.3146611 24.1219502,23.6677178 24.1219502,25.2022407 L24.1219502,28.2219502 C25.2039419,28.2661826 26.0171369,28.2661826 26.0171369,28.2661826 C26.0613693,27.4155602 26.1056017,26.5989627 26.1056017,25.8334025 L26.1056017,24.5251452 C26.0137344,15.3282158 24.1185477,12.5330705 24.1185477,12.5330705 Z M22.6758921,12.5330705 L19.520083,12.5330705 L19.7463485,28.1845228 C19.7463485,28.1845228 20.596971,28.1845228 21.6840664,28.2304564 C21.6840664,26.6517012 21.639834,23.8072199 21.5939004,21.1515768 L22.6758921,21.1515768 L22.6758921,19.2053527 L21.5939004,19.2053527 C21.549668,16.82361 21.5037344,14.8773859 21.5037344,14.4707884 L22.6758921,14.4707884 L22.6758921,12.5330705 Z" id="Shape" fill="url(#linearGradient-8)"></path>
                    </g>
                </g>
            </g>
        </g>
    </g>
</svg>