<?xml version="1.0" encoding="UTF-8"?>
<svg width="222" height="55" viewBox="0 0 222 55" version="1.1" xmlns="http://www.w3.org/2000/svg" xmlns:xlink="http://www.w3.org/1999/xlink">
    <!-- Generator: sketchtool 63.1 (101010) - https://sketch.com -->
    <title>831923DC-EB14-44DA-8021-4461F907CB37</title>
    <desc>Created with sketchtool.</desc>
    <defs>
        <polygon id="path-1" points="0 0.401967785 108.619624 0.401967785 108.619624 31.9958867 0 31.9958867"></polygon>
        <polygon id="path-3" points="0.114614943 0.0935632184 116.222316 0.0935632184 116.222316 30.8531517 0.114614943 30.8531517"></polygon>
    </defs>
    <g id="Symbols" stroke="none" stroke-width="1" fill="none" fill-rule="evenodd">
        <g id="header" transform="translate(-270.000000, -91.000000)">
            <g id="Logo">
                <g transform="translate(270.000000, 91.000000)">
                    <g>
                        <g id="Group-3" transform="translate(0.000000, 22.021379)">
                            <mask id="mask-2" fill="white">
                                <use xlink:href="#path-1"></use>
                            </mask>
                            <g id="Clip-2"></g>
                            <path d="M15.3328425,18.2706 L15.9656701,19.5707034 L39.1842333,20.9801057 C38.5394977,17.6837034 38.6130724,15.3059218 39.3105437,11.3673356 L36.7953943,14.8457609 L15.4480954,16.932646 L35.1414517,17.2856345 L34.2483483,18.8158184 L15.3328425,18.2706 Z M12.4749115,13.0042667 L10.8175667,5.14112874 L15.0100494,13.876531 L39.6690609,9.37784138 C40.2657391,7.18250805 41.1686241,5.40608276 42.2718195,4.05749655 C42.6822218,3.5007954 43.1215437,3.00703678 43.5846816,2.57707126 C44.9592103,1.3012092 46.5404287,0.580772414 48.193946,0.431071264 C49.8432103,0.28222069 51.5511644,0.70368046 53.1825667,1.71076092 C53.4300839,1.86386437 53.6759,2.03015172 53.9195897,2.21004828 C56.9591184,4.84938161 58.8316586,9.38804828 59.5363598,15.8260483 L67.6108655,20.7755425 L108.619624,19.673623 L62.5639805,27.828508 C62.3015782,27.8748644 62.1990839,28.1640598 62.0982908,28.3350253 C60.2057621,31.556577 58.4824977,31.6786345 55.0912563,31.8921287 C48.005969,32.3378299 45.6298885,31.3877379 43.7122678,28.2610253 L15.0104747,21.7286115 C10.1047851,23.644531 3.59448621,21.495554 1.13504943,16.7293586 C-1.61485862,11.4000828 0.616624138,2.71486437 7.99238276,2.14753103 C9.26781954,4.10172644 11.168854,9.32468046 12.4749115,13.0042667 L12.4749115,13.0042667 Z M12.3941069,7.17868046 C12.3907046,7.29265747 12.3847506,7.3994046 12.3770954,7.49977241 C12.3783713,7.39004828 12.3847506,7.28330115 12.3941069,7.17868046 L12.3941069,7.17868046 Z M50.9957391,5.52814023 C51.760831,6.21625517 52.3860034,7.11531264 52.8818885,8.05732414 L52.4740379,10.565669 C52.4357621,10.8021287 52.2890379,10.987554 52.0678885,11.0789908 C51.8463138,11.1708529 51.6115552,11.1436345 51.4171989,11.0032897 L47.752923,8.36310575 C47.7040149,8.3278069 47.6517046,8.29973793 47.5972678,8.27889885 C48.2568885,7.07405977 49.2822563,5.83774943 50.6512563,5.57322069 C50.7665092,5.55068046 50.8830379,5.5357954 50.9957391,5.52814023 L50.9957391,5.52814023 Z M55.4510494,15.8983471 L55.4510494,15.9017494 L55.4514747,15.9051517 L55.4514747,15.908554 L55.4514747,15.9123816 L55.4514747,15.9153586 L55.4514747,15.9187609 L55.4514747,15.9225885 L55.4519,15.9255655 C55.4544517,16.0216805 55.4565782,16.1177954 55.4574287,16.2130598 L55.457854,16.2164621 L55.457854,16.2194391 L55.457854,16.2228414 L55.457854,16.2253931 L55.4510494,15.8983471 Z M55.4408425,15.5955425 L55.4404172,15.5921402 C55.4361644,15.4904966 55.4314862,15.3897034 55.4255322,15.2884851 L55.4255322,15.282531 L55.4255322,15.2816805 L55.4251069,15.2748759 C55.4195782,15.1753586 55.4136241,15.0762667 55.4063943,14.9776 L55.4063943,14.974623 L55.4063943,14.9712207 L55.4408425,15.5955425 Z M55.3553598,14.3664621 L55.3549345,14.3609333 L55.3553598,14.3664621 C54.7693138,8.33801379 51.7842218,3.67516322 48.3202563,3.67516322 C44.5653943,3.67516322 41.6704632,9.15371494 41.8546126,15.9123816 C42.0379115,22.670623 45.230969,28.1496 48.9854057,28.1496 C52.6786011,28.1496 55.5399345,22.8492437 55.457854,16.244531 L55.457854,16.241554 L55.457854,16.2381517 L55.457854,16.2351747 L55.3553598,14.3664621 Z M54.4082448,12.5823816 C54.6191874,13.6911057 54.7344402,14.8198184 54.7646356,15.9310943 C54.7850494,16.6689678 54.7680379,17.4174736 54.7093483,18.1647034 C54.4414172,18.2472092 54.1569,18.2914391 53.8621759,18.2914391 C52.2711759,18.2914391 50.9817046,17.0019678 50.9817046,15.4109678 C50.9817046,13.8203931 52.2711759,12.5304966 53.8621759,12.5304966 C54.048877,12.5304966 54.2313253,12.5483586 54.4082448,12.5823816 L54.4082448,12.5823816 Z M53.1136701,24.1952782 C52.7241069,24.9433586 52.2452333,25.6484851 51.6668425,26.219646 C50.0146011,26.154577 48.7187506,24.6524621 47.9481299,23.3302437 C47.8031069,23.0814506 47.6674402,22.824577 47.539854,22.5617494 C47.6147046,22.5409103 47.6870034,22.5064621 47.7533483,22.4588299 L51.4171989,19.818646 C51.6115552,19.6783011 51.8463138,19.6510828 52.0678885,19.7425195 C52.2894632,19.8348069 52.4361874,20.0193816 52.4740379,20.2562667 L53.1136701,24.1952782 Z M46.9988885,21.2637724 C46.4332563,19.6783011 46.1355552,17.9537609 46.0513483,16.3172552 L49.016877,16.7991057 C49.2537621,16.8373816 49.4383368,16.9836805 49.5301989,17.2052552 C49.6220609,17.4268299 49.5948425,17.6611632 49.4544977,17.8559448 L46.9988885,21.2637724 Z M46.0436931,14.505531 C46.1155667,12.8362782 46.4111414,11.1147149 47.0056931,9.56751954 L49.4544977,12.9659908 C49.5948425,13.1603471 49.6220609,13.3951057 49.5301989,13.6166805 C49.4383368,13.8382552 49.2533368,13.984554 49.016877,14.0232552 L46.0436931,14.505531 Z M9.9891069,19.9726 C11.5716011,19.9726 13.0511759,19.5303011 14.3104517,18.763508 C13.4160724,19.155623 12.4281299,19.3729448 11.3891529,19.3729448 C11.2615667,19.3729448 11.134831,19.3695425 11.0093713,19.3631632 L11.0136241,19.3631632 L11.6417736,16.0480483 C11.6723943,15.8872897 11.7693598,15.7614046 11.914808,15.6920828 L11.6745207,14.7781402 L11.4873943,14.0662092 C11.1952218,14.2218644 10.8613713,14.3098989 10.5066816,14.3098989 C9.35117586,14.3098989 8.41384253,13.3729908 8.41384253,12.2174851 C8.41384253,11.2503816 9.07006092,10.4372322 9.96061264,10.1969448 C9.75860115,9.6763931 9.56807241,9.05292184 9.3732908,8.37926667 L9.37158966,8.38649655 C9.3396931,8.55661149 9.23252069,8.68845057 9.07261264,8.7547954 C8.91227931,8.82071494 8.74386552,8.80327816 8.60054368,8.70588736 L6.14323333,7.03153103 C6.80455517,6.34511724 7.59984253,5.7879908 8.48656667,5.40225517 C8.26881954,4.74858851 8.03661264,4.13617471 7.78526782,3.6288069 C4.26006092,4.59505977 1.66963563,7.82171494 1.66963563,11.6531287 C1.66963563,16.2479333 5.3943023,19.9726 9.9891069,19.9726 L9.9891069,19.9726 Z M9.97592299,19.235577 C8.5592908,18.9570138 7.29065862,18.2680483 6.29761264,17.2979678 L8.60054368,15.7290828 C8.74386552,15.6312667 8.91227931,15.6138299 9.07261264,15.6801747 C9.23252069,15.7465195 9.3396931,15.8783586 9.37158966,16.0480483 L9.97592299,19.235577 Z M6.28357816,17.2843586 C6.16704943,17.1699563 6.05477356,17.0513011 5.9459,16.929669 C6.05477356,17.0513011 6.16704943,17.1699563 6.28357816,17.2843586 L6.28357816,17.2843586 Z M5.93271609,16.9147839 C5.90252069,16.8803356 5.87275057,16.8458874 5.84298046,16.8110138 C5.87275057,16.8458874 5.90252069,16.8803356 5.93271609,16.9147839 L5.93271609,16.9147839 Z M5.8047046,16.7663586 C5.78003793,16.7365885 5.75537126,16.7068184 5.7307046,16.676623 C5.75537126,16.7068184 5.78003793,16.7365885 5.8047046,16.7663586 L5.8047046,16.7663586 Z M5.69285402,16.6298414 C5.66861264,16.5992207 5.64437126,16.5686 5.62055517,16.5371287 C5.64437126,16.5686 5.66861264,16.5992207 5.69285402,16.6298414 L5.69285402,16.6298414 Z M5.58483103,16.4903471 C5.56186552,16.4610023 5.53932529,16.4308069 5.51721034,16.4006115 C5.53932529,16.4308069 5.56186552,16.4610023 5.58483103,16.4903471 L5.58483103,16.4903471 Z M5.47935977,16.3483011 C4.75807241,15.3501517 4.28387701,14.1618989 4.14565862,12.8728529 L6.67611839,13.352577 C6.84623333,13.3848989 6.97764713,13.491646 7.04399195,13.6519793 C7.11033678,13.8118874 7.0929,13.9803011 6.9955092,14.123623 L5.47935977,16.3483011 Z M4.12226782,11.5663701 C4.21625632,10.2305425 4.67088851,8.9938069 5.38919885,7.95355402 L6.9955092,10.3109218 C7.0929,10.4542437 7.11033678,10.6230828 7.04399195,10.7829908 C6.97764713,10.9433241 6.84623333,11.0500713 6.67611839,11.0823931 L4.12226782,11.5663701 Z M55.4510494,15.9017494 L55.4510494,15.8983471 C55.4484977,15.7992552 55.4450954,15.7010138 55.4408425,15.6023471 L55.4510494,15.9017494 Z M55.405969,14.9712207 L55.405969,14.9707954 L55.405969,14.9678184 L55.4055437,14.9648414 L55.4055437,14.9614391 L55.4051184,14.9584621 L55.4051184,14.9550598 C55.3915092,14.7628299 55.3753483,14.5723011 55.3570609,14.382623 L55.3570609,14.3800713 L55.3566356,14.3775195 L55.3566356,14.3745425 L55.3562103,14.3719908 L55.3557851,14.3694391 L55.3553598,14.3664621 L55.405969,14.9712207 Z" id="Fill-1" fill="#1A1A1A" mask="url(#mask-2)"></path>
                        </g>
                        <polygon id="Fill-4" fill="#EF4F4F" points="221.800923 41.4922253 121.715072 41.6844552 63.3784057 54.3431333 217.549751 54.3431333"></polygon>
                        <g id="Group-8" transform="translate(2.977011, 0.331724)">
                            <mask id="mask-4" fill="white">
                                <use xlink:href="#path-3"></use>
                            </mask>
                            <g id="Clip-7"></g>
                            <path d="M56.7611897,14.9303931 L71.545454,12.0733126 L72.8736264,12.6836 L69.4628218,14.0002897 L69.4445345,21.7464736 L56.4077759,29.3059563 L70.8530862,23.3893586 L71.4803851,23.1324851 L71.4888908,22.4516 L71.5203621,19.9126345 C77.4871437,19.8020598 83.1196494,19.7323126 89.0872816,19.6787264 L92.1718908,15.6533816 L110.288282,15.9149333 L113.477086,19.4626805 L116.096856,19.4741632 C115.575454,17.6947609 115.092753,15.7035655 115.06596,14.5867609 C115.040868,13.5392782 115.225017,12.8230943 115.617557,12.4394851 L116.222316,11.8474851 C111.214983,8.50302529 99.6701322,7.03535862 93.637431,7.26076092 C87.868408,4.15616322 80.6436264,2.05949655 71.9626609,0.973312644 C63.2472471,-0.117549425 53.0518333,-0.194101149 41.3764195,0.744508046 L41.3440977,0.750036782 C37.7180977,1.21189885 34.0933736,2.46266897 30.4707759,4.50234713 C27.1446034,6.37488736 23.815454,8.91470345 20.4833276,12.1209448 L20.4760977,12.1115885 C20.1911552,11.7534966 19.7760747,11.5544621 19.230431,11.5153356 L19.2278793,11.5153356 L19.2197989,11.5144851 L19.2087414,11.5144851 C18.956546,11.5008759 18.7039253,11.4940713 18.4508793,11.4940713 C17.1618333,11.4949218 16.1641092,11.7041632 15.4577069,12.1205195 C14.6471092,12.5989678 14.2154425,13.3151517 14.1639828,14.268646 C14.1597299,14.3524276 14.1571782,14.4140943 14.1571782,14.4532207 L14.1571782,14.4761862 L14.1652586,14.5391287 C14.3115575,15.6661402 14.8189253,16.3848759 15.6882126,16.6953356 C14.8797414,17.0389678 13.4295115,17.2898874 11.7547299,17.5790828 C7.48484483,18.316531 1.96121264,19.2721517 0.114614943,23.6160368 C2.40733908,22.3397494 4.36323563,21.9119103 5.87640805,22.4528759 C6.39781034,22.5553701 6.86987931,22.8424391 7.29304023,23.314508 C7.40021264,23.4510253 7.50738506,23.595623 7.61498276,23.7483011 C7.77616667,23.956692 7.92714368,24.1859218 8.06663793,24.4381172 C8.48256897,25.1164506 8.9019023,25.917692 9.32463793,26.8435425 C9.08775287,24.5312552 8.41622414,21.6558874 7.30962644,20.576508 L40.6274885,18.1948989 L33.8029023,26.9128644 L14.7717184,30.8531517 L35.6473736,29.2383356 C36.417569,27.8854966 44.0034195,8.74884138 63.4518103,21.4334621 C61.9369368,18.9076805 60.100546,16.3823241 56.7611897,14.9303931 L56.7611897,14.9303931 Z M71.3608793,8.42902529 L61.2990057,3.04743908 C73.4715805,2.97556552 78.0259828,1.43602529 90.8169253,7.37984138 L71.3608793,8.42902529 Z M45.9465575,2.43502529 C50.298523,3.2349908 53.9198448,5.8824046 53.6838103,11.1734046 C50.2117644,11.7798644 44.4002126,12.7074161 36.2500057,13.9556345 L41.8170172,4.38751954 C48.0751207,3.35917471 51.6564655,9.12777241 49.9353276,9.6091977 L38.4640517,12.8179908 L52.4190057,10.6711402 C50.9096609,-2.50511264 30.5141552,2.8347954 23.3982471,13.093577 C28.4468333,8.40308276 34.231592,5.34909425 39.3159023,4.57932414 C36.1619713,9.48756552 34.3077184,12.4658529 33.2632126,14.3009678 C28.8895575,14.9661172 25.0139138,15.6618874 19.4626379,16.4890713 C20.1282126,15.686554 20.8120747,14.8861632 21.5163506,14.1002322 C21.5172011,14.0993816 21.5180517,14.0981057 21.5193276,14.0968299 C27.4031782,6.93371494 33.7420862,3.00661149 40.5352011,2.31509425 C42.3197069,2.09011724 44.1901207,2.11223218 45.9427299,2.43417471 L45.9465575,2.43502529 Z M77.3004425,12.3727149 C88.1499483,8.81646207 103.053293,7.52146207 113.40904,12.1702782 L110.512408,14.2074046 L92.0545115,13.950531 L90.5200747,12.3365655 L77.3004425,12.3727149 Z M112.125523,15.393531 L113.701213,14.7441172 C113.731833,15.5670483 113.872603,16.5243701 114.122672,17.6156575 L112.125523,15.393531 Z M76.2563621,14.3898529 L89.931477,14.3549793 L90.0892586,14.5382782 L87.2028333,17.9103816 L72.9918563,18.0286115 L72.8868103,15.8081862 L76.2563621,14.3898529 Z" id="Fill-6" fill="#EF4F4F" mask="url(#mask-4)"></path>
                        </g>
                        <polygon id="Fill-9" fill="#000000" points="87.764808 38.1439379 89.6573368 29.2039724 84.1974977 38.1439379 81.6087736 38.1439379 79.846808 29.2039724 77.9547046 38.1439379 75.2137276 38.1439379 78.3242793 23.4179379 81.8915897 23.4179379 83.805808 33.6631103 90.1574747 23.4179379 93.5942218 23.4179379 90.4836701 38.1439379"></polygon>
                        <path d="M104.143985,27.137331 C104.158445,27.0650322 104.169077,26.9995379 104.176732,26.9416989 C104.183537,26.8838598 104.187364,26.8328253 104.187364,26.789446 C104.187364,26.4560207 103.933468,26.2888828 103.4261,26.2888828 L99.3152724,26.2888828 C99.0248011,26.2888828 98.8181115,26.3471471 98.6947782,26.4632506 C98.5714448,26.579354 98.4736287,26.8039057 98.4013299,27.137331 L96.8349966,34.4680092 C96.806077,34.6130322 96.7916172,34.7070207 96.7916172,34.7504 C96.7916172,35.055331 97.0017092,35.2075839 97.4227437,35.2075839 L101.533571,35.2075839 C101.881882,35.2075839 102.128123,35.1497448 102.273571,35.0332161 C102.418169,34.9175379 102.519813,34.7287103 102.577652,34.4680092 L104.143985,27.137331 Z M95.2907782,38.1437678 C94.5512034,38.1437678 94.0183184,38.0136299 93.692123,37.7525034 C93.3659276,37.491377 93.2026172,37.0928828 93.2026172,36.5557448 C93.2026172,36.2810092 93.2459966,35.9543885 93.3331805,35.5771586 L95.3558471,25.9848023 C95.5442494,25.1146644 95.8636402,24.4695034 96.313169,24.048469 C96.7626977,23.6282851 97.4584678,23.4177678 98.4013299,23.4177678 L105.732008,23.4177678 C106.471583,23.4177678 107.00064,23.548331 107.319606,23.8094575 C107.638571,24.0705839 107.798479,24.4767333 107.798479,25.0274805 C107.798479,25.1725034 107.787422,25.3247563 107.765732,25.4842391 C107.744043,25.6441471 107.718525,25.8104345 107.689606,25.9848023 L105.666514,35.5771586 C105.478111,36.4472966 105.155318,37.0928828 104.69856,37.5130667 C104.241801,37.9341011 103.549433,38.1437678 102.621031,38.1437678 L95.2907782,38.1437678 Z" id="Fill-11" fill="#000000"></path>
                        <path d="M106.819468,38.1439379 L107.450169,35.1639494 L113.388456,35.1639494 C113.721882,35.1639494 113.943031,35.1095126 114.051905,35.0006391 C114.160778,34.8921908 114.251364,34.6855011 114.324089,34.3809954 L116.042249,26.2890529 L113.47564,26.2890529 L114.084652,23.4179379 L119.95787,23.4179379 L117.390836,35.5773287 C117.202433,36.4474667 116.883468,37.0926276 116.433939,37.5132368 C115.983985,37.933846 115.295445,38.1439379 114.367468,38.1439379 L106.819468,38.1439379 Z" id="Fill-13" fill="#000000"></path>
                        <path d="M127.157687,26.3760667 L123.590377,33.4239287 L127.614446,33.4239287 L127.157687,26.3760667 Z M127.875572,38.1437678 L127.72332,35.8599747 L122.415733,35.8599747 L121.284469,38.1437678 L118.087159,38.1437678 L125.743607,23.4177678 L130.072607,23.4177678 L131.203446,38.1437678 L127.875572,38.1437678 Z" id="Fill-15" fill="#000000"></path>
                        <path d="M141.186982,38.1439379 C140.447407,38.1439379 139.914522,38.0133747 139.588326,37.7526736 C139.262131,37.4915471 139.098821,37.0926276 139.098821,36.5559149 C139.098821,36.280754 139.1422,35.9545586 139.229384,35.5773287 L141.252051,25.9845471 C141.440453,25.1144092 141.759844,24.4692483 142.209372,24.0486391 C142.658476,23.6280299 143.354671,23.4179379 144.297533,23.4179379 L153.389752,23.4179379 L152.78074,26.3541218 L145.124292,26.3541218 C144.833821,26.3541218 144.634786,26.4051563 144.525913,26.5068 C144.417039,26.6080184 144.326453,26.8257655 144.254154,27.1591908 L142.666131,34.6633862 C142.636786,34.8088345 142.622752,34.902823 142.622752,34.9462023 C142.622752,35.0916506 142.666131,35.1894667 142.753315,35.2400759 C142.840074,35.2911103 142.992326,35.3162023 143.210074,35.3162023 L147.929913,35.3162023 L148.647798,31.9662138 L145.733303,31.9662138 L146.233441,29.5952368 L152.236798,29.5952368 L150.431453,38.1439379 L141.186982,38.1439379 Z" id="Fill-17" fill="#000000"></path>
                        <path d="M161.024723,26.3760667 L157.457413,33.4239287 L161.481482,33.4239287 L161.024723,26.3760667 Z M161.742608,38.1437678 L161.590355,35.8599747 L156.282769,35.8599747 L155.151505,38.1437678 L151.954194,38.1437678 L159.610643,23.4177678 L163.939643,23.4177678 L165.070482,38.1437678 L161.742608,38.1437678 Z" id="Fill-19" fill="#000000"></path>
                        <path d="M175.424272,38.1439379 L176.424974,33.3369149 C176.439008,33.2641908 176.450066,33.2029494 176.457295,33.1519149 C176.464525,33.1013057 176.468353,33.0540989 176.468353,33.0102943 C176.468353,32.7785126 176.265066,32.6624092 175.859341,32.6624092 L171.095698,32.6624092 L169.942744,38.1439379 L166.636134,38.1439379 L168.920353,27.3765126 L172.226537,27.3765126 L171.617525,30.2263632 L176.141732,30.2263632 C176.460698,30.2263632 176.675043,30.175754 176.783491,30.0736851 C176.892364,29.972892 176.982951,29.7696046 177.055675,29.4646736 L177.577502,27.0720069 C177.591962,26.999708 177.60302,26.9346391 177.610249,26.8763747 C177.617479,26.8185356 177.621307,26.7675011 177.621307,26.7241218 C177.621307,26.5501793 177.570272,26.4340759 177.469054,26.3762368 C177.36741,26.3183977 177.193468,26.2890529 176.946801,26.2890529 L169.137675,26.2890529 L169.746686,23.4179379 L179.100456,23.4179379 C179.854066,23.4179379 180.398008,23.5519034 180.731433,23.8202598 C181.065284,24.0886161 181.231997,24.4981678 181.231997,25.0489149 C181.231997,25.1799034 181.220939,25.3176966 181.199249,25.4627195 C181.17756,25.6073172 181.152043,25.7599954 181.123123,25.9190529 L180.448617,29.1167885 C180.289134,29.870823 179.999089,30.4041333 179.578905,30.7154437 C179.15787,31.0276046 178.693882,31.2126046 178.186939,31.2700184 C178.650502,31.2993632 179.042192,31.4044092 179.361157,31.5855816 C179.680123,31.7671793 179.840031,32.0899724 179.840031,32.5535356 L179.840031,32.7819149 C179.840031,32.861869 179.825146,32.9452253 179.796226,33.0319839 L178.730456,38.1439379 L175.424272,38.1439379 Z" id="Fill-21" fill="#000000"></path>
                        <path d="M189.280134,26.3760667 L185.712824,33.4239287 L189.736893,33.4239287 L189.280134,26.3760667 Z M189.99802,38.1437678 L189.845767,35.8599747 L184.53818,35.8599747 L183.406916,38.1437678 L180.209606,38.1437678 L187.866054,23.4177678 L192.195054,23.4177678 L193.325893,38.1437678 L189.99802,38.1437678 Z" id="Fill-23" fill="#000000"></path>
                        <polygon id="Fill-25" fill="#000000" points="194.761536 38.1439379 195.327168 35.4684552 204.245444 26.3107425 197.415329 26.3107425 198.02434 23.4179379 208.835145 23.4179379 208.312892 25.9628575 199.525179 35.2073287 206.333605 35.2073287 205.724593 38.1439379"></polygon>
                        <path d="M216.208649,26.3760667 L212.641339,33.4239287 L216.665408,33.4239287 L216.208649,26.3760667 Z M216.926534,38.1437678 L216.774282,35.8599747 L211.466695,35.8599747 L210.335431,38.1437678 L207.138121,38.1437678 L214.794569,23.4177678 L219.123569,23.4177678 L220.254408,38.1437678 L216.926534,38.1437678 Z" id="Fill-27" fill="#000000"></path>
                        <path d="M117.529947,50.8832506 L117.761303,49.7911126 L120.748097,49.7911126 C120.847614,49.7911126 120.920338,49.7719747 120.967545,49.7332736 C121.014326,49.6949977 121.048775,49.6231241 121.07089,49.5180782 L121.236326,48.7402276 C121.241855,48.7185379 121.244407,48.6879172 121.244407,48.6496414 C121.244407,48.5501241 121.172533,48.5003655 121.029637,48.5003655 L118.820694,48.5003655 C118.594016,48.5003655 118.43028,48.452308 118.328211,48.3557678 C118.226143,48.2592276 118.175108,48.1227103 118.175108,47.9462161 C118.175108,47.8798713 118.183614,47.7999172 118.2002,47.706354 L118.505982,46.2582506 C118.577855,45.9278023 118.699062,45.6824115 118.870028,45.5225034 C119.040993,45.3625954 119.308499,45.2822161 119.672545,45.2822161 L123.155648,45.2822161 L122.932372,46.3496874 L119.962166,46.3496874 C119.874131,46.3496874 119.810338,46.3688253 119.771637,46.4075264 C119.733361,46.4462276 119.70274,46.5151241 119.681051,46.6142161 L119.523694,47.3503885 C119.518166,47.3729287 119.513913,47.3920667 119.511361,47.4086529 C119.508384,47.4252391 119.507108,47.4418253 119.507108,47.4579862 C119.507108,47.5409172 119.567924,47.5821701 119.689131,47.5821701 L121.931246,47.5821701 C122.163028,47.5821701 122.32974,47.6319287 122.431809,47.7310207 C122.533878,47.8305379 122.584913,47.968331 122.584913,48.1448253 C122.584913,48.2162736 122.576407,48.2936759 122.559821,48.3761816 L122.237453,49.9072161 C122.165579,50.2376644 122.044372,50.4834805 121.873407,50.6433885 C121.702441,50.8032966 121.437487,50.8832506 121.07897,50.8832506 L117.529947,50.8832506 Z" id="Fill-29" fill="#FFFFFF"></path>
                        <path d="M124.512485,50.8832506 C124.275175,50.8832506 124.105485,50.8432736 124.003416,50.7633195 C123.901347,50.6833655 123.850313,50.5579057 123.850313,50.3869402 C123.850313,50.3095379 123.864347,50.2019402 123.891991,50.0641471 L124.429554,47.5162506 C124.49037,47.2347103 124.591163,47.0280207 124.731508,46.8957563 C124.872278,46.7630667 125.094278,46.6971471 125.397933,46.6971471 L128.226945,46.6971471 C128.436611,46.6971471 128.587163,46.7371241 128.677749,46.8170782 C128.768761,46.8970322 128.814267,47.0169632 128.814267,47.1768713 C128.814267,47.2763885 128.803209,47.3780322 128.78152,47.4830782 L128.43406,49.1293655 L125.645876,49.1293655 L125.786646,48.434446 L127.474186,48.434446 L127.59837,47.8717908 C127.603899,47.8441471 127.606451,47.808423 127.606451,47.7641931 C127.606451,47.7203885 127.594117,47.6897678 127.569451,47.6731816 C127.544359,47.6565954 127.498853,47.6485149 127.432933,47.6485149 L125.77006,47.6485149 C125.676071,47.6485149 125.612703,47.6638253 125.579531,47.6940207 C125.546784,47.7242161 125.518715,47.786308 125.497025,47.8798713 L125.107887,49.6835149 C125.102359,49.7111586 125.098106,49.7345494 125.095554,49.7541126 C125.093002,49.7732506 125.091301,49.7911126 125.091301,49.8076989 C125.091301,49.8574575 125.105336,49.8906299 125.132979,49.9072161 C125.160198,49.9238023 125.209956,49.9318828 125.28183,49.9318828 L128.102761,49.9318828 L127.904577,50.8832506 L124.512485,50.8832506 Z" id="Fill-31" fill="#FFFFFF"></path>
                        <polygon id="Fill-33" fill="#FFFFFF" points="132.959075 50.8832506 133.149603 49.9650552 136.028374 47.6731816 133.645914 47.6731816 133.852603 46.6971471 137.782259 46.6971471 137.608741 47.524331 134.762718 49.8906299 137.103925 49.8906299 136.897236 50.8832506"></polygon>
                        <path d="M139.346083,50.8832506 C139.136416,50.8832506 138.984589,50.8432736 138.891025,50.7633195 C138.797037,50.6833655 138.750255,50.5634345 138.750255,50.4035264 C138.750255,50.3261241 138.763864,50.2240552 138.791933,50.0973195 L138.998623,49.1042736 C139.031795,48.9503195 139.070497,48.8206069 139.114301,48.7155609 C139.158531,48.6109402 139.213393,48.5280092 139.279738,48.4676184 C139.346083,48.4068023 139.426037,48.3642736 139.520025,48.3391816 C139.613589,48.3145149 139.726715,48.3021816 139.858979,48.3021816 L141.985416,48.3021816 L141.83614,49.0136874 L140.314037,49.0136874 C140.236634,49.0136874 140.181772,49.0272966 140.1486,49.0549402 C140.115428,49.0825839 140.090761,49.140423 140.074175,49.2284575 L139.983163,49.667354 C139.977634,49.6949977 139.973382,49.7166874 139.97083,49.7332736 C139.967853,49.7498598 139.966577,49.766446 139.966577,49.7830322 C139.966577,49.8549057 140.018887,49.8906299 140.123933,49.8906299 L142.059416,49.8906299 L142.498313,47.8386184 C142.503416,47.8169287 142.506393,47.786308 142.506393,47.7476069 C142.506393,47.703377 142.492359,47.6689287 142.46514,47.6442621 C142.437497,47.6195954 142.385186,47.6068368 142.307784,47.6068368 L139.470267,47.6068368 L139.66037,46.6971471 L143.085634,46.6971471 C143.328048,46.6971471 143.499439,46.7371241 143.598531,46.8170782 C143.697623,46.8970322 143.747382,47.022492 143.747382,47.1934575 C143.747382,47.2708598 143.733347,47.3780322 143.706129,47.5162506 L142.994623,50.8832506 L139.346083,50.8832506 Z" id="Fill-35" fill="#FFFFFF"></path>
                        <polygon id="Fill-37" fill="#FFFFFF" points="149.381206 50.8832506 148.835137 45.2822161 150.133964 45.2822161 150.448252 49.3692276 152.574689 45.2822161 153.823757 45.2822161 150.796137 50.8832506"></polygon>
                        <path d="M154.461008,50.8832506 C154.251341,50.8832506 154.099514,50.8432736 154.005951,50.7633195 C153.911962,50.6833655 153.86518,50.5634345 153.86518,50.4035264 C153.86518,50.3261241 153.87879,50.2240552 153.906859,50.0973195 L154.113548,49.1042736 C154.146721,48.9503195 154.185422,48.8206069 154.229226,48.7155609 C154.273456,48.6109402 154.328318,48.5280092 154.394663,48.4676184 C154.461008,48.4068023 154.540962,48.3642736 154.634951,48.3391816 C154.728514,48.3145149 154.84164,48.3021816 154.973905,48.3021816 L157.100341,48.3021816 L156.951066,49.0136874 L155.428962,49.0136874 C155.35156,49.0136874 155.296698,49.0272966 155.263525,49.0549402 C155.230353,49.0825839 155.205686,49.140423 155.1891,49.2284575 L155.098089,49.667354 C155.09256,49.6949977 155.088307,49.7166874 155.085755,49.7332736 C155.082778,49.7498598 155.081502,49.766446 155.081502,49.7830322 C155.081502,49.8549057 155.133813,49.8906299 155.238859,49.8906299 L157.174341,49.8906299 L157.613238,47.8386184 C157.618341,47.8169287 157.621318,47.786308 157.621318,47.7476069 C157.621318,47.703377 157.607284,47.6689287 157.580066,47.6442621 C157.552422,47.6195954 157.500111,47.6068368 157.422709,47.6068368 L154.585192,47.6068368 L154.775295,46.6971471 L158.20056,46.6971471 C158.442974,46.6971471 158.614364,46.7371241 158.713456,46.8170782 C158.812548,46.8970322 158.862307,47.022492 158.862307,47.1934575 C158.862307,47.2708598 158.848272,47.3780322 158.821054,47.5162506 L158.109548,50.8832506 L154.461008,50.8832506 Z" id="Fill-39" fill="#FFFFFF"></path>
                        <path d="M159.871556,50.8832506 L160.070166,49.9238023 L162.940855,49.9238023 C163.02889,49.9238023 163.08843,49.9097678 163.118625,49.8821241 C163.149246,49.8549057 163.172637,49.8021701 163.189223,49.7247678 L163.280234,49.3113885 C163.285338,49.2948023 163.288315,49.2726874 163.288315,49.2450437 C163.288315,49.1735954 163.233028,49.1378713 163.122878,49.1378713 L160.880763,49.1378713 C160.693211,49.1378713 160.556694,49.100446 160.471211,49.0260207 C160.385729,48.9515954 160.3432,48.8508023 160.3432,48.7240667 C160.3432,48.6687793 160.35128,48.6079632 160.367867,48.5420437 L160.599648,47.4252391 C160.649407,47.1768713 160.74297,46.9935724 160.880763,46.8749172 C161.018556,46.7562621 161.233752,46.6971471 161.526349,46.6971471 L164.984361,46.6971471 L164.785752,47.6319287 L161.931648,47.6319287 C161.843189,47.6319287 161.779821,47.6485149 161.74112,47.6816874 C161.702418,47.7144345 161.6752,47.7726989 161.658614,47.8552046 L161.584189,48.2026644 C161.57866,48.2192506 161.575683,48.2439172 161.575683,48.2770897 C161.575683,48.3655494 161.633947,48.4097793 161.749625,48.4097793 L164.016407,48.4097793 C164.209487,48.4097793 164.348556,48.4480552 164.434464,48.5254575 C164.519522,48.6028598 164.562476,48.7045034 164.562476,48.8316644 C164.562476,48.859308 164.560775,48.8865264 164.558223,48.9141701 C164.555246,48.9418138 164.550993,48.9694575 164.54589,48.9966759 L164.297522,50.1551586 C164.242234,50.4035264 164.145694,50.5868253 164.008326,50.7054805 C163.870108,50.8241356 163.654913,50.8832506 163.36274,50.8832506 L159.871556,50.8832506 Z" id="Fill-41" fill="#FFFFFF"></path>
                        <path d="M166.647107,50.8832506 C166.409797,50.8832506 166.240107,50.8432736 166.138038,50.7633195 C166.035969,50.6833655 165.984934,50.5579057 165.984934,50.3869402 C165.984934,50.3095379 165.998969,50.2019402 166.026613,50.0641471 L166.564176,47.5162506 C166.624992,47.2347103 166.725785,47.0280207 166.86613,46.8957563 C167.0069,46.7630667 167.2289,46.6971471 167.532555,46.6971471 L170.361567,46.6971471 C170.571233,46.6971471 170.721785,46.7371241 170.812371,46.8170782 C170.903383,46.8970322 170.948889,47.0169632 170.948889,47.1768713 C170.948889,47.2763885 170.937831,47.3780322 170.916141,47.4830782 L170.568682,49.1293655 L167.780498,49.1293655 L167.921268,48.434446 L169.608808,48.434446 L169.732992,47.8717908 C169.738521,47.8441471 169.741072,47.808423 169.741072,47.7641931 C169.741072,47.7203885 169.728739,47.6897678 169.704072,47.6731816 C169.67898,47.6565954 169.633475,47.6485149 169.567555,47.6485149 L167.904682,47.6485149 C167.810693,47.6485149 167.747325,47.6638253 167.714153,47.6940207 C167.681406,47.7242161 167.653337,47.786308 167.631647,47.8798713 L167.242509,49.6835149 C167.23698,49.7111586 167.232728,49.7345494 167.230176,49.7541126 C167.227624,49.7732506 167.225923,49.7911126 167.225923,49.8076989 C167.225923,49.8574575 167.239957,49.8906299 167.267601,49.9072161 C167.29482,49.9238023 167.344578,49.9318828 167.416452,49.9318828 L170.237383,49.9318828 L170.039199,50.8832506 L166.647107,50.8832506 Z" id="Fill-43" fill="#FFFFFF"></path>
                        <path d="M172.7197,50.8832506 C172.487918,50.8832506 172.321206,50.8432736 172.219137,50.7633195 C172.117068,50.6833655 172.066033,50.5579057 172.066033,50.3869402 C172.066033,50.3095379 172.079643,50.2019402 172.107286,50.0641471 L173.06716,45.5305839 L174.225643,45.5305839 L173.977275,46.6971471 L174.986482,46.6971471 L174.796378,47.6068368 L173.786746,47.6068368 L173.331689,49.7498598 C173.320631,49.8051471 173.315102,49.8408713 173.315102,49.8574575 C173.315102,49.9348598 173.375918,49.9731356 173.497551,49.9731356 L174.25839,49.9731356 L174.068286,50.8832506 L172.7197,50.8832506 Z" id="Fill-45" fill="#FFFFFF"></path>
                        <path d="M179.544839,47.9296724 C179.555897,47.8748103 179.561425,47.8416379 179.561425,47.8305805 C179.561425,47.7421207 179.487,47.6983161 179.338149,47.6983161 L177.699943,47.6983161 C177.611908,47.6983161 177.549816,47.7132011 177.513667,47.7438218 C177.477943,47.7740172 177.451575,47.8361092 177.435414,47.9296724 L177.079448,49.6337989 C177.07392,49.6563391 177.069667,49.6750517 177.067115,49.6920632 C177.064138,49.7086494 177.062862,49.7248103 177.062862,49.7413966 C177.062862,49.8187989 177.123678,49.8575 177.244885,49.8575 L178.883092,49.8575 C178.982184,49.8575 179.054057,49.8409138 179.098287,49.8077414 C179.142092,49.774569 179.172713,49.7167299 179.189299,49.6337989 L179.544839,47.9296724 Z M176.442368,50.8832931 C176.210586,50.8832931 176.043874,50.8433161 175.941805,50.7633621 C175.839736,50.683408 175.788701,50.5579483 175.788701,50.3869828 C175.788701,50.3095805 175.802736,50.2019828 175.830379,50.0641897 L176.367943,47.5158678 C176.428333,47.2347529 176.529126,47.0280632 176.669897,46.8953736 C176.810667,46.7631092 177.02969,46.6971897 177.327816,46.6971897 L180.173839,46.6971897 C180.416253,46.6971897 180.587218,46.7371667 180.686736,46.8171207 C180.785828,46.8970747 180.835586,47.0225345 180.835586,47.1935 C180.835586,47.2709023 180.821552,47.3780747 180.794333,47.5158678 L180.256345,50.0641897 C180.195529,50.3453046 180.094736,50.5524195 179.954391,50.6846839 C179.813621,50.8169483 179.591621,50.8832931 179.288391,50.8832931 L176.442368,50.8832931 Z" id="Fill-47" fill="#FFFFFF"></path>
                        <polygon id="Fill-49" fill="#FFFFFF" points="186.452867 50.8832506 185.906798 45.2822161 187.205625 45.2822161 187.519913 49.3692276 189.646349 45.2822161 190.895418 45.2822161 187.867798 50.8832506"></polygon>
                        <path d="M194.635098,47.9296724 C194.646155,47.8748103 194.651684,47.8416379 194.651684,47.8305805 C194.651684,47.7421207 194.577259,47.6983161 194.428408,47.6983161 L192.790201,47.6983161 C192.702167,47.6983161 192.640075,47.7132011 192.603925,47.7438218 C192.568201,47.7740172 192.541833,47.8361092 192.525672,47.9296724 L192.169707,49.6337989 C192.164178,49.6563391 192.159925,49.6750517 192.157374,49.6920632 C192.154397,49.7086494 192.153121,49.7248103 192.153121,49.7413966 C192.153121,49.8187989 192.213937,49.8575 192.335144,49.8575 L193.973351,49.8575 C194.072443,49.8575 194.144316,49.8409138 194.188546,49.8077414 C194.232351,49.774569 194.262971,49.7167299 194.279557,49.6337989 L194.635098,47.9296724 Z M191.532626,50.8832931 C191.300845,50.8832931 191.134132,50.8433161 191.032063,50.7633621 C190.929994,50.683408 190.87896,50.5579483 190.87896,50.3869828 C190.87896,50.3095805 190.892994,50.2019828 190.920638,50.0641897 L191.458201,47.5158678 C191.518592,47.2347529 191.619385,47.0280632 191.760155,46.8953736 C191.900925,46.7631092 192.119948,46.6971897 192.418075,46.6971897 L195.264098,46.6971897 C195.506511,46.6971897 195.677477,46.7371667 195.776994,46.8171207 C195.876086,46.8970747 195.925845,47.0225345 195.925845,47.1935 C195.925845,47.2709023 195.91181,47.3780747 195.884592,47.5158678 L195.346603,50.0641897 C195.285787,50.3453046 195.184994,50.5524195 195.044649,50.6846839 C194.903879,50.8169483 194.681879,50.8832931 194.378649,50.8832931 L191.532626,50.8832931 Z" id="Fill-51" fill="#FFFFFF"></path>
                        <polygon id="Fill-53" fill="#FFFFFF" points="196.876957 50.8832506 197.067486 49.9650552 199.946256 47.6731816 197.563797 47.6731816 197.770486 46.6971471 201.700141 46.6971471 201.526624 47.524331 198.680601 49.8906299 201.021808 49.8906299 200.815118 50.8832506"></polygon>
                        <path d="M203.57838,46.2004966 L203.843334,44.9429218 L205.009472,44.9429218 L204.744944,46.2004966 L203.57838,46.2004966 Z M202.58576,50.8833356 L203.470783,46.6968069 L204.629266,46.6968069 L203.743817,50.8833356 L202.58576,50.8833356 Z" id="Fill-55" fill="#FFFFFF"></path>
                        <polygon id="Fill-57" fill="#FFFFFF" points="205.571915 50.8832506 206.82949 44.9432621 207.987972 44.9432621 206.730398 50.8832506"></polygon>
                        <path d="M212.380851,47.9296724 C212.391908,47.8748103 212.397437,47.8416379 212.397437,47.8305805 C212.397437,47.7421207 212.323011,47.6983161 212.174161,47.6983161 L210.535954,47.6983161 C210.44792,47.6983161 210.385828,47.7132011 210.349678,47.7438218 C210.313954,47.7740172 210.287586,47.8361092 210.271425,47.9296724 L209.91546,49.6337989 C209.909931,49.6563391 209.905678,49.6750517 209.903126,49.6920632 C209.900149,49.7086494 209.898874,49.7248103 209.898874,49.7413966 C209.898874,49.8187989 209.95969,49.8575 210.080897,49.8575 L211.719103,49.8575 C211.818195,49.8575 211.890069,49.8409138 211.934299,49.8077414 C211.978103,49.774569 212.008724,49.7167299 212.02531,49.6337989 L212.380851,47.9296724 Z M209.278379,50.8832931 C209.046598,50.8832931 208.879885,50.8433161 208.777816,50.7633621 C208.675747,50.683408 208.624713,50.5579483 208.624713,50.3869828 C208.624713,50.3095805 208.638747,50.2019828 208.666391,50.0641897 L209.203954,47.5158678 C209.264345,47.2347529 209.365138,47.0280632 209.505908,46.8953736 C209.646678,46.7631092 209.865701,46.6971897 210.163828,46.6971897 L213.009851,46.6971897 C213.252264,46.6971897 213.42323,46.7371667 213.522747,46.8171207 C213.621839,46.8970747 213.671598,47.0225345 213.671598,47.1935 C213.671598,47.2709023 213.657563,47.3780747 213.630345,47.5158678 L213.092356,50.0641897 C213.03154,50.3453046 212.930747,50.5524195 212.790402,50.6846839 C212.649632,50.8169483 212.427632,50.8832931 212.124402,50.8832931 L209.278379,50.8832931 Z" id="Fill-59" fill="#FFFFFF"></path>
                    </g>
                </g>
            </g>
        </g>
    </g>
</svg>