<?xml version="1.0" encoding="UTF-8"?>
<svg width="27px" height="23px" viewBox="0 0 27 23" version="1.1" xmlns="http://www.w3.org/2000/svg" xmlns:xlink="http://www.w3.org/1999/xlink">
    <!-- Generator: sketchtool 63.1 (101010) - https://sketch.com -->
    <title>88553EB1-7B8B-4B4C-A3D3-FE4F0A58B85A</title>
    <desc>Created with sketchtool.</desc>
    <g id="Pages" stroke="none" stroke-width="1" fill="none" fill-rule="evenodd" stroke-linecap="round" stroke-linejoin="round">
        <g id="Single-Page" transform="translate(-674.000000, -1163.000000)" stroke="#FFFFFF" stroke-width="2.22222222">
            <g id="Twitter" transform="translate(647.000000, 1145.000000)">
                <g id="twitter" transform="translate(29.000000, 19.000000)">
                    <path d="M23.4666667,0.277777778 C22.4452106,1.02830823 21.3142484,1.60234361 20.1173333,1.97777778 C18.8014502,0.40170866 16.680928,-0.150984099 14.8075536,0.593837149 C12.9341792,1.3386584 11.7064536,3.22255652 11.7333333,5.31111111 L11.7333333,6.42222222 C7.92604248,6.52505822 4.32216033,4.63552279 2.13333333,1.38888889 C2.13333333,1.38888889 -2.13333333,11.3888889 7.46666667,15.8333333 C5.26989607,17.3866292 2.65296737,18.1654771 1.24344979e-15,18.0555556 C9.6,23.6111111 21.3333333,18.0555556 21.3333333,5.27777778 C21.3323511,4.96828182 21.303784,4.65954933 21.248,4.35555556 C22.3366434,3.23721453 23.1048826,1.82523643 23.4666667,0.277777778 Z" id="Path"></path>
                </g>
            </g>
        </g>
    </g>
</svg>