<?xml version="1.0" encoding="UTF-8"?>
<svg width="41px" height="41px" viewBox="0 0 41 41" version="1.1" xmlns="http://www.w3.org/2000/svg" xmlns:xlink="http://www.w3.org/1999/xlink">
    <!-- Generator: sketchtool 63.1 (101010) - https://sketch.com -->
    <title>09F4560E-7732-4629-9BA9-DC1641615251</title>
    <desc>Created with sketchtool.</desc>
    <g id="Pages" stroke="none" stroke-width="1" fill="none" fill-rule="evenodd">
        <g id="Homepage" transform="translate(-431.000000, -863.000000)" fill="#001E50" fill-rule="nonzero">
            <g id="Discussions" transform="translate(408.000000, 753.000000)">
                <g id="Box" transform="translate(0.000000, 90.000000)">
                    <g id="volkswagen-new-2019-seeklogo.com-3" transform="translate(23.000000, 20.000000)">
                        <path d="M19.9062069,0 L21.3923529,0 C24.4511359,0.150527383 27.481643,0.951399594 30.1844828,2.39845842 C34.8691278,4.87093306 38.4959229,9.25369168 40.0727181,14.3084178 C40.4935294,15.6598377 40.7821095,17.0553347 40.9035294,18.4658012 C41.0241176,19.5693915 40.9525963,20.686288 40.9600811,21.7948682 C40.7712982,24.916856 39.8465112,27.9947667 38.2705477,30.6984381 C36.746146,33.3355781 34.6296146,35.6284178 32.1163895,37.3507505 C28.9644625,39.5171805 25.1946247,40.743854 21.378215,40.9168357 L19.6874848,40.9168357 C18.8283976,40.8569574 17.9676471,40.7854361 17.1185396,40.636572 C12.8663489,39.9263489 8.84951318,37.8372617 5.85975659,34.7260852 C2.37517241,31.1616633 0.2436714,26.2815822 0.103955375,21.2908925 C0.0232860041,20.6829615 0.0648681542,20.0708722 0.112271805,19.4621095 C0.0989655172,18.9007505 0.207910751,18.3493712 0.22703854,17.7905071 L0.26862069,17.7397769 C0.927281947,12.2118458 4.07255578,7.07312373 8.58255578,3.83553753 C11.8642191,1.4678499 15.8635903,0.127241379 19.9062069,0 M18.694503,1.97931034 C18.4774442,2.02920892 18.2553955,2.0441785 18.0341785,2.06413793 C17.7048479,2.13066937 17.3696957,2.16559838 17.0411968,2.23628803 C16.9056389,2.26955375 16.7675862,2.29533469 16.6311968,2.32194726 C16.5197566,2.35188641 16.4066531,2.37600406 16.2935497,2.40095335 C15.9650507,2.48661258 15.6332252,2.56395538 15.3130426,2.6803854 C15.2673022,2.6920284 15.1749899,2.71365112 15.1284178,2.72446247 C15.0452535,2.75606491 14.9620892,2.78766734 14.8789249,2.81760649 C14.794929,2.84255578 14.7109331,2.86750507 14.6269371,2.89245436 C14.5836917,2.92156187 14.5404462,2.94983773 14.4980325,2.97894523 C14.571217,3.12281947 14.6402434,3.26918864 14.7034483,3.41805274 C14.7982556,3.63511156 14.8972211,3.85133874 14.995355,4.06673428 C15.1167748,4.35032454 15.2473428,4.63058824 15.3646045,4.91584178 C15.4785396,5.16283976 15.591643,5.41150101 15.6955984,5.66348884 C15.9109939,6.126714 16.1089249,6.59825558 16.3218256,7.06231237 C17.3572211,9.39922921 18.4092495,11.7286613 19.44714,14.0647465 C19.5569168,14.3142394 19.6725152,14.5612373 19.7789655,14.8123935 C19.8887424,15.0618864 20.0026775,15.309716 20.113286,15.5592089 C20.2330426,15.8178499 20.3103854,16.1130832 20.5424138,16.2993712 C20.7503245,16.1272211 20.8376471,15.8685801 20.9341176,15.6274037 C21.0596957,15.3571197 21.1786207,15.0843408 21.2983773,14.8115619 C22.4252535,12.2825355 23.5629412,9.7568357 24.6864909,7.22614604 C24.7962677,6.97665314 24.9093712,6.72882353 25.0183164,6.47933063 C25.1280933,6.22983773 25.2411968,5.98117647 25.350142,5.73168357 C25.4607505,5.48219067 25.5721907,5.23352941 25.6819675,4.98320487 C25.8017241,4.71125761 25.9223124,4.43931034 26.042069,4.16736308 C26.1518458,3.91703854 26.2657809,3.66920892 26.3722312,3.41805274 C26.4420892,3.26586207 26.5111156,3.11283976 26.5892901,2.96397566 C26.4603854,2.91490872 26.3356389,2.858357 26.2075659,2.8101217 C26.1219067,2.78350913 26.0379108,2.75523327 25.9539148,2.72612576 C25.9081744,2.71448276 25.8158621,2.69119675 25.7692901,2.67955375 C25.4491075,2.56561866 25.1172819,2.49243408 24.7904462,2.4001217 C24.5409533,2.35188641 24.2922921,2.29450304 24.0461258,2.23129817 C23.7134686,2.17724138 23.3791481,2.13150101 23.0489858,2.06330629 C22.8261055,2.0441785 22.6015619,2.02920892 22.3836714,1.9784787 C21.9686815,1.94022312 21.5495335,1.96267748 21.1378702,1.89198783 C20.3211968,1.84957404 19.5086815,1.94687627 18.694503,1.97931034 M11.3544219,4.35780933 C8.80543611,5.84894523 6.63235294,7.95466531 4.99651116,10.4096755 C5.04058824,10.6109331 5.13622718,10.7938945 5.23103448,10.9743611 C5.35661258,11.2180325 5.4730426,11.4666937 5.59279919,11.71286 C5.73002028,11.9897972 5.86724138,12.2667343 6.00862069,12.5420081 C7.45817444,15.4876876 8.94099391,18.4183976 10.3847262,21.3674037 C10.4254767,21.4447465 10.4653955,21.5220892 10.5053144,21.6002637 C10.6708114,21.9337525 10.8363083,22.2689047 10.9984787,22.6048884 C12.1353347,24.8968966 13.2788438,27.1855781 14.4156998,29.4775862 C14.4639351,29.6173022 14.5845233,29.6796755 14.7275659,29.6772524 C14.8556389,29.4409939 14.969574,29.1964909 15.0751927,28.9494929 C15.1666734,28.7199594 15.2697972,28.4954158 15.367931,28.2683773 C15.4627383,28.0521501 15.5533874,27.8342596 15.6490264,27.6180325 C15.7463286,27.3901623 15.850284,27.1656187 15.943428,26.9360852 C16.0407302,26.7215213 16.1338742,26.5044625 16.2278499,26.2874037 C16.9530426,24.6216227 17.6832252,22.9575051 18.4167343,21.2950507 C18.4940771,21.1137525 18.6762069,20.9790264 18.8799594,21.0048073 C19.9893712,21.003144 21.0996146,21.0023124 22.209858,21.0056389 C22.4269168,20.9790264 22.6073834,21.1378702 22.6813996,21.3299797 C23.4057606,22.9824544 24.1351116,24.6324341 24.8519878,26.2882353 C24.9467951,26.5052941 25.0407708,26.7223529 25.1389047,26.9377485 C25.2320487,27.1664503 25.3343408,27.3918256 25.4324746,27.6180325 C25.5272819,27.8342596 25.617931,28.0529817 25.7119067,28.2700406 C25.9264706,28.7316024 26.0944625,29.2156187 26.3481136,29.6580527 L26.5510345,29.6647059 C27.4716633,27.8958012 28.3382353,26.0969574 29.2339148,24.3139148 C31.2256998,20.2737931 33.2382759,16.2436511 35.2400406,12.2085193 C35.3955578,11.9141176 35.5261258,11.608073 35.6841379,11.3153347 C35.8255172,11.0300811 35.9419473,10.7290264 36.1332252,10.471217 C35.9652333,10.2658012 35.823854,10.0429209 35.6741582,9.82586207 C34.1056795,7.61452333 32.0673225,5.73833671 29.7337323,4.36030426 C29.6464097,4.30624746 29.5524341,4.26549696 29.4526369,4.24553753 C28.4213996,6.51758621 27.3951521,8.7937931 26.3747262,11.0708316 C26.2433266,11.3760446 26.0986207,11.6746045 25.969716,11.9798174 C25.8732454,12.1977079 25.7751116,12.4147667 25.6736511,12.6301623 C25.5522312,12.9145842 25.4224949,13.1956795 25.30357,13.4809331 C25.1779919,13.751217 25.0549087,14.0223327 24.9351521,14.2951116 C24.2324138,15.8660852 23.5255172,17.4345639 22.8169574,19.002211 C22.738783,19.1693712 22.678073,19.3481744 22.5658012,19.4962069 C22.4344016,19.6400811 22.2173428,19.6325963 22.0393712,19.6409128 C21.0106288,19.6375862 19.9818864,19.6434077 18.9539757,19.6384178 C18.7377485,19.6434077 18.4940771,19.5685598 18.4192292,19.3431846 C17.6574442,17.6616024 16.8981542,15.9791886 16.1446856,14.2951116 C16.0240974,14.0223327 15.9018458,13.751217 15.7787627,13.4801014 C15.6573428,13.1956795 15.5267748,12.9162475 15.4011968,12.6343205 C15.2797769,12.3615416 15.1600203,12.0887627 15.0386004,11.8159838 C13.9158824,9.2811359 12.7524138,6.76292089 11.633854,4.22640974 C11.5398783,4.26716024 11.445071,4.30791075 11.3544219,4.35780933 M37.8663692,13.9840771 C37.4954564,14.7965923 37.074645,15.5858215 36.687931,16.3908519 C36.5748276,16.612069 36.4633874,16.833286 36.3561055,17.056998 C36.2479919,17.2790467 36.1373834,17.5002637 36.0301014,17.723144 C35.9876876,17.8021501 35.9452738,17.8819878 35.90286,17.9609939 C35.8637728,18.0466531 35.823854,18.1323124 35.7831034,18.21714 C35.7614807,18.2603854 35.7190669,18.3460446 35.6974442,18.3892901 C35.6558621,18.4674645 35.6151116,18.5473022 35.5743611,18.6263083 C35.5103245,18.7726775 35.4396349,18.9157201 35.3706085,19.0595943 C34.0150304,21.8040162 32.6311765,24.5351318 31.2780933,27.281217 C31.2573022,27.3227992 31.2165517,27.4051318 31.1957606,27.446714 C31.1375456,27.5564909 31.0843205,27.6687627 31.029432,27.7810345 C30.9728803,27.8908114 30.9188235,28.0022515 30.86643,28.115355 C30.8115416,28.2251318 30.7549899,28.3349087 30.7025963,28.4471805 C30.6826369,28.4887627 30.6418864,28.5727586 30.6210953,28.6143408 C30.5811765,28.6916836 30.540426,28.7690264 30.5005071,28.8463692 C30.3666126,29.1258012 30.2252333,29.4010751 30.0896755,29.6796755 C29.0742394,31.7554564 28.033854,33.8187627 26.9984584,35.8845639 C26.8554158,36.2380122 26.4005071,36.4251318 26.0686815,36.2072414 C25.7268763,35.9668966 25.6445436,35.5252941 25.4698986,35.1710142 C25.3451521,34.9007302 25.2237323,34.6279513 25.1048073,34.3551724 C23.873144,31.5741582 22.6240162,28.8006288 21.3881947,26.0212779 C21.2792495,25.7709533 21.1628195,25.5239554 21.0572008,25.2719675 C20.9457606,25.021643 20.8276673,24.7738134 20.7361866,24.5151724 C20.6646653,24.4128803 20.5340974,24.3396957 20.4176673,24.4236917 C20.2421907,24.7247465 20.1274239,25.056572 19.9835497,25.373428 C18.7352535,28.1752333 17.4744828,30.971217 16.2353347,33.7771805 C16.1380325,33.9917444 16.0398986,34.20714 15.9425963,34.4225355 C15.824503,34.7069574 15.6931034,34.9855578 15.5725152,35.2699797 C15.4552535,35.5169777 15.3670994,35.7806085 15.2174037,36.0126369 C15.0560649,36.2479919 14.7358824,36.3694118 14.4647667,36.2604665 C14.2643408,36.1947667 14.1445842,36.0059838 14.0497769,35.8305071 C13.0210345,33.7555578 11.9748276,31.6889249 10.9527383,29.6114807 C10.9003448,29.5000406 10.8454564,29.389432 10.7913996,29.2796552 C10.6849493,29.0559432 10.5735091,28.8347262 10.4612373,28.6143408 C10.4404462,28.5727586 10.3996957,28.4887627 10.3789047,28.4463489 C10.3265112,28.3349087 10.2691278,28.2259635 10.2134077,28.1161866 C10.1593509,28.0047465 10.1044625,27.8941379 10.0479108,27.7843611 C10.0071602,27.693712 9.96557809,27.6047262 9.9231643,27.5157404 C9.85413793,27.3826775 9.78760649,27.2496146 9.72024341,27.1165517 C9.63791075,26.9493915 9.55724138,26.7822312 9.47075051,26.6175659 C8.12099391,23.8664909 6.72549696,21.1378702 5.37989858,18.3843002 C5.35993915,18.3418864 5.318357,18.2578905 5.29756592,18.2163083 C5.20359026,18.0183773 5.10462475,17.8229412 5.00815416,17.6258418 C4.908357,17.4370588 4.81687627,17.2441176 4.71707911,17.0553347 C4.67882353,16.9671805 4.63890467,16.8790264 4.59981744,16.7917039 C4.55740365,16.7143611 4.51665314,16.6370183 4.47590264,16.5596755 C4.05924949,15.7138945 3.64342799,14.8681136 3.21929006,14.0264909 C3.05878296,14.2826369 2.99308316,14.5803651 2.89411765,14.8622921 C1.39882353,19.4662677 1.85373225,24.6565517 4.10748479,28.9386815 C4.11580122,28.9611359 4.13243408,29.0068763 4.14158215,29.0293306 C4.35614604,29.3994118 4.55490872,29.778641 4.7827789,30.1412373 C6.79452333,33.4287221 9.85413793,36.0641988 13.3986004,37.5769574 C13.5374848,37.6326775 13.6755375,37.6900609 13.8152535,37.7441176 C13.9175456,37.7865314 14.0206694,37.8256187 14.1237931,37.8680325 C14.2418864,37.9079513 14.3608114,37.9511968 14.4797363,37.9919473 C14.5629006,38.0218864 14.6460649,38.0518256 14.7292292,38.0825963 C14.8123935,38.1092089 14.8955578,38.1358215 14.9795538,38.1616024 C15.193286,38.2289655 15.4103448,38.2855172 15.6232454,38.3528803 C15.9542394,38.4418661 16.2877282,38.5217039 16.621217,38.6015416 C16.7592698,38.6256592 16.8981542,38.6514402 17.0353753,38.6830426 C17.1742596,38.7096552 17.3148073,38.7362677 17.4536917,38.7703651 C18.1223327,38.8518661 18.7876471,38.9749493 19.4646045,38.9782759 C20.1515416,39.0489655 20.8484584,39.0597769 21.5362272,38.9832657 C22.2381339,38.9699594 22.9342191,38.8718256 23.626146,38.7645436 C23.7650304,38.7312779 23.9055781,38.7079919 24.0461258,38.6838742 C24.1833469,38.6506085 24.3222312,38.6264909 24.4619473,38.6015416 C24.7946045,38.5208722 25.1280933,38.4418661 25.4590872,38.3528803 C25.6719878,38.2855172 25.8873834,38.2273022 26.100284,38.1599391 C26.1851116,38.1291684 26.2691075,38.1000609 26.3547667,38.0709533 C26.3980122,38.0593103 26.484503,38.0351927 26.5285801,38.0235497 C26.7747465,37.929574 27.0234077,37.8414199 27.2687424,37.7449493 C27.4067951,37.6883976 27.5456795,37.6310142 27.6845639,37.5744625 C29.7245842,36.711217 31.5957809,35.4629209 33.2050101,33.9426775 C35.4654158,31.828641 37.158641,29.1266329 38.1341582,26.1925963 C39.4306897,22.2539351 39.3774645,17.8545436 37.8663692,13.9840771 L37.8663692,13.9840771 Z" id="Shape"></path>
                    </g>
                </g>
            </g>
        </g>
    </g>
</svg>